<svg width="46" height="46" viewBox="0 0 46 46" fill="none" xmlns="http://www.w3.org/2000/svg">
<circle cx="23" cy="23" r="22.5" fill="#FF3131" stroke="white"/>
<mask id="mask0_2002_2220" style="mask-type:luminance" maskUnits="userSpaceOnUse" x="10" y="10" width="25" height="25">
<path d="M10 10H35V35H10V10Z" fill="white"/>
</mask>
<g mask="url(#mask0_2002_2220)">
<path d="M34.4786 16.778C34.3409 16.2789 34.066 15.8225 33.6815 15.4547C33.2969 15.0869 32.8163 14.8206 32.2876 14.6824C30.3315 14.1677 22.4937 14.1677 22.4937 14.1677C19.2255 14.1308 15.9582 14.2945 12.7128 14.6579C12.184 14.8062 11.7041 15.0786 11.3185 15.4496C10.9329 15.8206 10.6542 16.2777 10.5088 16.778C10.1582 18.6676 9.98798 20.583 10.0002 22.501C9.98714 24.4191 10.1574 26.3345 10.5088 28.2241C10.6512 28.723 10.9293 29.1785 11.3157 29.546C11.7021 29.9134 12.1836 30.1799 12.7128 30.3196C14.6951 30.8343 22.4937 30.8343 22.4937 30.8343C25.7662 30.8713 29.0378 30.7075 32.2876 30.3441C32.8163 30.206 33.2969 29.9396 33.6815 29.5718C34.066 29.204 34.3409 28.7476 34.4786 28.2486C34.8381 26.3598 35.0127 24.4442 35.0002 22.5256C35.0272 20.5983 34.8524 18.6731 34.4786 16.778ZM20.0028 26.0672V18.9348L26.5235 22.501L20.0028 26.0672Z" fill="white"/>
</g>
</svg>
