<svg width="267" height="351" viewBox="0 0 267 351" fill="none" xmlns="http://www.w3.org/2000/svg">
    <path opacity="0.1"
        d="M133.489 351C59.8916 351 0 289.881 0 214.768C0 149.657 38.3351 104.413 124.965 9.50242C125.705 8.70866 132.749 0.816437 133.511 0L145.355 12.995C144.368 14.0835 137.796 21.25 136.809 22.3386C51.8164 115.458 17.2273 156.302 17.2273 214.768C17.2273 280.197 69.3801 333.424 133.489 333.424C197.598 333.424 249.773 280.197 249.773 214.768C249.773 161.881 220.971 123.055 155.561 50.3243L145.176 61.9358C146.746 63.6594 148.271 65.383 149.774 67.0612C151.972 69.5106 154.103 71.9145 156.189 74.2731C211.37 136.663 234.43 169.978 234.43 214.768C234.43 271.556 189.141 317.753 133.511 317.753C77.8591 317.753 32.5703 271.556 32.5703 214.768C32.5703 174.445 49.0124 144.691 105.809 82.0973L112.112 75.1349L145.153 111.33L139.949 117.295C85.1717 180.342 82.3902 195.401 82.3902 214.768C82.3902 243.525 105.315 266.93 133.511 266.93C161.685 266.93 184.61 243.525 184.61 214.768C184.61 199.437 182.411 186.329 154.911 150.882L144.682 162.97C167.405 192.702 169.267 203.338 169.267 214.768C169.267 234.907 153.228 251.281 133.511 251.281C113.772 251.281 97.7333 234.907 97.7333 214.768C97.7333 206.559 98.4735 199.052 107.693 183.925L122.318 193.201C114.983 205.289 114.983 209.688 114.983 214.768C114.983 225.201 123.283 233.682 133.511 233.682C143.717 233.682 152.017 225.201 152.017 214.768C152.017 207.965 152.017 200.231 126.782 168.254L122.273 162.539L155.27 123.531L161.775 131.582C195.848 173.81 201.859 192.044 201.859 214.768C201.859 253.232 171.196 284.506 133.511 284.506C95.8042 284.506 65.1406 253.232 65.1406 214.768C65.1406 187.735 73.8888 167.506 121.869 111.625L112.179 101.011C63.9966 154.919 49.82 181.204 49.82 214.768C49.82 261.872 87.3476 300.177 133.511 300.177C179.63 300.177 217.18 261.872 217.18 214.768C217.18 179.231 201.321 151.562 143.403 86.0661C141.317 83.7302 139.209 81.3489 137.033 78.9223C133.848 75.339 130.573 71.6877 127.163 67.9004L121.802 61.9812L155.516 24.289L161.887 31.3421C233.353 110.378 267 154.239 267 214.768C267 289.881 207.108 351 133.489 351Z"
        fill="url(#paint0_linear_5176_16768)" />
    <defs>
        <linearGradient id="paint0_linear_5176_16768" x1="133.5" y1="41" x2="133.5" y2="351"
            gradientUnits="userSpaceOnUse">
            <stop offset="0.305" stop-color="white" stop-opacity="0.6" />
            <stop offset="0.9999" stop-color="white" stop-opacity="0" />
            <stop offset="1" stop-color="#6327CE" stop-opacity="0" />
            <stop offset="1" stop-color="white" stop-opacity="0" />
        </linearGradient>
    </defs>
</svg>
    