<svg width="336" height="118" viewBox="0 0 336 118" fill="none" xmlns="http://www.w3.org/2000/svg">
<path d="M90.0652 47.6005C92.6263 47.6005 92.6291 43.6209 90.0652 43.6209C87.5012 43.6209 87.5012 47.6005 90.0652 47.6005Z" fill="url(#paint0_linear_5065_2159)"/>
<path d="M195.067 58.175C264.925 60.2672 323.705 15.3997 332.613 8.24771C333.645 7.42052 334.515 6.40288 335.12 5.22604C336.388 2.76152 335.552 1.64437 334.398 1.14123C333.15 0.598295 331.698 0.845607 330.629 1.68986C293.068 31.3694 208.708 40.8352 208.708 40.8352L220.636 31.3921C222.148 30.1954 223.305 28.5865 223.868 26.7445C224.754 23.845 223.364 23.0377 221.883 22.9127C220.491 22.7961 219.123 23.3476 218.129 24.3311C200.002 42.2252 174.883 41.4066 174.883 41.4066L195.064 58.1779L195.067 58.175Z" fill="url(#paint1_linear_5065_2159)"/>
<path d="M221.929 22.7847C222.387 22.8586 222.827 23.0377 223.239 23.285C223.654 23.5295 224.035 23.8621 224.342 24.2799C224.646 24.6978 224.86 25.1981 224.962 25.724C225.076 26.2527 225.044 26.7871 224.968 27.3016C224.788 28.3278 224.348 29.2403 223.839 30.0561C223.33 30.8861 222.702 31.5882 222.065 32.279C220.761 33.615 219.297 34.735 217.759 35.71C216.213 36.6736 214.59 37.4951 212.861 38.1091C214.143 36.793 215.499 35.6332 216.821 34.4564C218.137 33.2796 219.439 32.1141 220.636 30.8946C221.801 29.6666 222.929 28.3704 223.453 26.9349C223.705 26.2243 223.757 25.488 223.495 24.7546C223.231 24.0213 222.657 23.339 221.932 22.7847H221.929Z" fill="url(#paint2_linear_5065_2159)"/>
<path d="M241.514 42.626C242.062 42.626 242.062 41.7733 241.514 41.7733C240.965 41.7733 240.965 42.626 241.514 42.626Z" fill="#D3CADD"/>
<path d="M277.67 39.2149C278.219 39.2149 278.219 38.3621 277.67 38.3621C277.122 38.3621 277.122 39.2149 277.67 39.2149Z" fill="#D3CADD"/>
<path d="M20.4892 67.9563C34.3237 55.1903 39.2696 50.7956 50.506 45.0678C58.7493 40.8664 66.5605 37.7538 75.6395 35.9829C81.0374 34.9283 86.566 34.7776 92.0663 34.6952C115.83 34.3342 139.61 35.1955 163.285 37.2706C174.766 38.2768 186.688 39.7266 196.395 45.9405C206.102 52.1544 212.83 64.5452 208.933 75.3926C206.747 81.4729 201.599 86.1433 195.806 89.0058C190.013 91.8682 183.572 93.1218 177.185 94.1054C175.605 94.3498 175.167 94.347 173.936 94.9013C172.958 95.3419 172.12 96.0326 171.278 96.6978C151.091 112.733 123.786 119.447 98.4648 114.603L91.0344 113.151C77.8623 110.538 64.6873 107.926 51.5151 105.314C40.634 103.156 29.6193 100.987 18.5392 101.519C12.4392 101.812 4.82415 102.175 1.90774 96.8115C-1.01435 91.4305 3.50807 85.1597 7.73203 80.7281C11.7485 76.5126 15.1965 73.1469 19.2129 68.9314L20.492 67.9563H20.4892Z" fill="url(#paint3_linear_5065_2159)"/>
<path d="M2.62973 85.7481C1.70592 87.5361 1.02087 89.452 0.671244 91.422C0.500694 92.4055 0.432475 93.4089 0.512065 94.3953C0.591655 95.3788 0.827589 96.3567 1.28239 97.2208C1.73435 98.085 2.38245 98.8411 3.17266 99.4125C3.95151 100.001 4.85825 100.407 5.78775 100.72C7.66665 101.32 9.66777 101.505 11.6547 101.507C13.6473 101.507 15.6342 101.331 17.6239 101.047L18.3744 100.939C18.6615 100.899 18.8974 100.896 19.1589 100.879C19.6677 100.854 20.1737 100.834 20.6825 100.82C21.6973 100.794 22.7092 100.794 23.7211 100.805C27.7688 100.854 31.808 101.112 35.833 101.488C39.858 101.863 43.8688 102.386 47.8625 103.008C51.8562 103.631 55.8329 104.353 59.7925 105.16C67.7089 106.789 75.5428 108.793 83.3057 111.03C98.6381 115.521 114.96 116.604 130.719 114.032C134.661 113.407 138.561 112.523 142.393 111.417C146.225 110.317 149.985 108.961 153.624 107.338C157.262 105.712 160.775 103.813 164.107 101.633C167.444 99.4608 170.599 97.0076 173.515 94.293L173.731 94.0911L174.024 94.0855C175.224 94.0627 176.472 93.9746 177.697 93.8609C178.925 93.7443 180.153 93.5908 181.372 93.4061C183.814 93.0309 186.236 92.5306 188.612 91.8654C193.35 90.5351 197.967 88.5481 201.824 85.498C203.745 83.9772 205.448 82.1693 206.778 80.1056C208.109 78.0447 209.055 75.7308 209.575 73.3175C210.101 70.9041 210.218 68.4026 210.039 65.9239C209.874 63.4423 209.411 60.9806 208.768 58.5673C209.501 60.9522 210.061 63.4025 210.323 65.8983C210.584 68.3913 210.533 70.9325 210.07 73.417C209.609 75.8985 208.706 78.3119 207.387 80.4836C206.071 82.6582 204.357 84.5855 202.412 86.2172C200.471 87.8573 198.291 89.1962 196.022 90.319C193.751 91.439 191.378 92.3401 188.962 93.0707C186.543 93.8012 184.078 94.3697 181.591 94.7847C180.346 94.9951 179.098 95.1685 177.842 95.3049C176.582 95.4414 175.337 95.5494 174.044 95.592L174.55 95.3874C171.608 98.2044 168.419 100.766 165.033 103.034C161.642 105.297 158.064 107.272 154.36 108.966C150.656 110.661 146.827 112.079 142.924 113.236C139.019 114.382 135.048 115.288 131.034 115.939C123.013 117.272 114.835 117.696 106.722 117.142C98.6097 116.599 90.5597 115.155 82.7713 112.835C75.0709 110.538 67.2995 108.483 59.4457 106.786C51.6004 105.064 43.6755 103.679 35.6994 102.77C31.7114 102.315 27.7063 101.976 23.6984 101.849C22.6978 101.814 21.6944 101.8 20.6938 101.8C20.1936 101.8 19.6933 101.803 19.1959 101.814C18.9542 101.826 18.6842 101.823 18.4738 101.849L17.7263 101.937C15.7195 102.167 13.6786 102.292 11.6433 102.238C9.61093 102.178 7.55296 101.937 5.603 101.257C4.63655 100.902 3.68999 100.447 2.87703 99.7962C2.0527 99.1623 1.37619 98.3323 0.921386 97.3971C0.460901 96.4619 0.244868 95.4328 0.190861 94.4123C0.136853 93.389 0.250554 92.3685 0.458057 91.3765C0.884432 89.3923 1.64339 87.4963 2.63258 85.7424L2.62973 85.7481Z" fill="url(#paint4_linear_5065_2159)"/>
<path d="M208.768 60.6196C209.248 61.3331 209.638 62.1063 209.985 62.8965C210.329 63.6896 210.63 64.5054 210.863 65.3468C211.349 67.0211 211.599 68.7722 211.625 70.5402C211.648 72.3083 211.417 74.0935 210.928 75.8104C210.442 77.5302 209.695 79.1732 208.757 80.6911C207.83 82.2205 206.648 83.565 205.394 84.8015L204.422 85.6969C204.092 85.9869 203.737 86.2484 203.396 86.5213C202.722 87.087 201.977 87.5475 201.258 88.0364C200.903 88.2922 200.513 88.4855 200.138 88.7072L199.007 89.3497C198.228 89.7306 197.452 90.1115 196.665 90.4611C195.86 90.7767 195.067 91.1064 194.257 91.3907C193.438 91.6522 192.62 91.9109 191.796 92.1411C194.794 90.4839 197.731 88.8011 200.36 86.7544C201.002 86.2285 201.676 85.7396 202.276 85.1711C202.58 84.8925 202.896 84.6253 203.194 84.3439L204.061 83.4683C204.359 83.1841 204.615 82.8686 204.885 82.5616C205.15 82.2489 205.437 81.9589 205.67 81.6235L206.409 80.6542L207.074 79.6365C207.93 78.2636 208.626 76.7968 209.129 75.2618C209.635 73.7268 209.945 72.1236 210.067 70.4891C210.189 68.8574 210.141 67.1945 209.911 65.543C209.689 63.8886 209.322 62.237 208.768 60.6168V60.6196Z" fill="url(#paint5_linear_5065_2159)"/>
<path d="M98.2516 51.4949C98.8002 51.4949 98.8002 50.6422 98.2516 50.6422C97.703 50.6422 97.703 51.4949 98.2516 51.4949Z" fill="#D3CADD"/>
<path d="M83.9254 75.3727C84.474 75.3727 84.474 74.5199 83.9254 74.5199C83.3768 74.5199 83.3768 75.3727 83.9254 75.3727Z" fill="#D3CADD"/>
<path d="M120.082 83.5593C120.631 83.5593 120.631 82.7065 120.082 82.7065C119.533 82.7065 119.533 83.5593 120.082 83.5593Z" fill="#D3CADD"/>
<path d="M161.696 64.4571C162.245 64.4571 162.245 63.6044 161.696 63.6044C161.148 63.6044 161.148 64.4571 161.696 64.4571Z" fill="#D3CADD"/>
<path d="M172.611 85.606C173.16 85.606 173.16 84.7532 172.611 84.7532C172.063 84.7532 172.063 85.606 172.611 85.606Z" fill="#D3CADD"/>
<path d="M192.395 75.3727C192.944 75.3727 192.944 74.5199 192.395 74.5199C191.847 74.5199 191.847 75.3727 192.395 75.3727Z" fill="#D3CADD"/>
<path d="M172.611 48.0838C173.16 48.0838 173.16 47.231 172.611 47.231C172.063 47.231 172.063 48.0838 172.611 48.0838Z" fill="#D3CADD"/>
<path d="M36.1713 83.5593C36.7199 83.5593 36.7199 82.7065 36.1713 82.7065C35.6227 82.7065 35.6227 83.5593 36.1713 83.5593Z" fill="#D3CADD"/>
<path d="M1.90491 96.8143L11.5836 83.0477" stroke="url(#paint6_linear_5065_2159)" stroke-miterlimit="10"/>
<path d="M7.60413 99.5348L16.4159 87.8801" stroke="url(#paint7_linear_5065_2159)" stroke-miterlimit="10"/>
<path d="M26.0804 100.103L32.6181 89.3014" stroke="url(#paint8_linear_5065_2159)" stroke-miterlimit="10"/>
<path d="M31.4811 100.103L37.4504 89.3014" stroke="url(#paint9_linear_5065_2159)" stroke-miterlimit="10"/>
<path d="M74.403 107.778L80.6565 68.8347" stroke="url(#paint10_linear_5065_2159)" stroke-miterlimit="10"/>
<path d="M83.2147 109.2L84.636 86.4588" stroke="url(#paint11_linear_5065_2159)" stroke-miterlimit="10"/>
<path d="M66.1597 105.788L70.992 84.469" stroke="url(#paint12_linear_5065_2159)" stroke-miterlimit="10"/>
<path d="M56.7794 103.514L62.7487 89.3014" stroke="url(#paint13_linear_5065_2159)" stroke-miterlimit="10"/>
<path d="M143.959 109.74L132.39 81.9106" stroke="url(#paint14_linear_5065_2159)" stroke-miterlimit="10"/>
<path d="M135.773 113.151L130.4 93.281" stroke="url(#paint15_linear_5065_2159)" stroke-miterlimit="10"/>
<path d="M127.586 114.515L125.568 98.1134" stroke="url(#paint16_linear_5065_2159)" stroke-miterlimit="10"/>
<path d="M154.874 105.646L142.055 89.8699" stroke="url(#paint17_linear_5065_2159)" stroke-miterlimit="10"/>
<path d="M199.9 85.1796L180.144 70.8245" stroke="url(#paint18_linear_5065_2159)" stroke-miterlimit="10"/>
<path d="M188.387 68.2662L204.021 77.0782" stroke="url(#paint19_linear_5065_2159)" stroke-miterlimit="10"/>
<path d="M180.713 76.2255L187.535 87.8801" stroke="url(#paint20_linear_5065_2159)" stroke-miterlimit="10"/>
<path d="M77.7855 39.2149C78.3341 39.2149 78.3341 38.3621 77.7855 38.3621C77.2369 38.3621 77.2369 39.2149 77.7855 39.2149Z" fill="url(#paint21_linear_5065_2159)"/>
<path d="M90.7474 37.8505C91.296 37.8505 91.296 36.9977 90.7474 36.9977C90.1988 36.9977 90.1988 37.8505 90.7474 37.8505Z" fill="url(#paint22_linear_5065_2159)"/>
<path d="M75.739 52.1771C76.2876 52.1771 76.2876 51.3243 75.739 51.3243C75.1904 51.3243 75.1904 52.1771 75.739 52.1771Z" fill="url(#paint23_linear_5065_2159)"/>
<path d="M188.984 42.9102C189.9 42.9102 189.9 41.489 188.984 41.489C188.069 41.489 188.069 42.9102 188.984 42.9102Z" fill="#D4CADE"/>
<path d="M59.0534 76.3676C64.9405 76.3676 69.7128 72.3587 69.7128 67.4135C69.7128 62.4682 64.9405 58.4593 59.0534 58.4593C53.1664 58.4593 48.394 62.4682 48.394 67.4135C48.394 72.3587 53.1664 76.3676 59.0534 76.3676Z" fill="#3A3094"/>
<path d="M59.3377 73.525C63.8118 73.525 67.4388 71.0433 67.4388 67.982C67.4388 64.9206 63.8118 62.4389 59.3377 62.4389C54.8636 62.4389 51.2366 64.9206 51.2366 67.982C51.2366 71.0433 54.8636 73.525 59.3377 73.525Z" fill="#EB765E"/>
<path d="M59.1956 72.2458C62.0998 72.2458 64.4542 70.4005 64.4542 68.1241C64.4542 65.8477 62.0998 64.0023 59.1956 64.0023C56.2913 64.0023 53.937 65.8477 53.937 68.1241C53.937 70.4005 56.2913 72.2458 59.1956 72.2458Z" fill="#D2CADD"/>
<path d="M59.1956 71.251C61.3934 71.251 63.1751 69.851 63.1751 68.1241C63.1751 66.3972 61.3934 64.9973 59.1956 64.9973C56.9977 64.9973 55.2161 66.3972 55.2161 68.1241C55.2161 69.851 56.9977 71.251 59.1956 71.251Z" fill="#0A0615"/>
<path d="M58.3428 67.8398C59.2848 67.8398 60.0483 67.1398 60.0483 66.2764C60.0483 65.4129 59.2848 64.713 58.3428 64.713C57.4009 64.713 56.6373 65.4129 56.6373 66.2764C56.6373 67.1398 57.4009 67.8398 58.3428 67.8398Z" fill="#D3CADD"/>
<defs>
<linearGradient id="paint0_linear_5065_2159" x1="88.1436" y1="45.6107" x2="91.9867" y2="45.6107" gradientUnits="userSpaceOnUse">
<stop offset="0.01" stop-color="#D2BCE9"/>
<stop offset="1" stop-color="#723EB1"/>
</linearGradient>
<linearGradient id="paint1_linear_5065_2159" x1="224.928" y1="75.4153" x2="284.47" y2="-27.7095" gradientUnits="userSpaceOnUse">
<stop offset="0.29" stop-color="#4647AC"/>
<stop offset="0.31" stop-color="#4C45AC"/>
<stop offset="0.39" stop-color="#5D42AE"/>
<stop offset="0.49" stop-color="#693FB0"/>
<stop offset="0.62" stop-color="#703EB0"/>
<stop offset="1" stop-color="#723EB1"/>
</linearGradient>
<linearGradient id="paint2_linear_5065_2159" x1="212.33" y1="30.4455" x2="225.329" y2="30.4455" gradientUnits="userSpaceOnUse">
<stop offset="0.01" stop-color="#D2BCE9"/>
<stop offset="1" stop-color="#723EB1"/>
</linearGradient>
<linearGradient id="paint3_linear_5065_2159" x1="105.517" y1="116.15" x2="105.517" y2="34.6156" gradientUnits="userSpaceOnUse">
<stop offset="0.3" stop-color="#723EB1"/>
<stop offset="0.74" stop-color="#4647AC"/>
</linearGradient>
<linearGradient id="paint4_linear_5065_2159" x1="-0.667576" y1="87.9796" x2="211.292" y2="87.9796" gradientUnits="userSpaceOnUse">
<stop offset="0.01" stop-color="#D2BCE9"/>
<stop offset="1" stop-color="#723EB1"/>
</linearGradient>
<linearGradient id="paint5_linear_5065_2159" x1="191.429" y1="76.3818" x2="211.858" y2="76.3818" gradientUnits="userSpaceOnUse">
<stop offset="0.01" stop-color="#D2BCE9"/>
<stop offset="1" stop-color="#723EB1"/>
</linearGradient>
<linearGradient id="paint6_linear_5065_2159" x1="1.79121" y1="89.9296" x2="11.7002" y2="89.9296" gradientUnits="userSpaceOnUse">
<stop offset="0.01" stop-color="#D2BCE9"/>
<stop offset="1" stop-color="#723EB1"/>
</linearGradient>
<linearGradient id="paint7_linear_5065_2159" x1="7.49043" y1="93.7074" x2="16.5296" y2="93.7074" gradientUnits="userSpaceOnUse">
<stop offset="0.01" stop-color="#D2BCE9"/>
<stop offset="1" stop-color="#723EB1"/>
</linearGradient>
<linearGradient id="paint8_linear_5065_2159" x1="25.9582" y1="94.7023" x2="32.7404" y2="94.7023" gradientUnits="userSpaceOnUse">
<stop offset="0.01" stop-color="#D2BCE9"/>
<stop offset="1" stop-color="#723EB1"/>
</linearGradient>
<linearGradient id="paint9_linear_5065_2159" x1="31.3561" y1="94.7023" x2="37.5755" y2="94.7023" gradientUnits="userSpaceOnUse">
<stop offset="0.01" stop-color="#D2BCE9"/>
<stop offset="1" stop-color="#723EB1"/>
</linearGradient>
<linearGradient id="paint10_linear_5065_2159" x1="74.2637" y1="88.3065" x2="80.7957" y2="88.3065" gradientUnits="userSpaceOnUse">
<stop offset="0.01" stop-color="#D2BCE9"/>
<stop offset="1" stop-color="#723EB1"/>
</linearGradient>
<linearGradient id="paint11_linear_5065_2159" x1="83.0726" y1="97.8292" x2="84.7781" y2="97.8292" gradientUnits="userSpaceOnUse">
<stop offset="0.01" stop-color="#D2BCE9"/>
<stop offset="1" stop-color="#723EB1"/>
</linearGradient>
<linearGradient id="paint12_linear_5065_2159" x1="66.0204" y1="95.1287" x2="71.1313" y2="95.1287" gradientUnits="userSpaceOnUse">
<stop offset="0.01" stop-color="#D2BCE9"/>
<stop offset="1" stop-color="#723EB1"/>
</linearGradient>
<linearGradient id="paint13_linear_5065_2159" x1="56.6487" y1="96.4079" x2="62.8794" y2="96.4079" gradientUnits="userSpaceOnUse">
<stop offset="0.01" stop-color="#D2BCE9"/>
<stop offset="1" stop-color="#723EB1"/>
</linearGradient>
<linearGradient id="paint14_linear_5065_2159" x1="132.259" y1="95.8251" x2="144.09" y2="95.8251" gradientUnits="userSpaceOnUse">
<stop offset="0.01" stop-color="#D2BCE9"/>
<stop offset="1" stop-color="#723EB1"/>
</linearGradient>
<linearGradient id="paint15_linear_5065_2159" x1="130.264" y1="103.216" x2="135.909" y2="103.216" gradientUnits="userSpaceOnUse">
<stop offset="0.01" stop-color="#D2BCE9"/>
<stop offset="1" stop-color="#723EB1"/>
</linearGradient>
<linearGradient id="paint16_linear_5065_2159" x1="125.426" y1="106.314" x2="127.728" y2="106.314" gradientUnits="userSpaceOnUse">
<stop offset="0.01" stop-color="#D2BCE9"/>
<stop offset="1" stop-color="#723EB1"/>
</linearGradient>
<linearGradient id="paint17_linear_5065_2159" x1="141.944" y1="97.7581" x2="154.985" y2="97.7581" gradientUnits="userSpaceOnUse">
<stop offset="0.01" stop-color="#D2BCE9"/>
<stop offset="1" stop-color="#723EB1"/>
</linearGradient>
<linearGradient id="paint18_linear_5065_2159" x1="180.062" y1="78.0021" x2="199.982" y2="78.0021" gradientUnits="userSpaceOnUse">
<stop offset="0.01" stop-color="#D2BCE9"/>
<stop offset="1" stop-color="#723EB1"/>
</linearGradient>
<linearGradient id="paint19_linear_5065_2159" x1="188.316" y1="72.6722" x2="204.089" y2="72.6722" gradientUnits="userSpaceOnUse">
<stop offset="0.01" stop-color="#D2BCE9"/>
<stop offset="1" stop-color="#723EB1"/>
</linearGradient>
<linearGradient id="paint20_linear_5065_2159" x1="180.59" y1="82.0528" x2="187.657" y2="82.0528" gradientUnits="userSpaceOnUse">
<stop offset="0.01" stop-color="#D2BCE9"/>
<stop offset="1" stop-color="#723EB1"/>
</linearGradient>
<linearGradient id="paint21_linear_5065_2159" x1="77.3734" y1="38.7885" x2="78.1977" y2="38.7885" gradientUnits="userSpaceOnUse">
<stop offset="0.01" stop-color="#D2BCE9"/>
<stop offset="1" stop-color="#723EB1"/>
</linearGradient>
<linearGradient id="paint22_linear_5065_2159" x1="90.3352" y1="37.4241" x2="91.1596" y2="37.4241" gradientUnits="userSpaceOnUse">
<stop offset="0.01" stop-color="#D2BCE9"/>
<stop offset="1" stop-color="#723EB1"/>
</linearGradient>
<linearGradient id="paint23_linear_5065_2159" x1="75.3268" y1="51.7507" x2="76.1511" y2="51.7507" gradientUnits="userSpaceOnUse">
<stop offset="0.01" stop-color="#D2BCE9"/>
<stop offset="1" stop-color="#723EB1"/>
</linearGradient>
</defs>
</svg>
