<svg width="393" height="210" viewBox="0 0 393 210" fill="none" xmlns="http://www.w3.org/2000/svg">
    <g style="mix-blend-mode:multiply" opacity="0.5" clip-path="url(#clip0_5176_16551)">
        <path opacity="0.5"
            d="M415.218 4.23796L408.636 9.04369L408.032 16.8388L400.254 19.2354L398.454 28.8342L390.677 34.8382C390.677 34.8382 388.877 27.6359 391.873 21.0391C394.868 14.4423 390.677 6.63452 388.286 11.4402C385.895 16.246 385.291 18.6425 385.291 18.6425C385.291 18.6425 386.486 1.24857 381.1 0.0376794C375.713 -1.1606 377.513 22.8428 377.513 22.8428C377.513 22.8428 373.322 3.64513 366.74 3.03968C360.158 2.43424 373.322 27.6359 373.322 27.6359C373.322 27.6359 360.75 18.0371 358.359 24.0411C355.968 30.0451 376.922 37.2474 376.922 37.2474H353.576V46.8462L337.417 54.0485V61.2508L339.217 73.2462L333.831 75.0499L327.84 82.8451L320.063 81.0413L307.49 90.6402C307.49 90.6402 311.681 67.2422 305.099 67.2422C298.517 67.2422 299.713 89.4419 299.713 89.4419C299.713 89.4419 288.94 60.0399 284.749 67.835C280.558 75.6302 293.735 93.0367 293.735 93.0367C293.735 93.0367 278.771 77.4339 275.776 81.6342C272.781 85.8344 288.952 97.8298 288.952 97.8298C288.952 97.8298 282.371 96.0261 275.185 100.832C267.998 105.638 298.53 102.03 298.53 102.03C298.53 102.03 294.339 114.026 294.339 115.829C294.339 117.633 274.58 132.63 274.58 132.63L248.24 144.033L247.862 154.553C237.065 159.535 225.939 163.647 214.663 165.968C205.074 167.935 195.245 168.768 185.428 168.453C174.051 168.074 166.538 161.629 156.093 160.241C145.672 158.866 133.44 163.508 123.221 165.476C110.258 167.973 96.9432 170.698 83.9052 171.896C79.5004 172.3 75.2467 172.401 71.1188 172.249L69.3192 167.935L72.6919 158.765L77.9902 146.228L78.9467 134.169L73.6484 128.38L67.3937 126.929L73.1702 134.649L74.1392 144.777L69.3318 154.906L63.5552 166.006L64.7382 171.808C62.1835 171.543 59.6665 171.202 57.1747 170.761C56.6713 168.112 55.8532 160.708 55.8532 160.708L59.7042 152.03L64.5117 140.93L63.0644 125.97L59.2134 113.433V100.895L72.2137 96.5559C72.2137 96.5559 73.1702 85.456 72.6919 84.0181C72.2137 82.5676 70.2882 73.4102 70.2882 73.4102L56.8097 67.1413L62.108 71.4803L64.5117 76.3113L67.8845 82.5802L64.5117 88.3698L57.7787 92.7088L51.524 97.5271L48.642 101.387C48.642 101.387 48.642 107.176 49.1202 110.557C49.5985 113.937 52.9713 120.206 52.9713 120.206L59.226 136.604L55.375 146.253C55.375 146.253 52.493 152.522 51.524 154.452C51.0583 155.385 51.0457 162.461 51.1464 169.55C49.0573 169.071 46.9808 168.541 44.9043 167.961L43.3311 165.072L41.4056 161.212L38.5237 154.944L40.9274 152.055L50.5549 146.266L53.4369 135.166L51.0332 125.996L40.9274 121.177L43.8094 125.037L47.6604 129.376C47.6604 129.376 47.6604 135.166 47.1822 137.575C46.7039 139.984 45.7349 139.984 45.2567 141.914C44.7784 143.844 38.0329 147.703 38.0329 147.703L34.1819 149.154L34.6601 157.832L39.4927 166.321C34.0183 164.568 28.5312 162.512 22.8805 160.266C3.80167 152.686 -14.5976 147.931 -35.3502 150.945C-44.5373 152.282 -55.2849 153.178 -63.9308 156.407C-73.4073 159.951 -81.7133 165.69 -91.3912 168.453C-98.1368 170.382 -104.467 171.543 -110.684 172.211C-110.734 171.417 -110.785 170.862 -110.785 170.862L-107.273 164.694L-106.984 159.409L-109.325 158.526C-109.325 158.526 -113.428 156.18 -113.717 155.007C-114.006 153.834 -114.598 153.834 -114.887 152.358C-115.177 150.895 -115.177 147.363 -115.177 147.363L-112.836 144.714L-111.074 142.368L-117.228 145.307L-118.688 150.882L-116.926 157.643L-111.062 161.162L-109.602 162.928L-111.364 166.75L-112.534 169.096L-114.296 172.325C-114.296 172.325 -114.308 172.413 -114.321 172.539C-115.315 172.615 -116.309 172.678 -117.316 172.741C-117.241 168.137 -117.228 163.243 -117.53 162.638C-118.122 161.465 -119.871 157.643 -119.871 157.643L-122.212 151.765L-118.399 141.775C-118.399 141.775 -116.347 137.953 -116.058 135.897C-115.768 133.841 -115.768 130.322 -115.768 130.322L-117.53 127.976L-121.343 125.037L-125.446 122.388L-127.498 118.869L-125.446 115.047L-123.986 112.108L-120.765 109.459L-128.97 113.281C-128.97 113.281 -130.14 118.856 -130.43 119.739C-130.719 120.622 -130.14 127.371 -130.14 127.371L-122.224 130.019V137.651L-124.565 145.282L-125.446 154.389L-122.514 161.149L-120.173 166.434C-120.173 166.434 -120.752 171.644 -121.041 172.867C-122.526 172.905 -124.024 172.93 -125.522 172.93L-124.855 169.664L-128.366 162.903L-131.298 156.735L-130.707 150.567L-127.196 145.862L-131.009 146.745L-134.231 150.264L-133.639 157.605L-130.417 165.236L-128.366 170.811L-129.222 172.867C-135.489 172.754 -141.907 172.401 -148.804 172.022C-167.744 170.988 -194.211 165.766 -210.999 177.534L-213 214L419.132 212.978L419.409 188.458L420.013 12.6511L415.218 4.23796Z"
            fill="#174587" />
    </g>
    <defs>
        <clipPath id="clip0_5176_16551">
            <rect width="633" height="214" fill="white" transform="translate(-213)" />
        </clipPath>
    </defs>
</svg>
    