<svg width="15" height="28" viewBox="0 0 15 28" fill="none" xmlns="http://www.w3.org/2000/svg">
    <path
        d="M9.42516 12.0237H5.57227C5.03545 12.0237 4.64469 11.5145 4.78364 10.996L7.61207 0.440207C7.68163 0.18055 7.91693 0 8.18571 0H12.4994C12.8899 0 13.1741 0.370439 13.073 0.747615L10.2138 11.4185C10.1182 11.7755 9.7947 12.0237 9.42516 12.0237Z"
        fill="url(#paint0_linear_5077_3458)" />
    <path
        d="M12.4496 3.07514L10.2138 11.4188C10.1178 11.7753 9.79469 12.0236 9.42488 12.0236H5.57194C5.03554 12.0236 4.64452 11.5143 4.78353 10.9959L7.61195 0.440367C7.68146 0.180391 7.91703 0 8.18549 0H9.37448L11.1519 1.77738L12.4496 3.07514Z"
        fill="url(#paint1_linear_5077_3458)" />
    <path
        d="M13.0731 0.747615L10.2139 11.4185C10.1182 11.7755 9.79477 12.0237 9.42524 12.0237H8.40698L11.6287 0H12.4994C12.89 0 13.1742 0.370439 13.0731 0.747615Z"
        fill="url(#paint2_linear_5077_3458)" />
    <path
        d="M12.4499 3.07534L10.2141 11.419C10.118 11.7755 9.79493 12.0238 9.42513 12.0238H8.40698L11.1521 1.77759L12.4499 3.07534Z"
        fill="url(#paint3_linear_5077_3458)" />
    <path
        d="M8.18571 0H9.37476L6.15302 12.0237H5.57227C5.03545 12.0237 4.64469 11.5145 4.78364 10.996L7.61207 0.440207C7.68163 0.18055 7.91693 0 8.18571 0Z"
        fill="url(#paint4_linear_5077_3458)" />
    <path
        d="M10.3107 15.836H4.68913C4.38571 15.836 4.12101 15.6301 4.04631 15.336L3.28903 12.353C3.11952 11.6852 3.26489 10.9903 3.68791 10.4465C4.11093 9.90269 4.74866 9.59082 5.43765 9.59082H9.56219C10.2511 9.59082 10.8889 9.90269 11.3119 10.4465C11.7349 10.9903 11.8803 11.6852 11.7108 12.353L10.9535 15.336C10.8788 15.63 10.614 15.836 10.3107 15.836ZM5.20505 14.5096H9.79479L10.4251 12.0266C10.4932 11.7584 10.4349 11.4793 10.2649 11.2609C10.095 11.0424 9.83888 10.9172 9.56214 10.9172H5.4376C5.16091 10.9172 4.90476 11.0424 4.73482 11.2609C4.56488 11.4793 4.50657 11.7584 4.57464 12.0266L5.20505 14.5096Z"
        fill="url(#paint5_linear_5077_3458)" />
    <path
        d="M9.56224 9.59082H9.17126V10.9172H9.56224C9.83898 10.9172 10.0951 11.0425 10.265 11.2609C10.4349 11.4794 10.4933 11.7584 10.4252 12.0266L9.79489 14.5096H9.17126V15.836H10.3108C10.6142 15.836 10.8789 15.6301 10.9535 15.336L11.7108 12.353C11.8803 11.6853 11.735 10.9904 11.312 10.4466C10.889 9.90268 10.2512 9.59082 9.56224 9.59082Z"
        fill="url(#paint6_linear_5077_3458)" />
    <path
        d="M7.49997 27.0588C11.6421 27.0588 14.9999 23.7009 14.9999 19.5588C14.9999 15.4167 11.6421 12.0588 7.49997 12.0588C3.35785 12.0588 0 15.4167 0 19.5588C0 23.7009 3.35785 27.0588 7.49997 27.0588Z"
        fill="url(#paint7_linear_5077_3458)" />
    <path
        d="M7.5001 25.5366C10.8017 25.5366 13.4781 22.8601 13.4781 19.5586C13.4781 16.257 10.8017 13.5806 7.5001 13.5806C4.19854 13.5806 1.52209 16.257 1.52209 19.5586C1.52209 22.8601 4.19854 25.5366 7.5001 25.5366Z"
        fill="url(#paint8_linear_5077_3458)" />
    <path
        d="M7.49998 24.6909C10.3344 24.6909 12.6322 22.3931 12.6322 19.5587C12.6322 16.7243 10.3344 14.4265 7.49998 14.4265C4.66555 14.4265 2.3678 16.7243 2.3678 19.5587C2.3678 22.3931 4.66555 24.6909 7.49998 24.6909Z"
        fill="url(#paint9_linear_5077_3458)" />
    <path
        d="M5.57494 12.0237H9.42783C9.96465 12.0237 9.86453 11.0236 9.72558 10.5051L7.38803 0.440207C7.31847 0.18055 7.08317 0 6.81438 0H2.5007C2.11021 0 1.82599 0.370439 1.92706 0.747615L4.78631 11.4185C4.88192 11.7755 5.2054 12.0237 5.57494 12.0237Z"
        fill="url(#paint10_linear_5077_3458)" />
    <path
        d="M4.78642 11.4186C4.88208 11.7756 5.20551 12.0237 5.57505 12.0237H9.42794C9.96476 12.0237 10.3555 11.5145 10.2166 10.996L9.0046 6.4729H3.46118L4.78642 11.4186Z"
        fill="url(#paint11_linear_5077_3458)" />
    <path
        d="M1.92706 0.747615L4.78631 11.4185C4.88197 11.7755 5.2054 12.0237 5.57494 12.0237H6.59319L3.37151 0H2.50076C2.11021 0 1.82599 0.370439 1.92706 0.747615Z"
        fill="url(#paint12_linear_5077_3458)" />
    <path
        d="M6.81441 0H5.62537L8.8471 12.0237H9.42785C9.96467 12.0237 10.3554 11.5145 10.2165 10.996L7.38805 0.440207C7.3185 0.18055 7.08319 0 6.81441 0Z"
        fill="url(#paint13_linear_5077_3458)" />
    <path
        d="M11.1003 26.1392C12.4182 25.4166 13.4955 24.3099 14.1812 22.9695L8.11894 16.9072L6.42114 18.1982L7.28771 19.0648L7.14844 22.1874L11.1003 26.1392Z"
        fill="url(#paint14_linear_5077_3458)" />
    <path
        d="M7.05511 18.1084L6.83435 18.2454C6.7658 18.2911 6.6973 18.3063 6.64403 18.3063C6.42327 18.3063 6.271 18.0703 6.271 17.8343C6.271 17.6745 6.33954 17.5222 6.49182 17.4309L7.49675 16.8218C7.55766 16.7837 7.6338 16.7686 7.71752 16.7686C7.96116 16.7686 8.24283 16.9132 8.24283 17.1416V21.9836C8.24283 22.2272 7.94593 22.3491 7.64902 22.3491C7.35207 22.3491 7.05517 22.2272 7.05517 21.9836L7.05511 18.1084Z"
        fill="url(#paint15_linear_5077_3458)" />
    <path
        d="M0 19.5585C0 23.7006 3.35782 27.0585 7.49997 27.0585C11.6421 27.0585 15 23.7006 15 19.5585C15 19.5294 14.9992 19.5005 14.9989 19.4714H0.00106135C0.000743014 19.5005 0 19.5294 0 19.5585Z"
        fill="url(#paint16_linear_5077_3458)" />
    <path
        d="M6.59313 12.0236H5.57498C5.20518 12.0236 4.88207 11.7753 4.78604 11.4188L3.46069 6.4729H5.10597L6.59313 12.0236Z"
        fill="url(#paint17_linear_5077_3458)" />
    <path
        d="M9.42799 12.0236H8.84703L7.35986 6.4729H9.00461L10.2164 10.9959C10.3554 11.5143 9.96439 12.0236 9.42799 12.0236Z"
        fill="url(#paint18_linear_5077_3458)" />
    <defs>
        <linearGradient id="paint0_linear_5077_3458" x1="10.2349" y1="2.99157" x2="8.84642"
            y2="6.08088" gradientUnits="userSpaceOnUse">
            <stop stop-color="#F9F5F3" />
            <stop offset="1" stop-color="#D8E8F0" />
        </linearGradient>
        <linearGradient id="paint1_linear_5077_3458" x1="10.6644" y1="5.12889" x2="8.75441"
            y2="6.04851" gradientUnits="userSpaceOnUse">
            <stop stop-color="#678D98" stop-opacity="0" />
            <stop offset="0.9957" stop-color="#678D98" stop-opacity="0.996" />
            <stop offset="1" stop-color="#678D98" />
        </linearGradient>
        <linearGradient id="paint2_linear_5077_3458" x1="10.6023" y1="6.04098" x2="8.30315"
            y2="7.52655" gradientUnits="userSpaceOnUse">
            <stop stop-color="#FD4755" />
            <stop offset="1" stop-color="#A72B2B" />
        </linearGradient>
        <linearGradient id="paint3_linear_5077_3458" x1="10.5577" y1="6.79994" x2="8.89526"
            y2="8.14402" gradientUnits="userSpaceOnUse">
            <stop stop-color="#A72B2B" stop-opacity="0" />
            <stop offset="1" stop-color="#42210B" />
        </linearGradient>
        <linearGradient id="paint4_linear_5077_3458" x1="10.8504" y1="1.62723" x2="9.18795"
            y2="3.53726" gradientUnits="userSpaceOnUse">
            <stop stop-color="#B3DAFE" />
            <stop offset="1" stop-color="#0182FC" />
        </linearGradient>
        <linearGradient id="paint5_linear_5077_3458" x1="7.49989" y1="11.2479" x2="7.49989"
            y2="14.2191" gradientUnits="userSpaceOnUse">
            <stop stop-color="#FEF0AE" />
            <stop offset="1" stop-color="#FBC56D" />
        </linearGradient>
        <linearGradient id="paint6_linear_5077_3458" x1="11.6475" y1="12.779" x2="9.81701"
            y2="12.726" gradientUnits="userSpaceOnUse">
            <stop stop-color="#DC8758" stop-opacity="0" />
            <stop offset="0.9957" stop-color="#DC8758" stop-opacity="0.996" />
            <stop offset="1" stop-color="#DC8758" />
        </linearGradient>
        <linearGradient id="paint7_linear_5077_3458" x1="2.87591" y1="14.9348" x2="10.7857"
            y2="22.8446" gradientUnits="userSpaceOnUse">
            <stop stop-color="#FEF0AE" />
            <stop offset="1" stop-color="#FBC56D" />
        </linearGradient>
        <linearGradient id="paint8_linear_5077_3458" x1="11.3828" y1="23.4412" x2="3.50412"
            y2="15.5626" gradientUnits="userSpaceOnUse">
            <stop stop-color="#FEF0AE" />
            <stop offset="1" stop-color="#FBC56D" />
        </linearGradient>
        <linearGradient id="paint9_linear_5077_3458" x1="3.76907" y1="15.8277" x2="9.91032"
            y2="21.969" gradientUnits="userSpaceOnUse">
            <stop stop-color="#FEF0AE" />
            <stop offset="1" stop-color="#FBC56D" />
        </linearGradient>
        <linearGradient id="paint10_linear_5077_3458" x1="5.41423" y1="4.68959" x2="7.27746"
            y2="8.14004" gradientUnits="userSpaceOnUse">
            <stop stop-color="#F9F5F3" />
            <stop offset="1" stop-color="#D8E8F0" />
        </linearGradient>
        <linearGradient id="paint11_linear_5077_3458" x1="6.85301" y1="10.8589" x2="6.85301"
            y2="12.0615" gradientUnits="userSpaceOnUse">
            <stop stop-color="#678D98" stop-opacity="0" />
            <stop offset="0.9957" stop-color="#678D98" stop-opacity="0.996" />
            <stop offset="1" stop-color="#678D98" />
        </linearGradient>
        <linearGradient id="paint12_linear_5077_3458" x1="2.92712" y1="4.03227" x2="8.33885"
            y2="12.0968" gradientUnits="userSpaceOnUse">
            <stop stop-color="#B3DAFE" />
            <stop offset="1" stop-color="#0182FC" />
        </linearGradient>
        <linearGradient id="paint13_linear_5077_3458" x1="5.50148" y1="2.30476" x2="10.9132"
            y2="10.3693" gradientUnits="userSpaceOnUse">
            <stop stop-color="#FD4755" />
            <stop offset="1" stop-color="#A72B2B" />
        </linearGradient>
        <linearGradient id="paint14_linear_5077_3458" x1="10.4025" y1="21.6987" x2="6.9273"
            y2="20.9294" gradientUnits="userSpaceOnUse">
            <stop stop-color="#DC8758" stop-opacity="0" />
            <stop offset="0.9957" stop-color="#DC8758" stop-opacity="0.996" />
            <stop offset="1" stop-color="#DC8758" />
        </linearGradient>
        <linearGradient id="paint15_linear_5077_3458" x1="6.43796" y1="19.0529" x2="8.13576"
            y2="19.7603" gradientUnits="userSpaceOnUse">
            <stop stop-color="#FBC56D" />
            <stop offset="1" stop-color="#C5715A" />
        </linearGradient>
        <linearGradient id="paint16_linear_5077_3458" x1="7.49997" y1="21.7529" x2="7.49997"
            y2="26.6756" gradientUnits="userSpaceOnUse">
            <stop stop-color="#DC8758" stop-opacity="0" />
            <stop offset="0.9957" stop-color="#DC8758" stop-opacity="0.996" />
            <stop offset="1" stop-color="#DC8758" />
        </linearGradient>
        <linearGradient id="paint17_linear_5077_3458" x1="5.02691" y1="10.01" x2="5.02691"
            y2="12.1322" gradientUnits="userSpaceOnUse">
            <stop stop-color="#0182FC" stop-opacity="0" />
            <stop offset="1" stop-color="#024C67" />
        </linearGradient>
        <linearGradient id="paint18_linear_5077_3458" x1="8.8023" y1="10.01" x2="8.8023"
            y2="12.1322" gradientUnits="userSpaceOnUse">
            <stop stop-color="#A72B2B" stop-opacity="0" />
            <stop offset="1" stop-color="#42210B" />
        </linearGradient>
    </defs>
</svg>