<svg width="29" height="29" viewBox="0 0 29 29" fill="none" xmlns="http://www.w3.org/2000/svg">
    <path opacity="0.1"
        d="M3.88167 17.799C3.73374 17.9879 3.75278 18.2544 3.92194 18.4243L10.5776 25.08C10.7475 25.2499 11.0141 25.2682 11.203 25.1203C11.4249 24.9467 11.7551 24.6875 12.1637 24.3638C12.5006 22.3354 11.9096 20.1972 10.3572 18.6447C8.81503 17.1026 6.67458 16.4999 4.63811 16.8367C4.31444 17.2461 4.05522 17.5764 3.88167 17.799Z"
        fill="#F25B08" />
    <path opacity="0.1"
        d="M3.88167 17.799C3.73374 17.9879 3.75278 18.2544 3.92194 18.4243L10.5776 25.08C10.7475 25.2499 11.0141 25.2682 11.203 25.1203C11.2828 25.058 11.3795 24.9819 11.4856 24.8984C12.0444 22.8627 11.5501 20.6146 9.9691 19.0336C8.39689 17.4614 6.14734 16.9554 4.10428 17.5156C4.02007 17.6218 3.94391 17.7184 3.88167 17.799Z"
        fill="#F25B08" />
    <path opacity="0.2"
        d="M3.92222 18.4236L10.5779 25.0793C10.6445 25.1459 10.7266 25.1818 10.8122 25.2008C11.5313 23.2369 11.133 20.9734 9.58053 19.4217C8.03543 17.8759 5.77122 17.4672 3.80066 18.1893C3.8197 18.275 3.85558 18.3577 3.92222 18.4236Z"
        fill="#F25B08" />
    <path opacity="0.3"
        d="M10.3538 24.8552C10.9249 23.1219 10.5456 21.1631 9.19237 19.8105C7.84278 18.4602 5.88321 18.0765 4.14697 18.6484L10.3538 24.8552Z"
        fill="#F25B08" />
    <path
        d="M2.49487 20.2924C4.26259 18.5232 7.08773 18.4815 8.80345 20.1979C10.5192 21.9136 10.4774 24.7388 8.70899 26.505C6.94127 28.2742 0 28.9999 0 28.9999C0 28.9999 0.727153 22.0608 2.49487 20.2924Z"
        fill="url(#paint0_linear_5071_5704)" />
    <path opacity="0.05"
        d="M8.80334 20.1986C7.29119 18.685 4.91934 18.5422 3.16699 19.7402L9.26102 25.8343C10.4583 24.0826 10.3155 21.7108 8.80334 20.1986Z"
        fill="#D3E500" />
    <path opacity="0.1"
        d="M8.80351 20.1986C7.36459 18.7583 5.15164 18.573 3.43005 19.5887L9.41277 25.5714C10.4284 23.8505 10.2432 21.6376 8.80351 20.1986Z"
        fill="#D3E500" />
    <path opacity="0.2"
        d="M8.80357 20.1986C7.4386 18.8322 5.37797 18.5986 3.69958 19.4437L9.55781 25.3019C10.4021 23.6242 10.1693 21.5636 8.80357 20.1986Z"
        fill="#D3E500" />
    <path opacity="0.3"
        d="M8.80338 20.1987C7.51237 18.9062 5.59307 18.6125 3.96887 19.2994L9.70261 25.0332C10.3888 23.409 10.0951 21.4897 8.80338 20.1987Z"
        fill="#D3E500" />
    <path opacity="0.4"
        d="M8.80344 20.1986C7.59298 18.9875 5.83551 18.6704 4.28235 19.1983L9.803 24.719C10.3302 23.1658 10.0139 21.4084 8.80344 20.1986Z"
        fill="#D3E500" />
    <path
        d="M4.59875 19.1002L9.90119 24.4027C10.2842 22.9315 9.93194 21.3264 8.8035 20.1979C7.67506 19.0695 6.0699 18.7165 4.59875 19.1002Z"
        fill="#EF7E0C" />
    <path
        d="M28.2601 0.000199874C25.0615 0.0763569 18.9235 0.758108 16.0523 3.62864C14.4427 5.23819 11.3583 8.62718 9.44271 10.9185L4.32188 11.3117C4.25525 11.3168 4.19227 11.3454 4.14467 11.393L0.907999 14.6304C0.762276 14.7761 0.817929 15.0244 1.01272 15.0932L4.91942 16.4816C4.46102 17.0594 4.10366 17.5148 3.88105 17.799C3.73313 17.9879 3.75217 18.2544 3.92133 18.4243L10.577 25.08C10.7469 25.2499 11.0134 25.2682 11.2024 25.1203C11.4865 24.8984 11.942 24.5403 12.519 24.0819L13.9074 27.9879C13.9762 28.1819 14.2245 28.2383 14.3702 28.0926L17.6069 24.8559C17.6545 24.8083 17.683 24.7454 17.6882 24.6787L18.0814 19.5586C20.3727 17.643 23.7617 14.5586 25.3712 12.9484C28.2418 10.0778 28.9235 3.93986 28.9997 0.740533C29.0114 0.322402 28.6789 -0.00931975 28.2601 0.000199874ZM22.2664 10.8775C21.1226 12.0213 19.2677 12.0213 18.1239 10.8775C16.9801 9.73365 16.9801 7.87879 18.1239 6.73497C19.2677 5.59115 21.1226 5.59115 22.2664 6.73497C23.4102 7.87952 23.4102 9.73365 22.2664 10.8775Z"
        fill="url(#paint1_linear_5071_5704)" />
    <path
        d="M28.2784 0.000198364V0.366338C28.3772 0.366338 28.4688 0.403684 28.5354 0.471786C28.602 0.539888 28.6372 0.632887 28.635 0.732477C28.5867 2.76016 28.1905 9.61355 25.1142 12.6899C23.4475 14.3565 20.0527 17.435 17.8478 19.2782C17.7724 19.3411 17.7255 19.4327 17.7175 19.5308L17.3264 24.6194L14.2076 27.7382L12.8646 23.9596C12.8251 23.8483 12.7343 23.7626 12.6208 23.7304C12.5878 23.7209 12.5534 23.7165 12.5197 23.7165C12.4385 23.7165 12.3579 23.7436 12.292 23.7956C11.715 24.2533 11.2602 24.6106 10.9768 24.8325C10.9585 24.8471 10.9373 24.8545 10.9139 24.8545C10.897 24.8545 10.8648 24.8501 10.8362 24.8215L4.18128 18.1651C4.14174 18.1256 4.13735 18.0662 4.1703 18.0245C4.39218 17.7411 4.74953 17.2864 5.20721 16.7093C5.28043 16.6171 5.3046 16.4948 5.27238 16.3805C5.23943 16.267 5.15448 16.1762 5.04318 16.1367L1.26389 14.7937L4.38266 11.6742L9.472 11.2831C9.57012 11.2758 9.66166 11.229 9.72463 11.1528C11.5678 8.94864 14.6463 5.5538 16.3122 3.88713C19.3885 0.81083 26.2426 0.413936 28.2696 0.365606L28.2784 0.000198364ZM20.1948 12.1018C21.075 12.1018 21.9024 11.7591 22.5249 11.1367C23.1473 10.5143 23.49 9.68678 23.49 8.80658C23.49 7.92638 23.1473 7.09891 22.5249 6.47647C21.9024 5.85403 21.075 5.51133 20.1948 5.51133C19.3146 5.51133 18.4871 5.85403 17.8646 6.47647C16.5795 7.76162 16.5795 9.85154 17.8646 11.1367C18.4871 11.7591 19.3146 12.1018 20.1948 12.1018ZM28.2784 0.000198364C28.2725 0.000198364 28.2659 0.000198364 28.2601 0.000198364C25.0615 0.0763554 18.9235 0.758107 16.0523 3.62864C14.4427 5.23819 11.3583 8.62717 9.44271 10.9185L4.32188 11.3117C4.25524 11.3168 4.19227 11.3454 4.14467 11.393L0.907999 14.6304C0.762276 14.7761 0.817929 15.0244 1.01272 15.0932L4.91942 16.4816C4.46102 17.0594 4.10366 17.5148 3.88105 17.799C3.73313 17.9879 3.75217 18.2544 3.92133 18.4243L10.577 25.08C10.67 25.173 10.7916 25.2206 10.9139 25.2206C11.0149 25.2206 11.1167 25.1877 11.2024 25.121C11.4865 24.8991 11.942 24.5411 12.519 24.0826L13.9074 27.9886C13.9499 28.108 14.0605 28.1754 14.1725 28.1754C14.2428 28.1754 14.3138 28.149 14.3702 28.0933L17.6069 24.8567C17.6545 24.8091 17.683 24.7461 17.6882 24.6795L18.0814 19.5594C20.3727 17.6437 23.7617 14.5594 25.3712 12.9491C28.2418 10.0785 28.9235 3.94059 28.9997 0.741264C29.0107 0.328259 28.6885 0.000198364 28.2784 0.000198364ZM20.1948 11.7357C19.4449 11.7357 18.6958 11.4494 18.1239 10.8775C16.9801 9.73365 16.9801 7.87878 18.1239 6.73497C18.6958 6.16306 19.4456 5.87673 20.1948 5.87673C20.9446 5.87673 21.6937 6.16306 22.2656 6.73497C23.4095 7.87878 23.4095 9.73365 22.2656 10.8775C21.6937 11.4494 20.9446 11.7357 20.1948 11.7357Z"
        fill="url(#paint2_linear_5071_5704)" />
    <defs>
        <linearGradient id="paint0_linear_5071_5704" x1="8.60501" y1="20.3964" x2="-0.557267"
            y2="29.5594" gradientUnits="userSpaceOnUse">
            <stop stop-color="#FF6201" />
            <stop offset="0.689" stop-color="#FDBD19" />
            <stop offset="1" stop-color="#FCE724" />
        </linearGradient>
        <linearGradient id="paint1_linear_5071_5704" x1="9.84985" y1="19.2115" x2="30.4672"
            y2="0.722227" gradientUnits="userSpaceOnUse">
            <stop stop-color="#60CF20" />
            <stop offset="1" stop-color="#E9ED00" stop-opacity="0.4" />
        </linearGradient>
        <linearGradient id="paint2_linear_5071_5704" x1="2.07964" y1="26.94" x2="28.3728"
            y2="0.580168" gradientUnits="userSpaceOnUse">
            <stop stop-color="#91FF00" stop-opacity="0.2" />
            <stop offset="1" stop-color="#F3E804" stop-opacity="0.30196" />
        </linearGradient>
    </defs>
</svg>
    