<svg width="16" height="22" viewBox="0 0 16 22" fill="none" xmlns="http://www.w3.org/2000/svg">
    <path opacity="0.1"
        d="M3.37632 14.8179L3.62566 14.8234C4.14541 14.834 4.62345 15.1103 4.89203 15.5549L5.02128 15.768C5.44249 16.4638 6.33807 16.704 7.05078 16.3121L7.26895 16.192C7.72407 15.9413 8.27636 15.9413 8.73149 16.192L8.94965 16.3121C9.66236 16.704 10.5579 16.4647 10.9792 15.768L11.1084 15.5549C11.3779 15.1103 11.8555 14.8344 12.3748 14.8234L12.6241 14.8179C13.1585 14.8069 13.6205 14.5177 13.8822 14.0915L12.823 12.0037C12.5104 11.3882 11.8789 11 11.1882 11H4.89432C4.20362 11 3.57157 11.3882 3.25945 12.0037L2.16266 14.1662C2.43078 14.5521 2.87262 14.8078 3.37632 14.8179Z"
        fill="#AD12F5" />
    <path opacity="0.2"
        d="M3.37629 14.8179L3.62562 14.8234C4.14537 14.834 4.62342 15.1103 4.892 15.5549L5.02125 15.768C5.44246 16.4638 6.33804 16.704 7.05075 16.3121L7.26891 16.192C7.72404 15.9413 8.27633 15.9413 8.73146 16.192L8.94962 16.3121C9.66233 16.704 10.5579 16.4647 10.9791 15.768L11.1084 15.5549C11.3779 15.1103 11.8555 14.8344 12.3747 14.8234L12.6241 14.8179C13.0224 14.8097 13.3817 14.647 13.6475 14.3889L12.5164 12.1591C12.2625 11.6591 11.7491 11.3438 11.1881 11.3438C10.793 11.3438 5.28937 11.3438 4.89429 11.3438C4.33329 11.3438 3.8195 11.6591 3.56604 12.1596L2.41058 14.437C2.67046 14.6653 3.00458 14.8106 3.37629 14.8179Z"
        fill="#AD12F5" />
    <path opacity="0.3"
        d="M3.3763 14.8179L3.62564 14.8234C4.14539 14.834 4.62343 15.1103 4.89201 15.5549L5.02126 15.768C5.44247 16.4638 6.33805 16.704 7.05076 16.3121L7.26893 16.192C7.72405 15.9413 8.27634 15.9413 8.73147 16.192L8.94963 16.3121C9.66234 16.704 10.5579 16.4647 10.9791 15.768L11.1084 15.5549C11.3779 15.1103 11.8555 14.8344 12.3748 14.8234L12.6241 14.8179C12.8973 14.8124 13.1493 14.7299 13.3684 14.5988L12.2098 12.315C12.0145 11.93 11.6194 11.6875 11.1881 11.6875C10.398 11.6875 5.68447 11.6875 4.8943 11.6875C4.46255 11.6875 4.06747 11.93 3.87222 12.315L2.69568 14.6341C2.90055 14.7432 3.12926 14.8129 3.3763 14.8179Z"
        fill="#AD12F5" />
    <path opacity="0.4"
        d="M3.3763 14.8179L3.62564 14.8234C4.14538 14.834 4.62343 15.1103 4.89201 15.5549L5.02126 15.768C5.44247 16.4638 6.33805 16.704 7.05076 16.3121L7.26893 16.192C7.72405 15.9413 8.27634 15.9413 8.73147 16.192L8.94963 16.3121C9.66234 16.704 10.5579 16.4647 10.9791 15.768L11.1084 15.5549C11.3779 15.1103 11.8555 14.8344 12.3748 14.8234L12.6241 14.8179C12.7749 14.8147 12.9174 14.7835 13.0545 14.7395L11.9031 12.4703C11.7665 12.2008 11.4902 12.0312 11.1881 12.0312C10.0029 12.0312 6.07909 12.0312 4.8943 12.0312C4.59226 12.0312 4.31588 12.2008 4.17884 12.4703L3.01605 14.762C3.13201 14.7932 3.25118 14.8152 3.3763 14.8179Z"
        fill="#AD12F5" />
    <path
        d="M11.597 12.6262C11.5186 12.4722 11.3609 12.375 11.1881 12.375H10.3741H5.70829H4.8943C4.7215 12.375 4.56384 12.4722 4.48546 12.6262L1.46276 18.5845C1.30784 18.8893 1.52967 19.25 1.87159 19.25H4.0175C4.15638 19.25 4.28792 19.3132 4.375 19.4214L5.56392 20.9041C5.77521 21.1677 6.18909 21.12 6.33484 20.8152L8.04121 17.2494L9.74758 20.8152C9.89333 21.12 10.3072 21.1677 10.5185 20.9041L11.7074 19.4214C11.795 19.3132 11.9265 19.25 12.0654 19.25H14.2108C14.5527 19.25 14.7741 18.8893 14.6197 18.5845L11.597 12.6262Z"
        fill="url(#paint0_linear_5071_5685)" />
    <path opacity="0.05"
        d="M11.5969 12.6262C11.5186 12.4722 11.3609 12.375 11.1881 12.375H10.3741H5.70828H4.89428C4.72149 12.375 4.56382 12.4722 4.48545 12.6262L2.93353 15.6846C3.07103 15.7117 3.21128 15.7318 3.35657 15.7346L3.60637 15.7401C3.81307 15.7442 4.00053 15.8524 4.10778 16.0307L4.23657 16.2433C4.91491 17.364 6.34536 17.7467 7.49257 17.1151L7.71074 16.995C7.89178 16.8955 8.10811 16.8955 8.28915 16.995L8.50732 17.1151C10.1367 18.012 11.4205 16.8094 11.7624 16.2442L11.8926 16.0302C11.9998 15.8528 12.1877 15.7442 12.3944 15.7401L12.6429 15.7346C12.8147 15.7309 12.9811 15.708 13.142 15.6713L11.5969 12.6262Z"
        fill="#AD12F5" />
    <path opacity="0.1"
        d="M11.597 12.6262C11.5186 12.4722 11.3609 12.375 11.1881 12.375H10.3741H5.70829H4.89429C4.7215 12.375 4.56384 12.4722 4.48546 12.6262L3.02155 15.5114C3.13246 15.5306 3.2443 15.549 3.36025 15.5512L3.61005 15.5567C3.87955 15.5622 4.12475 15.7039 4.26455 15.9353L4.39334 16.148C5.02034 17.1838 6.34354 17.5381 7.40367 16.9542L7.62183 16.8341C7.85742 16.7044 8.14113 16.7044 8.37717 16.8341L8.59533 16.9542C10.0414 17.7503 11.2472 16.7402 11.6052 16.1485L11.7349 15.9349C11.8747 15.7043 12.1204 15.5618 12.3894 15.5567L12.6378 15.5512C12.7808 15.5485 12.9197 15.5302 13.0549 15.5017L11.597 12.6262Z"
        fill="#AD12F5" />
    <path opacity="0.3"
        d="M11.597 12.6262C11.5186 12.4722 11.3609 12.375 11.1881 12.375H10.3741H5.70831H4.89431C4.72152 12.375 4.56385 12.4722 4.48547 12.6262L3.10956 15.3381C3.19389 15.3505 3.27685 15.3665 3.36439 15.3684L3.61418 15.3739C3.94602 15.3803 4.24989 15.5558 4.42177 15.8409L4.55102 16.0536C5.12668 17.0042 6.3431 17.33 7.31614 16.7942L7.53431 16.6742C7.82489 16.5142 8.17551 16.5142 8.46655 16.6742L8.68472 16.7942C9.94743 17.4891 11.0758 16.6719 11.4494 16.054L11.5791 15.8405C11.7514 15.5563 12.0548 15.3807 12.3867 15.3739L12.6351 15.3684C12.7492 15.3661 12.8592 15.3491 12.9678 15.329L11.597 12.6262Z"
        fill="#AD12F5" />
    <path opacity="0.4"
        d="M11.597 12.6262C11.5186 12.4722 11.3609 12.375 11.1881 12.375H10.3742H5.70832H4.89432C4.72153 12.375 4.56386 12.4722 4.48549 12.6262L3.19757 15.1644C3.25486 15.1708 3.30986 15.1837 3.36807 15.1846L3.61786 15.1901C4.01249 15.1979 4.37411 15.4073 4.57807 15.7451L4.70732 15.9582C5.23165 16.824 6.34082 17.121 7.22723 16.6334L7.4454 16.5133C7.79099 16.3231 8.20853 16.3231 8.55411 16.5133L8.77228 16.6334C9.85165 17.2274 10.9026 16.6027 11.2917 15.9587L11.4214 15.7451C11.6259 15.4073 11.9875 15.1983 12.3821 15.1901L12.631 15.1846C12.7162 15.1827 12.7974 15.1676 12.8794 15.1552L11.597 12.6262Z"
        fill="#AD12F5" />
    <path opacity="0.5"
        d="M11.597 12.6262C11.5186 12.4722 11.361 12.375 11.1882 12.375H10.3742H5.70833H4.89433C4.72154 12.375 4.56387 12.4722 4.4855 12.6262L3.28558 14.9912C3.31492 14.9935 3.34242 15.0008 3.37221 15.0012L3.62154 15.0067C4.0785 15.0159 4.49879 15.2588 4.73483 15.6502L4.86408 15.8634C5.33662 16.6439 6.33946 16.913 7.13879 16.473L7.35696 16.3529C7.75708 16.1324 8.24246 16.1324 8.64258 16.3529L8.86075 16.473C9.75679 16.9657 10.7298 16.5339 11.1355 15.8634L11.2647 15.6502C11.5017 15.2593 11.9215 15.0168 12.378 15.0072L12.6273 15.0017C12.6837 15.0003 12.7369 14.9889 12.7914 14.9825L11.597 12.6262Z"
        fill="#AD12F5" />
    <path
        d="M11.5969 12.6262C11.5186 12.4722 11.3609 12.375 11.1881 12.375H10.3741H5.70828H4.89428C4.72149 12.375 4.56383 12.4722 4.48545 12.6262L3.37354 14.8179C3.37445 14.8179 3.37537 14.8184 3.37628 14.8184L3.62562 14.8239C4.14537 14.8344 4.62341 15.1108 4.89199 15.5554L5.02124 15.7685C5.44245 16.4642 6.33803 16.7044 7.05074 16.3125L7.26891 16.1925C7.72403 15.9417 8.27632 15.9417 8.73145 16.1925L8.94962 16.3125C9.66232 16.7044 10.5579 16.4652 10.9791 15.7685L11.1084 15.5554C11.3779 15.1108 11.8554 14.8349 12.3747 14.8239L12.6241 14.8184C12.6516 14.8179 12.6772 14.811 12.7043 14.8087L11.5969 12.6262Z"
        fill="#AD12F5" />
    <path
        d="M15.4823 9.43983C15.2316 8.9847 15.2316 8.43241 15.4823 7.97729L15.6023 7.75912C15.9942 7.04641 15.755 6.15083 15.0583 5.72962L14.8452 5.60037C14.4006 5.33087 14.1247 4.85329 14.1137 4.334L14.1082 4.08466C14.0917 3.27112 13.4363 2.6157 12.6227 2.5992L12.3734 2.5937C11.8536 2.58316 11.3756 2.30679 11.107 1.86221L10.9778 1.64908C10.5566 0.952873 9.66098 0.713164 8.94827 1.10504L8.7301 1.22512C8.27498 1.47583 7.72269 1.47583 7.26756 1.22512L7.04985 1.1055C6.33714 0.713623 5.44202 0.953331 5.02081 1.64954L4.89156 1.86266C4.62206 2.30725 4.14448 2.58316 3.62519 2.59416L3.37585 2.59966C2.56231 2.61616 1.9069 3.27158 1.8904 4.08512L1.8849 4.33445C1.87436 4.8542 1.59798 5.33224 1.1534 5.60083L0.940273 5.73008C0.244523 6.15129 0.00435664 7.04687 0.396231 7.75958L0.516315 7.97774C0.767023 8.43287 0.767023 8.98516 0.516315 9.44028L0.39669 9.65799C0.00481494 10.3707 0.244065 11.2663 0.940731 11.6875L1.15386 11.8167C1.59844 12.0862 1.87436 12.5638 1.88536 13.0831L1.89086 13.3324C1.90736 14.146 2.56277 14.8014 3.37631 14.8179L3.62565 14.8234C4.1454 14.8339 4.62344 15.1103 4.89202 15.5549L5.02127 15.768C5.44248 16.4638 6.33806 16.7039 7.05077 16.3121L7.26894 16.192C7.72406 15.9413 8.27635 15.9413 8.73148 16.192L8.94964 16.3121C9.66235 16.7039 10.5579 16.4647 10.9791 15.768L11.1084 15.5549C11.3779 15.1103 11.8555 14.8344 12.3748 14.8234L12.6241 14.8179C13.4376 14.8014 14.0931 14.146 14.1096 13.3324L14.1151 13.0831C14.1256 12.5634 14.402 12.0853 14.8466 11.8167L15.0597 11.6875C15.7554 11.2663 15.9956 10.3707 15.6037 9.65799L15.4823 9.43983Z"
        fill="url(#paint1_linear_5071_5685)" />
    <path
        d="M9.67839 1.14656C10.134 1.14656 10.5465 1.37893 10.7821 1.76806L10.9113 1.98072C11.2225 2.49589 11.7675 2.81076 12.3688 2.82268L12.6186 2.82818C13.3116 2.84239 13.8657 3.39605 13.8795 4.08951L13.885 4.33885C13.8978 4.93972 14.2122 5.48468 14.7269 5.79634L14.9405 5.92559C15.5336 6.28401 15.7362 7.04118 15.4025 7.64847L15.2824 7.86663C14.9918 8.39372 14.9918 9.02301 15.2829 9.55101L15.4039 9.76826C15.738 10.3756 15.535 11.1323 14.9419 11.4916L14.7292 11.6208C14.2141 11.932 13.8992 12.477 13.8873 13.0783L13.8818 13.3281C13.8676 14.0211 13.3139 14.5753 12.6204 14.589L12.3711 14.5945C11.7702 14.6073 11.2253 14.9218 10.9136 15.4365L10.7844 15.65C10.5492 16.0392 10.1367 16.2715 9.68114 16.2715C9.46573 16.2715 9.25123 16.2165 9.06148 16.112L8.84331 15.992C8.58618 15.8503 8.29514 15.7756 8.00135 15.7756C7.70756 15.7756 7.41652 15.8503 7.15939 15.992L6.94123 16.112C6.75148 16.2165 6.53744 16.2715 6.32202 16.2715C5.86644 16.2715 5.45394 16.0392 5.2179 15.65L5.08865 15.4374C4.77744 14.9222 4.23248 14.6073 3.63115 14.5954L3.38136 14.5899C2.68836 14.5757 2.13423 14.022 2.12048 13.3286L2.11498 13.0793C2.10215 12.4784 1.78773 11.9334 1.27302 11.6218L1.05944 11.4925C0.466357 11.1341 0.263773 10.3769 0.597898 9.76963L0.717523 9.55193C1.00811 9.02484 1.00811 8.39555 0.717523 7.86847L0.59744 7.6503C0.263315 7.04301 0.466357 6.2863 1.05944 5.92697L1.27211 5.79772C1.78727 5.48651 2.10215 4.94155 2.11406 4.34022L2.11956 4.09043C2.13377 3.39743 2.68744 2.8433 3.3809 2.82955L3.63023 2.82405C4.2311 2.81122 4.77606 2.4968 5.08773 1.9821L5.21698 1.76897C5.45256 1.37985 5.8646 1.14747 6.32019 1.14747C6.5356 1.14747 6.74964 1.20247 6.93985 1.30697L7.15756 1.4266C7.41469 1.56822 7.70573 1.64293 7.99952 1.64293C8.29331 1.64293 8.58435 1.56822 8.84148 1.4266L9.05964 1.30651C9.24848 1.20156 9.46298 1.14656 9.67839 1.14656ZM9.67839 0.917389C9.43089 0.917389 9.18018 0.977889 8.94827 1.10531L8.7301 1.22539C8.50277 1.35051 8.25068 1.41331 7.9986 1.41331C7.74698 1.41331 7.49489 1.35051 7.26756 1.22539L7.04985 1.10576C6.81839 0.978347 6.56769 0.917847 6.32019 0.917847C5.80594 0.917847 5.30544 1.17956 5.02081 1.64981L4.89156 1.86293C4.62206 2.30751 4.14448 2.58343 3.62519 2.59443L3.37585 2.59993C2.56231 2.61643 1.9069 3.27185 1.8904 4.08539L1.8849 4.33472C1.87436 4.85447 1.59798 5.33251 1.1534 5.60109L0.940273 5.73034C0.244523 6.15155 0.00435664 7.04714 0.396231 7.75984L0.516315 7.97801C0.767023 8.43313 0.767023 8.98543 0.516315 9.44055L0.39669 9.65826C0.00481494 10.371 0.244065 11.2665 0.940731 11.6878L1.15386 11.817C1.59844 12.0865 1.87436 12.5641 1.88536 13.0834L1.89086 13.3327C1.90736 14.1463 2.56277 14.8017 3.37631 14.8182L3.62565 14.8237C4.1454 14.8342 4.62344 15.1106 4.89202 15.5552L5.02127 15.7683C5.3059 16.2381 5.8064 16.5003 6.3211 16.5003C6.5686 16.5003 6.81931 16.4398 7.05077 16.3123L7.26894 16.1923C7.49627 16.0671 7.74835 16.0043 7.99998 16.0043C8.2516 16.0043 8.50368 16.0671 8.73148 16.1923L8.94964 16.3123C9.1811 16.4398 9.43227 16.5003 9.67977 16.5003C10.1945 16.5003 10.6945 16.2385 10.9791 15.7683L11.1084 15.5552C11.3779 15.1106 11.8555 14.8347 12.3748 14.8237L12.6241 14.8182C13.4376 14.8017 14.0931 14.1463 14.1096 13.3327L14.1151 13.0834C14.1256 12.5636 14.402 12.0856 14.8466 11.817L15.0597 11.6878C15.7554 11.2665 15.9956 10.371 15.6037 9.65826L15.4823 9.44009C15.2316 8.98497 15.2316 8.43268 15.4823 7.97755L15.6023 7.75939C15.9942 7.04668 15.755 6.15109 15.0583 5.72989L14.8452 5.60064C14.4006 5.33114 14.1247 4.85355 14.1137 4.33426L14.1082 4.08493C14.0917 3.27139 13.4363 2.61597 12.6227 2.59947L12.3734 2.59397C11.8536 2.58343 11.3756 2.30705 11.107 1.86247L10.9778 1.64935C10.6936 1.17956 10.1926 0.917389 9.67839 0.917389Z"
        fill="url(#paint2_linear_5071_5685)" />
    <defs>
        <linearGradient id="paint0_linear_5071_5685" x1="8.04121" y1="22.9474" x2="8.04121"
            y2="14.2656" gradientUnits="userSpaceOnUse">
            <stop stop-color="#97F8FF" />
            <stop offset="0.125" stop-color="#AD12F5" stop-opacity="0.78824" />
            <stop offset="0.328" stop-color="#AD12F5" stop-opacity="0.90196" />
            <stop offset="0.584" stop-color="#AD12F5" />
            <stop offset="0.88" stop-color="#AD12F5" />
            <stop offset="1" stop-color="#AD12F5" />
        </linearGradient>
        <linearGradient id="paint1_linear_5071_5685" x1="7.99998" y1="4.67316" x2="7.99998"
            y2="20.2565" gradientUnits="userSpaceOnUse">
            <stop stop-color="#CD7F32" />
            <stop offset="1" stop-color="#F4E9FF" stop-opacity="0.5" />
        </linearGradient>
        <linearGradient id="paint2_linear_5071_5685" x1="7.99998" y1="16.1968" x2="7.99998"
            y2="0.613514" gradientUnits="userSpaceOnUse">
            <stop stop-color="#EED9FF" stop-opacity="0.2" />
            <stop offset="1" stop-color="#CD7F32" />
        </linearGradient>
    </defs>
</svg>
    