<svg width="17" height="30" viewBox="0 0 17 30" fill="none" xmlns="http://www.w3.org/2000/svg">
    <path
        d="M10.4496 13.3307H6.17791C5.58274 13.3307 5.1495 12.7661 5.30356 12.1912L8.43944 0.488059C8.51656 0.200176 8.77744 0 9.07544 0H13.858C14.291 0 14.6061 0.410706 14.494 0.828882L11.324 12.6598C11.218 13.0555 10.8593 13.3307 10.4496 13.3307Z"
        fill="url(#paint0_linear_5077_3483)" />
    <path
        d="M13.8029 3.40941L11.324 12.66C11.2176 13.0553 10.8593 13.3306 10.4493 13.3306H6.17756C5.58286 13.3306 5.14933 12.7659 5.30345 12.1912L8.43933 0.488235C8.51639 0.2 8.77756 0 9.07521 0H10.3934L12.364 1.97059L13.8029 3.40941Z"
        fill="url(#paint1_linear_5077_3483)" />
    <path
        d="M14.494 0.828882L11.324 12.6598C11.2179 13.0555 10.8593 13.3307 10.4496 13.3307H9.32068L12.8926 0H13.858C14.291 0 14.6061 0.410706 14.494 0.828882Z"
        fill="url(#paint2_linear_5077_3483)" />
    <path
        d="M13.8029 3.40953L11.3241 12.6601C11.2176 13.0554 10.8594 13.3307 10.4494 13.3307H9.32056L12.3641 1.9707L13.8029 3.40953Z"
        fill="url(#paint3_linear_5077_3483)" />
    <path
        d="M9.07544 0H10.3937L6.8218 13.3307H6.17791C5.58274 13.3307 5.1495 12.7661 5.30356 12.1912L8.43944 0.488059C8.51656 0.200176 8.77744 0 9.07544 0Z"
        fill="url(#paint4_linear_5077_3483)" />
    <path
        d="M11.4315 17.5573H5.19895C4.86253 17.5573 4.56906 17.329 4.48624 17.0029L3.64665 13.6957C3.45871 12.9554 3.61989 12.1849 4.08889 11.582C4.55789 10.9791 5.26495 10.6333 6.02883 10.6333H10.6017C11.3655 10.6333 12.0727 10.9791 12.5417 11.582C13.0107 12.1849 13.1718 12.9554 12.9838 13.6957L12.1442 17.0029C12.0614 17.3289 11.7679 17.5573 11.4315 17.5573ZM5.77095 16.0867H10.8596L11.5585 13.3338C11.6339 13.0365 11.5692 12.7271 11.3808 12.4849C11.1924 12.2427 10.9085 12.1038 10.6017 12.1038H6.02877C5.72201 12.1038 5.43801 12.2427 5.24959 12.4849C5.06118 12.7271 4.99654 13.0365 5.07201 13.3339L5.77095 16.0867Z"
        fill="url(#paint5_linear_5077_3483)" />
    <path
        d="M10.6017 10.6333H10.1682V12.1039H10.6017C10.9085 12.1039 11.1925 12.2428 11.3809 12.4849C11.5692 12.7271 11.634 13.0365 11.5585 13.3339L10.8596 16.0868H10.1682V17.5574H11.4316C11.768 17.5574 12.0614 17.3291 12.1442 17.003L12.9838 13.6958C13.1717 12.9554 13.0106 12.185 12.5416 11.5821C12.0726 10.9791 11.3656 10.6333 10.6017 10.6333Z"
        fill="url(#paint6_linear_5077_3483)" />
    <path
        d="M8.31524 30.0001C12.9076 30.0001 16.6305 26.2772 16.6305 21.6849C16.6305 17.0925 12.9076 13.3696 8.31524 13.3696C3.72286 13.3696 0 17.0925 0 21.6849C0 26.2772 3.72286 30.0001 8.31524 30.0001Z"
        fill="url(#paint7_linear_5077_3483)" />
    <path
        d="M8.3152 28.3125C11.9756 28.3125 14.943 25.3452 14.943 21.6847C14.943 18.0243 11.9756 15.0569 8.3152 15.0569C4.65476 15.0569 1.68738 18.0243 1.68738 21.6847C1.68738 25.3452 4.65476 28.3125 8.3152 28.3125Z"
        fill="url(#paint8_linear_5077_3483)" />
    <path
        d="M8.31518 27.3747C11.4577 27.3747 14.0052 24.8272 14.0052 21.6847C14.0052 18.5422 11.4577 15.9946 8.31518 15.9946C5.17265 15.9946 2.62512 18.5422 2.62512 21.6847C2.62512 24.8272 5.17265 27.3747 8.31518 27.3747Z"
        fill="url(#paint9_linear_5077_3483)" />
    <path
        d="M6.18086 13.3307H10.4526C11.0477 13.3307 11.0655 12.7661 10.9114 12.1912L8.19104 0.488059C8.11392 0.200176 7.85304 0 7.55504 0H2.77245C2.33951 0 2.02439 0.410706 2.13645 0.828882L5.30651 12.6598C5.41251 13.0555 5.77115 13.3307 6.18086 13.3307Z"
        fill="url(#paint10_linear_5077_3483)" />
    <path
        d="M5.30657 12.6598C5.41263 13.0556 5.77122 13.3307 6.18093 13.3307H10.4526C11.0478 13.3307 11.481 12.7662 11.327 12.1913L9.98328 7.17651H3.83728L5.30657 12.6598Z"
        fill="url(#paint11_linear_5077_3483)" />
    <path
        d="M2.13645 0.828882L5.30651 12.6598C5.41257 13.0555 5.77115 13.3307 6.18086 13.3307H7.3098L3.73792 0H2.77251C2.33951 0 2.02439 0.410706 2.13645 0.828882Z"
        fill="url(#paint12_linear_5077_3483)" />
    <path
        d="M7.55511 0H6.23682L9.80876 13.3307H10.4526C11.0478 13.3307 11.4811 12.7661 11.327 12.1912L8.19111 0.488059C8.11399 0.200176 7.85311 0 7.55511 0Z"
        fill="url(#paint13_linear_5077_3483)" />
    <path
        d="M11.4733 29.3787C13.45 28.5664 15.0445 27.0151 15.9129 25.0682L9.90351 19.0588H7.21234L6.65351 20.5441L7.94763 21.8382L6.44763 24.353L11.4733 29.3787Z"
        fill="url(#paint14_linear_5077_3483)" />
    <path
        d="M8.3364 18.3643C9.31557 18.3643 10.3031 18.9804 10.3031 20.1115C10.3031 21.9431 7.69493 22.5424 7.69493 23.3106V23.3866H9.9064C10.1174 23.3866 10.3031 23.6482 10.3031 23.9521C10.3031 24.256 10.1174 24.5345 9.9064 24.5345H6.90152C6.66516 24.5345 6.32751 24.3741 6.32751 24.1293V23.3106C6.32751 21.9854 8.9864 21.2257 8.9864 20.1537C8.9864 19.8836 8.81757 19.5544 8.34487 19.5544C8.00722 19.5544 7.71181 19.7232 7.71181 20.1874C7.71181 20.4323 7.4501 20.6686 7.01963 20.6686C6.68199 20.6686 6.42881 20.5166 6.42881 19.9848C6.42875 18.9551 7.37416 18.3643 8.3364 18.3643Z"
        fill="url(#paint15_linear_5077_3483)" />
    <path
        d="M0 21.6847C0 26.277 3.72282 29.9999 8.31524 29.9999C12.9076 29.9999 16.6305 26.277 16.6305 21.6847C16.6305 21.6524 16.6296 21.6203 16.6293 21.5881H0.00117672C0.000823781 21.6203 0 21.6524 0 21.6847Z"
        fill="url(#paint16_linear_5077_3483)" />
    <path
        d="M7.30998 13.3306H6.18115C5.77115 13.3306 5.41292 13.0553 5.30645 12.66L3.83704 7.17651H5.66115L7.30998 13.3306Z"
        fill="url(#paint17_linear_5077_3483)" />
    <path
        d="M10.453 13.3306H9.80886L8.16003 7.17651H9.98356L11.3271 12.1912C11.4812 12.7659 11.0477 13.3306 10.453 13.3306Z"
        fill="url(#paint18_linear_5077_3483)" />
    <defs>
        <linearGradient id="paint0_linear_5077_3483" x1="11.3474" y1="3.31676" x2="9.80797"
            y2="6.74188" gradientUnits="userSpaceOnUse">
            <stop stop-color="#F9F5F3" />
            <stop offset="1" stop-color="#D8E8F0" />
        </linearGradient>
        <linearGradient id="paint1_linear_5077_3483" x1="11.8236" y1="5.68641" x2="9.70598"
            y2="6.706" gradientUnits="userSpaceOnUse">
            <stop stop-color="#678D98" stop-opacity="0" />
            <stop offset="0.9957" stop-color="#678D98" stop-opacity="0.996" />
            <stop offset="1" stop-color="#678D98" />
        </linearGradient>
        <linearGradient id="paint2_linear_5077_3483" x1="11.7546" y1="6.69765" x2="9.20556"
            y2="8.34471" gradientUnits="userSpaceOnUse">
            <stop stop-color="#FD4755" />
            <stop offset="1" stop-color="#A72B2B" />
        </linearGradient>
        <linearGradient id="paint3_linear_5077_3483" x1="11.7051" y1="7.539" x2="9.86191"
            y2="9.02917" gradientUnits="userSpaceOnUse">
            <stop stop-color="#A72B2B" stop-opacity="0" />
            <stop offset="1" stop-color="#42210B" />
        </linearGradient>
        <linearGradient id="paint4_linear_5077_3483" x1="12.0298" y1="1.80412" x2="10.1866"
            y2="3.92176" gradientUnits="userSpaceOnUse">
            <stop stop-color="#B3DAFE" />
            <stop offset="1" stop-color="#0182FC" />
        </linearGradient>
        <linearGradient id="paint5_linear_5077_3483" x1="8.31524" y1="12.4705" x2="8.31524"
            y2="15.7647" gradientUnits="userSpaceOnUse">
            <stop stop-color="#E6E6E6" />
            <stop offset="1" stop-color="#999999" />
        </linearGradient>
        <linearGradient id="paint6_linear_5077_3483" x1="12.9136" y1="14.1681" x2="10.8842"
            y2="14.1092" gradientUnits="userSpaceOnUse">
            <stop stop-color="#766E6E" stop-opacity="0" />
            <stop offset="1" stop-color="#444444" />
        </linearGradient>
        <linearGradient id="paint7_linear_5077_3483" x1="3.18853" y1="16.5582" x2="11.9582"
            y2="25.3278" gradientUnits="userSpaceOnUse">
            <stop stop-color="#E6E6E6" />
            <stop offset="1" stop-color="#999999" />
        </linearGradient>
        <linearGradient id="paint8_linear_5077_3483" x1="12.6199" y1="25.9894" x2="3.88485"
            y2="17.2544" gradientUnits="userSpaceOnUse">
            <stop stop-color="#E6E6E6" />
            <stop offset="1" stop-color="#999999" />
        </linearGradient>
        <linearGradient id="paint9_linear_5077_3483" x1="4.17871" y1="17.5482" x2="10.9875"
            y2="24.357" gradientUnits="userSpaceOnUse">
            <stop stop-color="#E6E6E6" />
            <stop offset="1" stop-color="#999999" />
        </linearGradient>
        <linearGradient id="paint10_linear_5077_3483" x1="6.00921" y1="5.21141" x2="8.07957"
            y2="9.04541" gradientUnits="userSpaceOnUse">
            <stop stop-color="#F9F5F3" />
            <stop offset="1" stop-color="#D8E8F0" />
        </linearGradient>
        <linearGradient id="paint11_linear_5077_3483" x1="7.59781" y1="12.0393" x2="7.59781"
            y2="13.3726" gradientUnits="userSpaceOnUse">
            <stop stop-color="#678D98" stop-opacity="0" />
            <stop offset="0.9957" stop-color="#678D98" stop-opacity="0.996" />
            <stop offset="1" stop-color="#678D98" />
        </linearGradient>
        <linearGradient id="paint12_linear_5077_3483" x1="3.24521" y1="4.47059" x2="9.24521"
            y2="13.4118" gradientUnits="userSpaceOnUse">
            <stop stop-color="#B3DAFE" />
            <stop offset="1" stop-color="#0182FC" />
        </linearGradient>
        <linearGradient id="paint13_linear_5077_3483" x1="6.09946" y1="2.55529" x2="12.0995"
            y2="11.4965" gradientUnits="userSpaceOnUse">
            <stop stop-color="#FD4755" />
            <stop offset="1" stop-color="#A72B2B" />
        </linearGradient>
        <linearGradient id="paint14_linear_5077_3483" x1="13.8442" y1="27.2334" x2="6.60893"
            y2="20.3217" gradientUnits="userSpaceOnUse">
            <stop stop-color="#766E6E" stop-opacity="0" />
            <stop offset="0.2806" stop-color="#716B6B" stop-opacity="0.281" />
            <stop offset="0.5705" stop-color="#656060" stop-opacity="0.571" />
            <stop offset="0.8636" stop-color="#514F4F" stop-opacity="0.864" />
            <stop offset="1" stop-color="#444444" />
        </linearGradient>
        <linearGradient id="paint15_linear_5077_3483" x1="6.53534" y1="20.7936" x2="11.2412"
            y2="23.2054" gradientUnits="userSpaceOnUse">
            <stop stop-color="#F9F5F3" />
            <stop offset="1" stop-color="#D8E8F0" />
        </linearGradient>
        <linearGradient id="paint16_linear_5077_3483" x1="8.31524" y1="24.1175" x2="8.31524"
            y2="29.5754" gradientUnits="userSpaceOnUse">
            <stop stop-color="#766E6E" stop-opacity="0" />
            <stop offset="0.2806" stop-color="#716B6B" stop-opacity="0.281" />
            <stop offset="0.5705" stop-color="#656060" stop-opacity="0.571" />
            <stop offset="0.8636" stop-color="#514F4F" stop-opacity="0.864" />
            <stop offset="1" stop-color="#444444" />
        </linearGradient>
        <linearGradient id="paint17_linear_5077_3483" x1="5.57351" y1="11.0981" x2="5.57351"
            y2="13.451" gradientUnits="userSpaceOnUse">
            <stop stop-color="#0182FC" stop-opacity="0" />
            <stop offset="1" stop-color="#024C67" />
        </linearGradient>
        <linearGradient id="paint18_linear_5077_3483" x1="9.75927" y1="11.0981" x2="9.75927"
            y2="13.451" gradientUnits="userSpaceOnUse">
            <stop stop-color="#A72B2B" stop-opacity="0" />
            <stop offset="1" stop-color="#42210B" />
        </linearGradient>
    </defs>
</svg>
    