<svg width="15" height="21" viewBox="0 0 15 21" fill="none" xmlns="http://www.w3.org/2000/svg">
    <path opacity="0.1" d="M3.08648 14.1444L3.32448 14.1496C3.8206 14.1597 4.27691 14.4235 4.53329 14.8479L4.65666 15.0513C5.05873 15.7154 5.9136 15.9447 6.59391 15.5706L6.80216 15.456C7.2366 15.2167 7.76379 15.2167 8.19823 15.456L8.40648 15.5706C9.08679 15.9447 9.94166 15.7163 10.3437 15.0513L10.4671 14.8479C10.7243 14.4235 11.1802 14.1601 11.6759 14.1496L11.9139 14.1444C12.424 14.1339 12.865 13.8578 13.1148 13.4509L12.1038 11.4581C11.8054 10.8706 11.2025 10.5 10.5432 10.5H4.53548C3.87617 10.5 3.27285 10.8706 2.97492 11.4581L1.92798 13.5222C2.18392 13.8906 2.60567 14.1347 3.08648 14.1444Z" fill="#AD12F5"/>
    <path opacity="0.2" d="M3.08636 14.1444L3.32436 14.1496C3.82049 14.1597 4.2768 14.4235 4.53317 14.8479L4.65655 15.0513C5.05861 15.7154 5.91349 15.9447 6.5938 15.5706L6.80205 15.456C7.23649 15.2167 7.76367 15.2167 8.19811 15.456L8.40636 15.5706C9.08667 15.9447 9.94155 15.7163 10.3436 15.0513L10.467 14.8479C10.7242 14.4235 11.1801 14.1601 11.6758 14.1496L11.9138 14.1444C12.294 14.1365 12.637 13.9812 12.8907 13.7349L11.811 11.6064C11.5686 11.1291 11.0786 10.8281 10.5431 10.8281C10.166 10.8281 4.91249 10.8281 4.53536 10.8281C3.99986 10.8281 3.50943 11.1291 3.26749 11.6069L2.16455 13.7808C2.41261 13.9987 2.73155 14.1374 3.08636 14.1444Z" fill="#AD12F5"/>
    <path opacity="0.3" d="M3.08645 14.1444L3.32445 14.1496C3.82058 14.1597 4.27689 14.4235 4.53327 14.8479L4.65664 15.0513C5.0587 15.7154 5.91358 15.9447 6.59389 15.5706L6.80214 15.456C7.23658 15.2167 7.76376 15.2167 8.1982 15.456L8.40645 15.5706C9.08676 15.9447 9.94164 15.7163 10.3437 15.0513L10.4671 14.8479C10.7243 14.4235 11.1802 14.1601 11.6759 14.1496L11.9139 14.1444C12.1746 14.1391 12.4153 14.0604 12.6244 13.9352L11.5184 11.7552C11.332 11.3877 10.9549 11.1562 10.5432 11.1562C9.78895 11.1562 5.2897 11.1562 4.53545 11.1562C4.12333 11.1562 3.7462 11.3877 3.55983 11.7552L2.43677 13.9689C2.63233 14.0731 2.85064 14.1396 3.08645 14.1444Z" fill="#AD12F5"/>
    <path opacity="0.4" d="M3.08655 14.1444L3.32455 14.1496C3.82067 14.1597 4.27699 14.4235 4.53336 14.8479L4.65674 15.0513C5.0588 15.7154 5.91367 15.9447 6.59399 15.5706L6.80224 15.456C7.23667 15.2167 7.76386 15.2167 8.1983 15.456L8.40655 15.5706C9.08686 15.9447 9.94173 15.7163 10.3438 15.0513L10.4672 14.8479C10.7244 14.4235 11.1803 14.1601 11.676 14.1496L11.914 14.1444C12.0579 14.1413 12.194 14.1116 12.3248 14.0696L11.2258 11.9035C11.0954 11.6462 10.8316 11.4844 10.5433 11.4844C9.41192 11.4844 5.66649 11.4844 4.53555 11.4844C4.24724 11.4844 3.98342 11.6462 3.85261 11.9035L2.74268 14.091C2.85336 14.1207 2.96711 14.1417 3.08655 14.1444Z" fill="#AD12F5"/>
    <path d="M10.9335 12.0522C10.8587 11.9053 10.7082 11.8125 10.5432 11.8125H9.76622H5.31247H4.53547C4.37053 11.8125 4.22003 11.9053 4.14522 12.0522L1.25991 17.7397C1.11203 18.0307 1.32378 18.375 1.65016 18.375H3.69853C3.83109 18.375 3.95666 18.4354 4.03978 18.5386L5.17466 19.9539C5.37634 20.2055 5.77141 20.16 5.91053 19.8691L7.53934 16.4653L9.16815 19.8691C9.30728 20.16 9.70234 20.2055 9.90403 19.9539L11.0389 18.5386C11.1225 18.4354 11.248 18.375 11.3806 18.375H13.4285C13.7549 18.375 13.9662 18.0307 13.8188 17.7397L10.9335 12.0522Z" fill="url(#paint0_linear_5071_6487)"/>
    <path opacity="0.05" d="M10.9334 12.0522C10.8586 11.9053 10.7081 11.8125 10.5432 11.8125H9.76619H5.31244H4.53544C4.37051 11.8125 4.22001 11.9053 4.14519 12.0522L2.66382 14.9717C2.79507 14.9975 2.92894 15.0167 3.06763 15.0194L3.30607 15.0246C3.50338 15.0286 3.68232 15.1318 3.78469 15.302L3.90763 15.505C4.55513 16.5747 5.92057 16.94 7.01563 16.3371L7.22388 16.2225C7.39669 16.1276 7.60319 16.1276 7.776 16.2225L7.98425 16.3371C9.53956 17.1933 10.765 16.0453 11.0914 15.5059L11.2156 15.3016C11.318 15.1322 11.4974 15.0286 11.6947 15.0246L11.9318 15.0194C12.0959 15.0159 12.2547 14.994 12.4083 14.959L10.9334 12.0522Z" fill="#612BA4"/>
    <path opacity="0.1" d="M10.9334 12.0522C10.8586 11.9053 10.7081 11.8125 10.5432 11.8125H9.76617H5.31243H4.53543C4.37049 11.8125 4.21999 11.9053 4.14518 12.0522L2.7478 14.8063C2.85368 14.8247 2.96043 14.8422 3.07112 14.8444L3.30955 14.8496C3.5668 14.8549 3.80086 14.9901 3.9343 15.211L4.05724 15.414C4.65574 16.4027 5.9188 16.7409 6.93074 16.1836L7.13899 16.0689C7.36386 15.9451 7.63467 15.9451 7.85999 16.0689L8.06824 16.1836C9.44855 16.9435 10.5996 15.9792 10.9413 15.4144L11.0651 15.2106C11.1985 14.9905 11.433 14.8544 11.6899 14.8496L11.927 14.8444C12.0635 14.8417 12.196 14.8242 12.3251 14.7971L10.9334 12.0522Z" fill="#612BA4"/>
    <path opacity="0.3" d="M10.9334 12.0522C10.8586 11.9053 10.7081 11.8125 10.5432 11.8125H9.76616H5.31241H4.53541C4.37047 11.8125 4.21997 11.9053 4.14516 12.0522L2.83179 14.6409C2.91229 14.6527 2.99147 14.6681 3.07504 14.6698L3.31347 14.6751C3.63022 14.6812 3.92029 14.8487 4.08435 15.1209L4.20772 15.3239C4.75722 16.2312 5.91835 16.5423 6.84716 16.0309L7.05541 15.9162C7.33278 15.7636 7.66747 15.7636 7.94528 15.9162L8.15353 16.0309C9.35885 16.6941 10.436 15.9141 10.7925 15.3243L10.9163 15.1204C11.0808 14.8492 11.3705 14.6816 11.6872 14.6751L11.9243 14.6698C12.0333 14.6676 12.1383 14.6514 12.242 14.6322L10.9334 12.0522Z" fill="#612BA4"/>
    <path opacity="0.4" d="M10.9334 12.0522C10.8586 11.9053 10.7081 11.8125 10.5431 11.8125H9.76614H5.3124H4.5354C4.37046 11.8125 4.21996 11.9053 4.14515 12.0522L2.91577 14.4751C2.97046 14.4812 3.02296 14.4935 3.07852 14.4944L3.31696 14.4996C3.69365 14.5071 4.03883 14.707 4.23352 15.0294L4.3569 15.2329C4.8574 16.0593 5.91614 16.3428 6.76227 15.8773L6.97052 15.7627C7.30039 15.5811 7.69896 15.5811 8.02883 15.7627L8.23708 15.8773C9.26739 16.4443 10.2706 15.848 10.642 15.2333L10.7658 15.0294C10.961 14.707 11.3061 14.5075 11.6828 14.4996L11.9204 14.4944C12.0018 14.4926 12.0792 14.4782 12.1575 14.4664L10.9334 12.0522Z" fill="#612BA4"/>
    <path opacity="0.5" d="M10.9334 12.0522C10.8586 11.9053 10.7081 11.8125 10.5431 11.8125H9.76613H5.31238H4.53538C4.37044 11.8125 4.21994 11.9053 4.14513 12.0522L2.99976 14.3097C3.02776 14.3119 3.05401 14.3189 3.08244 14.3194L3.32044 14.3246C3.75663 14.3334 4.15782 14.5652 4.38313 14.9389L4.50651 15.1423C4.95757 15.8874 5.91482 16.1442 6.67782 15.7242L6.88607 15.6096C7.268 15.3991 7.73132 15.3991 8.11325 15.6096L8.3215 15.7242C9.17681 16.1945 10.1056 15.7824 10.4928 15.1423L10.6162 14.9389C10.8424 14.5657 11.2431 14.3342 11.6789 14.3251L11.9169 14.3198C11.9707 14.3185 12.0214 14.3076 12.0735 14.3014L10.9334 12.0522Z" fill="#612BA4"/>
    <path d="M10.9334 12.0522C10.8585 11.9053 10.708 11.8125 10.5431 11.8125H9.76611H5.31236H4.53536C4.37043 11.8125 4.21993 11.9053 4.14511 12.0522L3.08374 14.1444C3.08462 14.1444 3.08549 14.1448 3.08637 14.1448L3.32437 14.1501C3.82049 14.1601 4.2768 14.4239 4.53318 14.8483L4.65655 15.0517C5.05861 15.7159 5.91349 15.9451 6.5938 15.5711L6.80205 15.4564C7.23649 15.2171 7.76367 15.2171 8.19811 15.4564L8.40636 15.5711C9.08667 15.9451 9.94155 15.7167 10.3436 15.0517L10.467 14.8483C10.7242 14.4239 11.1801 14.1606 11.6758 14.1501L11.9138 14.1448C11.94 14.1444 11.9645 14.1378 11.9904 14.1356L10.9334 12.0522Z" fill="#612BA4"/>
    <path d="M14.6421 9.01074C14.4028 8.5763 14.4028 8.04912 14.6421 7.61468L14.7567 7.40643C15.1308 6.72612 14.9024 5.87124 14.2374 5.46918L14.034 5.34581C13.6096 5.08856 13.3462 4.63268 13.3357 4.13699L13.3305 3.89899C13.3147 3.12243 12.6891 2.49681 11.9126 2.48106L11.6746 2.47581C11.1784 2.46575 10.7221 2.20193 10.4657 1.77756L10.3424 1.57412C9.94031 0.909559 9.08544 0.680746 8.40513 1.05481L8.19688 1.16943C7.76244 1.40875 7.23525 1.40875 6.80081 1.16943L6.593 1.05525C5.91269 0.681184 5.05825 0.909996 4.65619 1.57456L4.53282 1.778C4.27557 2.20237 3.81969 2.46575 3.324 2.47625L3.086 2.4815C2.30944 2.49725 1.68382 3.12287 1.66807 3.89943L1.66282 4.13743C1.65276 4.63356 1.38894 5.08987 0.964568 5.34624L0.761131 5.46962C0.0970061 5.87168 -0.132244 6.72656 0.241818 7.40687L0.356443 7.61512C0.595756 8.04955 0.595756 8.57674 0.356443 9.01118L0.242256 9.21899C-0.131806 9.8993 0.0965684 10.7542 0.761568 11.1562L0.965005 11.2796C1.38938 11.5369 1.65276 11.9927 1.66326 12.4884L1.6685 12.7264C1.68425 13.503 2.30988 14.1286 3.08644 14.1444L3.32444 14.1496C3.82057 14.1597 4.27688 14.4235 4.53325 14.8479L4.65663 15.0513C5.05869 15.7154 5.91357 15.9447 6.59388 15.5706L6.80213 15.456C7.23656 15.2167 7.76375 15.2167 8.19819 15.456L8.40644 15.5706C9.08675 15.9447 9.94162 15.7163 10.3437 15.0513L10.4671 14.8479C10.7243 14.4235 11.1802 14.1601 11.6759 14.1496L11.9139 14.1444C12.6904 14.1286 13.3161 13.503 13.3318 12.7264L13.3371 12.4884C13.3471 11.9923 13.6109 11.536 14.0353 11.2796L14.2387 11.1562C14.9029 10.7542 15.1321 9.8993 14.7581 9.21899L14.6421 9.01074Z" fill="url(#paint1_linear_5071_6487)"/>
    <path d="M9.10206 1.09442C9.53694 1.09442 9.93069 1.31623 10.1556 1.68767L10.2789 1.89067C10.576 2.38242 11.0962 2.68298 11.6702 2.69436L11.9086 2.69961C12.5701 2.71317 13.0991 3.24167 13.1122 3.90361L13.1174 4.14161C13.1297 4.71517 13.4298 5.23536 13.9211 5.53286L14.125 5.65623C14.6911 5.99836 14.8845 6.72111 14.566 7.30079L14.4514 7.50904C14.174 8.01217 14.174 8.61285 14.4518 9.11685L14.5673 9.32423C14.8862 9.90392 14.6924 10.6262 14.1263 10.9692L13.9233 11.0926C13.4316 11.3897 13.131 11.9099 13.1196 12.4839L13.1144 12.7223C13.1008 13.3838 12.5723 13.9127 11.9104 13.9259L11.6724 13.9311C11.0988 13.9434 10.5786 14.2435 10.2811 14.7348L10.1577 14.9387C9.93331 15.3101 9.53956 15.5319 9.10469 15.5319C8.89906 15.5319 8.69431 15.4794 8.51319 15.3797L8.30494 15.265C8.0595 15.1298 7.78169 15.0585 7.50125 15.0585C7.22081 15.0585 6.943 15.1298 6.69756 15.265L6.48931 15.3797C6.30819 15.4794 6.10388 15.5319 5.89825 15.5319C5.46338 15.5319 5.06963 15.3101 4.84432 14.9387L4.72094 14.7357C4.42388 14.2439 3.90369 13.9434 3.32969 13.932L3.09125 13.9267C2.42975 13.9132 1.90082 13.3847 1.88769 12.7227L1.88244 12.4847C1.87019 11.9112 1.57007 11.391 1.07876 11.0935L0.874881 10.9701C0.308756 10.628 0.115381 9.90523 0.434318 9.32554L0.548506 9.11773C0.825881 8.6146 0.825881 8.01392 0.548506 7.51079L0.433881 7.30254C0.114944 6.72286 0.308756 6.00054 0.874881 5.65754L1.07788 5.53417C1.56963 5.23711 1.87019 4.71692 1.88157 4.14292L1.88682 3.90448C1.90038 3.24298 2.42888 2.71405 3.09082 2.70092L3.32882 2.69567C3.90238 2.68342 4.42257 2.3833 4.72007 1.89198L4.84344 1.68855C5.06832 1.31711 5.46163 1.0953 5.8965 1.0953C6.10213 1.0953 6.30644 1.1478 6.488 1.24755L6.69581 1.36173C6.94125 1.49692 7.21906 1.56823 7.4995 1.56823C7.77994 1.56823 8.05775 1.49692 8.30319 1.36173L8.51144 1.24711C8.69169 1.14692 8.89644 1.09442 9.10206 1.09442ZM9.10206 0.875671C8.86581 0.875671 8.6265 0.933421 8.40513 1.05505L8.19688 1.16967C7.97988 1.28911 7.73925 1.34905 7.49863 1.34905C7.25844 1.34905 7.01781 1.28911 6.80081 1.16967L6.593 1.05548C6.37206 0.933859 6.13275 0.876109 5.8965 0.876109C5.40563 0.876109 4.92788 1.12592 4.65619 1.5748L4.53282 1.77823C4.27557 2.20261 3.81969 2.46598 3.324 2.47648L3.086 2.48173C2.30944 2.49748 1.68382 3.12311 1.66807 3.89967L1.66282 4.13767C1.65276 4.63379 1.38894 5.09011 0.964568 5.34648L0.761131 5.46986C0.0970061 5.87192 -0.132244 6.72679 0.241818 7.40711L0.356443 7.61536C0.595756 8.04979 0.595756 8.57698 0.356443 9.01142L0.242256 9.21923C-0.131806 9.89954 0.0965684 10.7544 0.761568 11.1565L0.965005 11.2799C1.38938 11.5371 1.65276 11.993 1.66326 12.4887L1.6685 12.7267C1.68425 13.5032 2.30988 14.1289 3.08644 14.1446L3.32444 14.1499C3.82057 14.1599 4.27688 14.4237 4.53325 14.8481L4.65663 15.0515C4.92832 15.5 5.40606 15.7502 5.89738 15.7502C6.13363 15.7502 6.37294 15.6925 6.59388 15.5709L6.80213 15.4562C7.01913 15.3368 7.25975 15.2768 7.49994 15.2768C7.74013 15.2768 7.98075 15.3368 8.19819 15.4562L8.40644 15.5709C8.62738 15.6925 8.86713 15.7502 9.10338 15.7502C9.59469 15.7502 10.072 15.5004 10.3437 15.0515L10.4671 14.8481C10.7243 14.4237 11.1802 14.1604 11.6759 14.1499L11.9139 14.1446C12.6904 14.1289 13.3161 13.5032 13.3318 12.7267L13.3371 12.4887C13.3471 11.9925 13.6109 11.5362 14.0353 11.2799L14.2387 11.1565C14.9029 10.7544 15.1321 9.89954 14.7581 9.21923L14.6421 9.01098C14.4028 8.57654 14.4028 8.04936 14.6421 7.61492L14.7567 7.40667C15.1308 6.72636 14.9024 5.87148 14.2374 5.46942L14.034 5.34604C13.6096 5.08879 13.3462 4.63292 13.3357 4.13723L13.3305 3.89923C13.3147 3.12267 12.6891 2.49705 11.9126 2.4813L11.6746 2.47605C11.1784 2.46598 10.7221 2.20217 10.4657 1.7778L10.3424 1.57436C10.0711 1.12592 9.59294 0.875671 9.10206 0.875671Z" fill="url(#paint2_linear_5071_6487)"/>
    <defs>
    <linearGradient id="paint0_linear_5071_6487" x1="7.53934" y1="21.9043" x2="7.53934" y2="13.6172" gradientUnits="userSpaceOnUse">
    <stop stop-color="#97F8FF" stop-opacity="0"/>
    <stop offset="0.125" stop-color="#AD12F5"/>
    <stop offset="0.328" stop-color="#AD12F5" stop-opacity="0.90196"/>
    <stop offset="0.584" stop-color="#AD12F5"/>
    <stop offset="0.88" stop-color="#AD12F5"/>
    <stop offset="1" stop-color="#612BA4"/>
    </linearGradient>
    <linearGradient id="paint1_linear_5071_6487" x1="7.49994" y1="4.46074" x2="7.49994" y2="19.3357" gradientUnits="userSpaceOnUse">
    <stop stop-color="#B9F2FF"/>
    <stop offset="1" stop-color="#D4B9FF" stop-opacity="0.92941"/>
    </linearGradient>
    <linearGradient id="paint2_linear_5071_6487" x1="7.49994" y1="15.4606" x2="7.49994" y2="0.585609" gradientUnits="userSpaceOnUse">
    <stop stop-color="#B9F2FF"/>
    <stop offset="1" stop-color="#B9F2FF"/>
    </linearGradient>
    </defs>
    </svg>
    