<svg width="30" height="30" viewBox="0 0 705 897" fill="none" xmlns="http://www.w3.org/2000/svg">
    <path
        d="M352.5 0.0334473L0.133301 480.533L64.2 768.833L352.5 896.967L640.8 768.833L704.867 480.533L352.5 0.0334473Z"
        fill="#B8F9FF" />
    <path d="M512.667 592.65L352.5 0.0334473L704.867 480.533L512.667 592.65Z" fill="#65E4F0" />
    <path d="M0.133301 480.533L352.5 0.0334473L176.317 640.7L0.133301 480.533Z" fill="#B8F9FF" />
    <path d="M176.317 640.7L352.5 0.0334473L512.667 592.65L176.317 640.7Z" fill="#8AF6FF" />
    <path d="M0.133301 480.533L176.317 640.7L64.2 768.833L0.133301 480.533Z" fill="#8AF6FF" />
    <path d="M64.2 768.833L176.317 640.7L352.5 896.967L64.2 768.833Z" fill="#51D2E0" />
    <path d="M512.667 592.65L704.867 480.533L640.8 768.833L512.667 592.65Z" fill="#43C0CC" />
    <path d="M352.5 896.967L512.667 592.65L640.8 768.833L352.5 896.967Z" fill="#51D2E0" />
    <path d="M176.317 640.7L512.667 592.65L352.5 896.967L176.317 640.7Z" fill="#65E4F0" />
</svg>
    