<svg width="31" height="31" viewBox="0 0 31 31" fill="none" xmlns="http://www.w3.org/2000/svg">
    <path
        d="M2.5 14.6875H28.5V3.3125C28.5 1.51769 27.0448 0.0625 25.25 0.0625H5.75C3.95519 0.0625 2.5 1.51769 2.5 3.3125V14.6875Z"
        fill="url(#paint0_linear_5065_2159)" />
    <path opacity="0.1"
        d="M30.125 16.3125V20.1231L28.9388 26.4688C28.5244 28.6788 26.5825 30.2875 24.3319 30.2875H6.66813C4.4175 30.2875 2.47563 28.6788 2.06125 26.4688L0.875 20.1394V16.3125C0.875 15.9062 1.02125 15.5325 1.28125 15.2481C1.43563 15.0613 1.63875 14.915 1.86625 14.8175C2.06125 14.7362 2.2725 14.6875 2.5 14.6875H28.5C28.7275 14.6875 28.9387 14.7362 29.1337 14.8175C29.3612 14.915 29.5644 15.0613 29.7188 15.2481C29.9788 15.5325 30.125 15.9062 30.125 16.3125Z"
        fill="url(#paint1_linear_5065_2159)" />
    <path opacity="0.2"
        d="M30.125 16.3125V16.5806L28.2969 26.3469C27.9394 28.2562 26.2737 29.6375 24.3319 29.6375H6.66813C4.72625 29.6375 3.06063 28.2562 2.70312 26.3469L0.875 16.5969V16.3125C0.875 15.9062 1.02125 15.5325 1.28125 15.2481C1.43563 15.0613 1.63875 14.915 1.86625 14.8175C2.06125 14.7362 2.2725 14.6875 2.5 14.6875H28.5C28.7275 14.6875 28.9387 14.7362 29.1337 14.8175C29.3612 14.915 29.5644 15.0613 29.7188 15.2481C29.9788 15.5325 30.125 15.9062 30.125 16.3125Z"
        fill="url(#paint2_linear_5065_2159)" />
    <path opacity="0.3"
        d="M29.7187 15.2481L27.655 26.225C27.3625 27.8256 25.965 28.9875 24.3319 28.9875H6.66812C5.035 28.9875 3.6375 27.8256 3.345 26.225L1.28125 15.2481C1.43562 15.0613 1.63875 14.915 1.86625 14.8175C2.06125 14.7362 2.2725 14.6875 2.5 14.6875H28.5C28.7275 14.6875 28.9387 14.7362 29.1337 14.8175C29.3612 14.915 29.5644 15.0613 29.7187 15.2481Z"
        fill="url(#paint3_linear_5065_2159)" />
    <path opacity="0.4"
        d="M29.1338 14.8175L27.0213 26.1113C26.7775 27.4031 25.6481 28.3375 24.3319 28.3375H6.66815C5.3519 28.3375 4.22252 27.4031 3.97877 26.1113L1.86627 14.8175C2.06127 14.7362 2.27252 14.6875 2.50002 14.6875H28.5C28.7275 14.6875 28.9388 14.7362 29.1338 14.8175Z"
        fill="url(#paint4_linear_5065_2159)" />
    <path
        d="M24.4375 10.625C24.3262 10.625 24.2214 10.6494 24.1125 10.6575C23.4926 9.20556 22.0536 8.1875 20.375 8.1875C19.8639 8.1875 19.3797 8.29231 18.9287 8.46456C18.2097 7.32462 16.9471 6.5625 15.5 6.5625C14.0529 6.5625 12.7903 7.32462 12.0712 8.46456C11.6203 8.29231 11.1361 8.1875 10.625 8.1875C8.94637 8.1875 7.50744 9.20556 6.8875 10.6575C6.77862 10.6494 6.67381 10.625 6.5625 10.625C4.31919 10.625 2.5 12.4442 2.5 14.6875L4.619 25.9894C4.80344 26.9741 5.66387 27.6875 6.66569 27.6875H24.3343C25.3361 27.6875 26.1966 26.9741 26.381 25.9894L28.5 14.6875C28.5 12.4442 26.6808 10.625 24.4375 10.625Z"
        fill="url(#paint5_linear_5065_2159)" />
    <path opacity="0.05"
        d="M28.5 14.6875L26.3794 25.9894C26.1925 26.9725 25.3394 27.6875 24.3319 27.6875H6.66812C5.66062 27.6875 4.8075 26.9725 4.62062 25.9894L2.5 14.6875C2.5 14.5738 2.50813 14.4681 2.51625 14.3625C2.52438 14.2488 2.5325 14.1431 2.55687 14.0375C2.57312 13.9238 2.58937 13.8181 2.62187 13.7125C2.64625 13.6069 2.67875 13.4931 2.71125 13.3875C2.75188 13.2819 2.7925 13.1681 2.83312 13.0625H28.1669C28.2075 13.1681 28.2481 13.2819 28.2887 13.3875C28.3212 13.4931 28.3537 13.6069 28.3781 13.7125C28.4106 13.8181 28.4269 13.9238 28.4431 14.0375C28.4675 14.1431 28.4756 14.2488 28.4837 14.3625C28.4919 14.4681 28.5 14.5738 28.5 14.6875Z"
        fill="url(#paint6_linear_5065_2159)" />
    <path opacity="0.1"
        d="M28.5 14.6875L26.3794 25.9894C26.1925 26.9725 25.3394 27.6875 24.3319 27.6875H6.66812C5.66062 27.6875 4.8075 26.9725 4.62062 25.9894L2.5 14.6875C2.5 14.5737 2.50813 14.4681 2.51625 14.3625C2.52438 14.2487 2.5325 14.1431 2.55687 14.0375C2.57312 13.9237 2.58937 13.8181 2.62187 13.7125C2.64625 13.6069 2.67875 13.4931 2.71125 13.3875H28.2887C28.3212 13.4931 28.3537 13.6069 28.3781 13.7125C28.4106 13.8181 28.4269 13.9237 28.4431 14.0375C28.4675 14.1431 28.4756 14.2487 28.4837 14.3625C28.4919 14.4681 28.5 14.5737 28.5 14.6875Z"
        fill="url(#paint7_linear_5065_2159)" />
    <path opacity="0.2"
        d="M28.5 14.6875L26.3794 25.9894C26.1925 26.9725 25.3394 27.6875 24.3319 27.6875H6.66812C5.66062 27.6875 4.8075 26.9725 4.62062 25.9894L2.5 14.6875C2.5 14.5738 2.50813 14.4681 2.51625 14.3625C2.52438 14.2488 2.5325 14.1431 2.55687 14.0375C2.57312 13.9238 2.58937 13.8181 2.62187 13.7125H28.3781C28.4106 13.8181 28.4269 13.9238 28.4431 14.0375C28.4675 14.1431 28.4756 14.2488 28.4837 14.3625C28.4919 14.4681 28.5 14.5738 28.5 14.6875Z"
        fill="url(#paint8_linear_5065_2159)" />
    <path opacity="0.3"
        d="M28.5 14.6875L26.3794 25.9894C26.1925 26.9725 25.3394 27.6875 24.3319 27.6875H6.66812C5.66062 27.6875 4.8075 26.9725 4.62062 25.9894L2.5 14.6875C2.5 14.5737 2.50813 14.4681 2.51625 14.3625C2.52438 14.2487 2.5325 14.1431 2.55687 14.0375H28.4431C28.4675 14.1431 28.4756 14.2487 28.4837 14.3625C28.4919 14.4681 28.5 14.5737 28.5 14.6875Z"
        fill="url(#paint9_linear_5065_2159)" />
    <path opacity="0.4"
        d="M28.5 14.6875L26.3794 25.9894C26.1925 26.9725 25.3394 27.6875 24.3319 27.6875H6.66812C5.66062 27.6875 4.8075 26.9725 4.62062 25.9894L2.5 14.6875C2.5 14.5738 2.50813 14.4681 2.51625 14.3625H28.4837C28.4919 14.4681 28.5 14.5738 28.5 14.6875Z"
        fill="url(#paint10_linear_5065_2159)" />
    <path
        d="M6.66569 27.6875H24.3343C25.3361 27.6875 26.1966 26.9741 26.381 25.9894L28.5 14.6875H2.5L4.619 25.9894C4.80344 26.9741 5.66387 27.6875 6.66569 27.6875Z"
        fill="url(#paint11_linear_5065_2159)" />
    <path opacity="0.05"
        d="M15.5 25.2516C14.1561 25.2516 13.0625 24.1572 13.0625 22.8125V21.7059C12.3564 20.9104 12.0883 19.8233 12.3459 18.7703C12.6351 17.593 13.6264 16.6343 14.8142 16.3832C15.0547 16.3353 15.2847 16.3109 15.5 16.3109C17.2924 16.3109 18.75 17.7701 18.75 19.5625C18.75 20.3417 18.455 21.1144 17.9375 21.7034V22.8125C17.9375 24.1572 16.8439 25.2516 15.5 25.2516Z"
        fill="url(#paint12_linear_5065_2159)" />
    <path opacity="0.1"
        d="M15.5 24.9266C14.3349 24.9266 13.3875 23.9784 13.3875 22.8125V21.5783C12.6888 20.8528 12.4182 19.8428 12.6612 18.8467C12.9212 17.788 13.8125 16.9268 14.8801 16.7009C15.0946 16.6578 15.3018 16.6359 15.4992 16.6359C17.112 16.6359 18.4242 17.9489 18.4242 19.5625C18.4242 20.3092 18.1301 21.0356 17.6117 21.5767V22.8125C17.6125 23.9784 16.6652 24.9266 15.5 24.9266Z"
        fill="url(#paint13_linear_5065_2159)" />
    <path opacity="0.2"
        d="M15.5 24.6008C14.5144 24.6008 13.7125 23.7989 13.7125 22.8125V21.4426C13.0324 20.8008 12.7505 19.8493 12.9772 18.9231C13.2079 17.9838 13.9993 17.2184 14.9475 17.0186C15.136 16.9804 15.3213 16.9609 15.4992 16.9609C16.9324 16.9609 18.0992 18.1284 18.0992 19.5617C18.0992 20.2734 17.8051 20.9503 17.2867 21.441V22.8125C17.2875 23.7989 16.4856 24.6008 15.5 24.6008Z"
        fill="url(#paint14_linear_5065_2159)" />
    <path opacity="0.3"
        d="M15.5 24.2758C14.6932 24.2758 14.0375 23.6193 14.0375 22.8125V21.2972C13.3745 20.7414 13.0836 19.8583 13.2933 19.0011C13.4948 18.1804 14.1862 17.5126 15.015 17.3379C15.1783 17.3046 15.3408 17.2867 15.5 17.2867C16.7545 17.2867 17.775 18.308 17.775 19.5625C17.775 20.2288 17.4744 20.8658 16.9625 21.2972V22.8125C16.9625 23.6193 16.3068 24.2758 15.5 24.2758Z"
        fill="url(#paint15_linear_5065_2159)" />
    <path opacity="0.4"
        d="M15.5 23.95C14.8728 23.95 14.3625 23.4389 14.3625 22.8125V21.1379C13.7166 20.674 13.4152 19.8688 13.6093 19.0774C13.7808 18.3763 14.3731 17.8051 15.0824 17.6556C15.2205 17.6271 15.3611 17.6125 15.5 17.6125C16.575 17.6125 17.45 18.4876 17.45 19.5625C17.45 20.1857 17.1429 20.7731 16.6375 21.1379V22.8125C16.6375 23.4389 16.1273 23.95 15.5 23.95Z"
        fill="url(#paint16_linear_5065_2159)" />
    <path
        d="M17.125 19.5625C17.125 18.5501 16.1996 17.7547 15.149 17.9741C14.56 18.0976 14.0684 18.5696 13.9254 19.1546C13.7369 19.9216 14.0968 20.6187 14.6875 20.9624V22.8125C14.6875 23.261 15.0515 23.625 15.5 23.625C15.9485 23.625 16.3125 23.261 16.3125 22.8125V20.9624C16.796 20.6805 17.125 20.1621 17.125 19.5625Z"
        fill="#FCE724" />
    <path
        d="M2.5 30.9375H28.5C29.3978 30.9375 30.125 30.2103 30.125 29.3125V16.3125C30.125 15.4147 29.3978 14.6875 28.5 14.6875H2.5C1.60219 14.6875 0.875 15.4147 0.875 16.3125V29.3125C0.875 30.2103 1.60219 30.9375 2.5 30.9375Z"
        fill="url(#paint17_linear_5065_2159)" />
    <path
        d="M28.5 15.0938C29.1719 15.0938 29.7188 15.6406 29.7188 16.3125V29.3125C29.7188 29.9844 29.1719 30.5312 28.5 30.5312H2.5C1.82806 30.5312 1.28125 29.9844 1.28125 29.3125V16.3125C1.28125 15.6406 1.82806 15.0938 2.5 15.0938H28.5ZM28.5 14.6875H2.5C1.60219 14.6875 0.875 15.4147 0.875 16.3125V29.3125C0.875 30.2103 1.60219 30.9375 2.5 30.9375H28.5C29.3978 30.9375 30.125 30.2103 30.125 29.3125V16.3125C30.125 15.4147 29.3978 14.6875 28.5 14.6875Z"
        fill="url(#paint18_linear_5065_2159)" />
    <defs>
        <linearGradient id="paint0_linear_5065_2159" x1="15.5" y1="20.8227" x2="15.5" y2="-10.0344"
            gradientUnits="userSpaceOnUse">
            <stop stop-color="#FF0101" />
            <stop offset="0.689" stop-color="#FDBD19" />
            <stop offset="1" stop-color="#FCE724" />
        </linearGradient>
        <linearGradient id="paint1_linear_5065_2159" x1="15.5" y1="5.09025" x2="15.5" y2="35.4964"
            gradientUnits="userSpaceOnUse">
            <stop stop-color="#FCE724" />
            <stop offset="1" stop-color="#FF6201" />
        </linearGradient>
        <linearGradient id="paint2_linear_5065_2159" x1="15.5" y1="5.49" x2="15.5" y2="34.6287"
            gradientUnits="userSpaceOnUse">
            <stop stop-color="#FCE724" />
            <stop offset="1" stop-color="#FF6201" />
        </linearGradient>
        <linearGradient id="paint3_linear_5065_2159" x1="15.5" y1="5.88975" x2="15.5" y2="33.7618"
            gradientUnits="userSpaceOnUse">
            <stop stop-color="#FCE724" />
            <stop offset="1" stop-color="#FF6201" />
        </linearGradient>
        <linearGradient id="paint4_linear_5065_2159" x1="15.5" y1="6.2895" x2="15.5" y2="32.8948"
            gradientUnits="userSpaceOnUse">
            <stop stop-color="#FCE724" />
            <stop offset="1" stop-color="#FF6201" />
        </linearGradient>
        <linearGradient id="paint5_linear_5065_2159" x1="15.5" y1="4.02587" x2="15.5" y2="45.2001"
            gradientUnits="userSpaceOnUse">
            <stop stop-color="#FCE724" />
            <stop offset="1" stop-color="#FF6201" />
        </linearGradient>
        <linearGradient id="paint6_linear_5065_2159" x1="15.5" y1="-5.14156" x2="15.5" y2="23.3642"
            gradientUnits="userSpaceOnUse">
            <stop stop-color="#FCE724" />
            <stop offset="1" stop-color="#FF6201" stop-opacity="0.48" />
        </linearGradient>
        <linearGradient id="paint7_linear_5065_2159" x1="15.5" y1="-4.41194" x2="15.5" y2="23.4601"
            gradientUnits="userSpaceOnUse">
            <stop stop-color="#FCE724" />
            <stop offset="1" stop-color="#FF6201" />
        </linearGradient>
        <linearGradient id="paint8_linear_5065_2159" x1="15.5" y1="-3.68231" x2="15.5" y2="23.5559"
            gradientUnits="userSpaceOnUse">
            <stop stop-color="#FCE724" />
            <stop offset="1" stop-color="#FF6201" />
        </linearGradient>
        <linearGradient id="paint9_linear_5065_2159" x1="15.5" y1="-2.9535" x2="15.5" y2="23.6518"
            gradientUnits="userSpaceOnUse">
            <stop stop-color="#FCE724" />
            <stop offset="1" stop-color="#FF6201" />
        </linearGradient>
        <linearGradient id="paint10_linear_5065_2159" x1="15.5" y1="-2.22387" x2="15.5" y2="23.7485"
            gradientUnits="userSpaceOnUse">
            <stop stop-color="#FCE724" />
            <stop offset="1" stop-color="#FCE724" />
        </linearGradient>
        <linearGradient id="paint11_linear_5065_2159" x1="15.5" y1="4.22819" x2="15.5" y2="42.735"
            gradientUnits="userSpaceOnUse">
            <stop stop-color="#FCE724" />
            <stop offset="1" stop-color="#FF6201" />
        </linearGradient>
        <linearGradient id="paint12_linear_5065_2159" x1="15.5" y1="-2.2515" x2="15.5" y2="32.6031"
            gradientUnits="userSpaceOnUse">
            <stop stop-color="#FCE724" />
            <stop offset="1" stop-color="#FF6201" />
        </linearGradient>
        <linearGradient id="paint13_linear_5065_2159" x1="15.4992" y1="-0.575309" x2="15.4992"
            y2="31.7435" gradientUnits="userSpaceOnUse">
            <stop stop-color="#FCE724" />
            <stop offset="1" stop-color="#FF6201" />
        </linearGradient>
        <linearGradient id="paint14_linear_5065_2159" x1="15.5" y1="1.10088" x2="15.5" y2="30.8831"
            gradientUnits="userSpaceOnUse">
            <stop stop-color="#FCE724" />
            <stop offset="1" stop-color="#FF6201" />
        </linearGradient>
        <linearGradient id="paint15_linear_5065_2159" x1="15.5008" y1="2.77707" x2="15.5008"
            y2="30.0226" gradientUnits="userSpaceOnUse">
            <stop stop-color="#FCE724" />
            <stop offset="1" stop-color="#FF6201" />
        </linearGradient>
        <linearGradient id="paint16_linear_5065_2159" x1="15.5008" y1="4.45244" x2="15.5008"
            y2="29.1622" gradientUnits="userSpaceOnUse">
            <stop stop-color="#FCE724" />
            <stop offset="1" stop-color="#FF6201" />
        </linearGradient>
        <linearGradient id="paint17_linear_5065_2159" x1="15.5" y1="24.2563" x2="15.5" y2="38.8212"
            gradientUnits="userSpaceOnUse">
            <stop stop-color="#F4805D" stop-opacity="0.4" />
            <stop offset="1" stop-color="#FFD8BB" stop-opacity="0.4" />
        </linearGradient>
        <linearGradient id="paint18_linear_5065_2159" x1="33.9007" y1="22.9449" x2="-16.7822"
            y2="22.5793" gradientUnits="userSpaceOnUse">
            <stop stop-color="#FFFFF0" stop-opacity="0.3" />
            <stop offset="1" stop-color="#FF9A83" stop-opacity="0.4" />
        </linearGradient>
    </defs>
</svg>
    