<svg width="18" height="18" viewBox="0 0 552 871" fill="none" xmlns="http://www.w3.org/2000/svg">
    <path
        d="M551.8 493.567L493.733 319.367H305.017L435.667 0H203.4L43.7167 391.95L0.166748 493.567H232.433L101.783 871L551.8 493.567Z"
        fill="#FFFF55" />
    <path d="M435.667 0H203.4L290.5 58.0667L435.667 0Z" fill="#FFFF55" />
    <path d="M435.667 0L305.017 319.367L290.5 58.0667L435.667 0Z" fill="#FFEA3E" />
    <path d="M377.6 493.567H551.8L101.783 871L377.6 493.567Z" fill="#FFEA3E" />
    <path d="M305.017 319.367L377.6 493.567L493.733 319.367H305.017Z" fill="#FFEA3E" />
    <path d="M551.8 493.567H377.6L493.733 319.367L551.8 493.567Z" fill="#FFFF55" />
    <path d="M101.783 871L232.433 493.567H377.6L101.783 871Z" fill="#FFCA1E" />
    <path d="M305.017 319.367L43.7168 391.95L232.433 493.567L305.017 319.367Z" fill="#FFCA1E" />
    <path d="M43.7168 391.95L290.5 58.0667L305.017 319.367L43.7168 391.95Z" fill="#FFD72B" />
    <path d="M203.4 0L43.7168 391.95L290.5 58.0667L203.4 0Z" fill="#FFEA3E" />
    <path d="M305.017 319.367L377.6 493.567H232.433L305.017 319.367Z" fill="#FFD72B" />
    <path d="M43.7167 391.95L0.166748 493.567H232.433L43.7167 391.95Z" fill="#FFB519" />
</svg>
    