<svg width="47" height="33" viewBox="0 0 47 33" fill="none" xmlns="http://www.w3.org/2000/svg">
    <path opacity="0.4"
        d="M28.6754 31.1589C28.3846 27.8464 27.2513 25.1966 25.6485 23.1468C23.7313 24.951 22.0894 27.5721 21.7544 31.3942C21.701 32.0015 21.9044 32.5008 22.2281 32.8789H27.0757C28.0055 32.8789 28.7566 32.0847 28.6754 31.1589Z"
        fill="#20C962" />
    <path opacity="0.3"
        d="M28.6754 31.1589C28.3569 27.5248 27.0243 24.6869 25.1697 22.5673C23.1631 24.4198 21.3527 27.1621 20.9869 31.3275C20.9335 31.9337 21.0681 32.4453 21.2992 32.8789H27.0746C28.0055 32.8789 28.7566 32.0847 28.6754 31.1589Z"
        fill="#20C962" />
    <path opacity="0.2"
        d="M28.6754 31.1589C28.326 27.1806 26.7674 24.1537 24.6323 21.9816C22.528 23.9132 20.6098 26.8045 20.2193 31.2586C20.1649 31.872 20.2532 32.4104 20.432 32.8789H27.0756C28.0055 32.8789 28.7565 32.0847 28.6754 31.1589Z"
        fill="#20C962" />
    <path opacity="0.1"
        d="M28.6754 31.1589C28.2952 26.8241 26.4807 23.6132 24.0456 21.4145C21.851 23.4458 19.8638 26.4881 19.4508 31.1918C19.3953 31.8196 19.459 32.3806 19.607 32.8799H27.0746C28.0055 32.8789 28.7566 32.0847 28.6754 31.1589Z"
        fill="#20C962" />
    <path
        d="M37.6277 20.838C40.2406 19.6102 42.0386 16.9686 42.0386 13.8708C42.0386 9.58935 38.6141 6.1648 34.3326 6.1648C30.0512 6.1648 26.6266 9.58935 26.6266 13.8708C26.6266 16.9686 28.4247 19.6102 31.0376 20.838C26.976 22.0196 23.0531 25.4092 22.5219 31.461C22.4551 32.2244 23.0737 32.8789 23.8402 32.8789H44.8251C45.5916 32.8789 46.2112 32.2244 46.1434 31.461C45.6122 25.4072 41.6872 22.0186 37.6277 20.838Z"
        fill="url(#paint0_linear_5071_5629)" />
    <path
        d="M28.6754 31.1589C28.4103 28.1351 27.4466 25.6599 26.0626 23.6923C24.1946 25.4925 22.8209 28.056 22.5219 31.462C22.4551 32.2244 23.0737 32.8789 23.8402 32.8789H27.0746C28.0055 32.8789 28.7566 32.0847 28.6754 31.1589Z"
        fill="#20C962" />
    <path opacity="0.05"
        d="M30.7221 30.9781C30.3933 27.2289 29.1182 24.4475 27.6654 22.4111C25.0125 24.1835 22.901 27.1405 22.5219 31.461C22.4551 32.2244 23.0737 32.8789 23.8402 32.8789H30.3892C30.6492 32.3508 30.7879 31.722 30.7221 30.9781Z"
        fill="#9AF91E" />
    <path opacity="0.1"
        d="M30.3132 31.0141C29.9916 27.3532 28.7237 24.6479 27.2904 22.6669C24.8152 24.4629 22.8826 27.345 22.5219 31.461C22.4551 32.2244 23.0737 32.8789 23.8402 32.8789H29.9001C30.1991 32.3724 30.3779 31.76 30.3132 31.0141Z"
        fill="#9AF91E" />
    <path opacity="0.2"
        d="M29.9032 31.05C29.5919 27.5053 28.3538 24.8678 26.9482 22.93C24.6395 24.7393 22.8651 27.5371 22.5209 31.461C22.4551 32.2244 23.0736 32.8789 23.8401 32.8789H29.4275C29.7676 32.4011 29.969 31.7908 29.9032 31.05Z"
        fill="#9AF91E" />
    <path opacity="0.3"
        d="M26.6184 23.194C24.471 25.0075 22.8497 27.7262 22.5219 31.461C22.4551 32.2244 23.0737 32.8789 23.8402 32.8789H28.8819C29.2929 32.4371 29.559 31.835 29.4943 31.086C29.1953 27.6748 28.0024 25.1082 26.6184 23.194Z"
        fill="#9AF91E" />
    <path opacity="0.4"
        d="M29.0854 31.123C28.8008 27.8834 27.6942 25.3774 26.3235 23.4581C24.3251 25.2685 22.8343 27.9008 22.5219 31.462C22.4551 32.2244 23.0737 32.8789 23.8402 32.8789H28.2757C28.7925 32.4998 29.1522 31.8843 29.0854 31.123Z"
        fill="#9AF91E" />
    <path
        d="M19.1364 18.5139C22.3637 16.9275 24.5717 13.6242 24.5717 9.76093C24.5717 4.33796 20.2337 0 14.8108 0C9.38781 0 5.04985 4.33796 5.04985 9.76093C5.04985 13.4762 7.08731 16.6819 10.1142 18.332C5.26664 19.825 0.639962 23.9256 0.00601547 31.1579C-0.0751543 32.0847 0.675923 32.8789 1.60578 32.8789H27.0746C28.0045 32.8789 28.7566 32.0847 28.6754 31.1589C28.0661 24.2071 23.7692 20.1455 19.1364 18.5139Z"
        fill="url(#paint1_linear_5071_5629)" />
    <path
        d="M14.8108 0.513733C19.9101 0.513733 24.058 4.66161 24.058 9.76093C24.058 13.3149 22.0852 16.4929 18.9104 18.0526C18.7244 18.144 18.6114 18.3372 18.6237 18.5437C18.636 18.7502 18.7706 18.929 18.9658 18.9978C21.4872 19.8866 27.4311 22.8539 28.1637 31.2031C28.1894 31.498 28.0918 31.7836 27.8873 32.0066C27.6788 32.2347 27.3828 32.3652 27.0756 32.3652H1.60578C1.29857 32.3652 1.00266 32.2347 0.794082 32.0066C0.589616 31.7836 0.492007 31.498 0.517693 31.2031C1.04684 25.1678 4.69126 20.5401 10.2653 18.8232C10.4625 18.7626 10.6043 18.5889 10.6249 18.3834C10.6454 18.1779 10.5406 17.9796 10.3598 17.881C7.40172 16.2679 5.56358 13.1567 5.56358 9.76093C5.56358 4.66161 9.71146 0.513733 14.8108 0.513733ZM14.8108 0C9.38781 0 5.04985 4.33796 5.04985 9.76093C5.04985 13.4762 7.08731 16.6819 10.1142 18.332C5.26664 19.825 0.639962 23.9256 0.00601547 31.1579C-0.0751543 32.0847 0.675923 32.8789 1.60578 32.8789H27.0746C28.0045 32.8789 28.7566 32.0847 28.6754 31.1589C28.0651 24.2071 23.7692 20.1466 19.1364 18.5139C22.3637 16.9275 24.5717 13.6242 24.5717 9.76093C24.5717 4.33796 20.2337 0 14.8108 0Z"
        fill="url(#paint2_linear_5071_5629)" />
    <defs>
        <linearGradient id="paint0_linear_5071_5629" x1="44.2631" y1="16.5854" x2="18.1747"
            y2="30.526" gradientUnits="userSpaceOnUse">
            <stop stop-color="#D5FF9F" />
            <stop offset="0.219" stop-color="#CAFF85" stop-opacity="0.6" />
            <stop offset="1" stop-color="#E2FF2A" />
        </linearGradient>
        <linearGradient id="paint1_linear_5071_5629" x1="32.6609" y1="26.783" x2="2.55105"
            y2="13.5769" gradientUnits="userSpaceOnUse">
            <stop stop-color="#4EAEFE" stop-opacity="0.2" />
            <stop offset="1" stop-color="#207BC9" />
        </linearGradient>
        <linearGradient id="paint2_linear_5071_5629" x1="9.02203" y1="16.3121" x2="49.0634"
            y2="38.0409" gradientUnits="userSpaceOnUse">
            <stop stop-color="#2062C9" stop-opacity="0.14118" />
            <stop offset="1" stop-color="white" stop-opacity="0.2" />
        </linearGradient>
    </defs>
</svg>
    