<svg width="15" height="21" viewBox="0 0 15 21" fill="none" xmlns="http://www.w3.org/2000/svg">
    <path opacity="0.1" d="M3.08648 14.1444L3.32448 14.1496C3.8206 14.1597 4.27691 14.4235 4.53329 14.8479L4.65666 15.0513C5.05873 15.7154 5.9136 15.9447 6.59391 15.5706L6.80216 15.456C7.2366 15.2167 7.76379 15.2167 8.19823 15.456L8.40647 15.5706C9.08679 15.9447 9.94166 15.7163 10.3437 15.0513L10.4671 14.8479C10.7243 14.4235 11.1802 14.1601 11.6759 14.1496L11.9139 14.1444C12.424 14.1339 12.865 13.8578 13.1148 13.4509L12.1038 11.4581C11.8054 10.8706 11.2025 10.5 10.5432 10.5H4.53548C3.87617 10.5 3.27285 10.8706 2.97492 11.4581L1.92798 13.5222C2.18392 13.8906 2.60567 14.1347 3.08648 14.1444Z" fill="#AD12F5"/>
    <path opacity="0.2" d="M3.08648 14.1444L3.32448 14.1496C3.82061 14.1597 4.27692 14.4235 4.5333 14.8479L4.65667 15.0513C5.05873 15.7154 5.91361 15.9447 6.59392 15.5706L6.80217 15.456C7.23661 15.2167 7.76379 15.2167 8.19823 15.456L8.40648 15.5706C9.08679 15.9447 9.94167 15.7163 10.3437 15.0513L10.4671 14.8479C10.7244 14.4235 11.1802 14.1601 11.6759 14.1496L11.9139 14.1444C12.2941 14.1365 12.6371 13.9812 12.8909 13.7349L11.8111 11.6064C11.5687 11.1291 11.0787 10.8281 10.5432 10.8281C10.1661 10.8281 4.91261 10.8281 4.53548 10.8281C3.99998 10.8281 3.50955 11.1291 3.26761 11.6069L2.16467 13.7808C2.41274 13.9987 2.73167 14.1374 3.08648 14.1444Z" fill="#AD12F5"/>
    <path opacity="0.3" d="M3.08645 14.1444L3.32445 14.1496C3.82058 14.1597 4.27689 14.4235 4.53327 14.8479L4.65664 15.0513C5.0587 15.7154 5.91358 15.9447 6.59389 15.5706L6.80214 15.456C7.23658 15.2167 7.76376 15.2167 8.1982 15.456L8.40645 15.5706C9.08676 15.9447 9.94164 15.7163 10.3437 15.0513L10.4671 14.8479C10.7243 14.4235 11.1802 14.1601 11.6759 14.1496L11.9139 14.1444C12.1746 14.1391 12.4153 14.0604 12.6244 13.9352L11.5184 11.7552C11.332 11.3877 10.9549 11.1562 10.5432 11.1562C9.78895 11.1562 5.2897 11.1562 4.53545 11.1562C4.12333 11.1562 3.7462 11.3877 3.55983 11.7552L2.43677 13.9689C2.63233 14.0731 2.85064 14.1396 3.08645 14.1444Z" fill="#AD12F5"/>
    <path opacity="0.4" d="M3.08643 14.1444L3.32443 14.1496C3.82055 14.1597 4.27687 14.4235 4.53324 14.8479L4.65661 15.0513C5.05868 15.7154 5.91355 15.9447 6.59386 15.5706L6.80211 15.456C7.23655 15.2167 7.76374 15.2167 8.19818 15.456L8.40643 15.5706C9.08674 15.9447 9.94161 15.7163 10.3437 15.0513L10.467 14.8479C10.7243 14.4235 11.1802 14.1601 11.6759 14.1496L11.9139 14.1444C12.0578 14.1413 12.1939 14.1116 12.3247 14.0696L11.2257 11.9035C11.0953 11.6462 10.8315 11.4844 10.5432 11.4844C9.4118 11.4844 5.66636 11.4844 4.53543 11.4844C4.24712 11.4844 3.9833 11.6462 3.85249 11.9035L2.74255 14.091C2.85324 14.1207 2.96699 14.1417 3.08643 14.1444Z" fill="#AD12F5"/>
    <path d="M10.9335 12.0522C10.8587 11.9053 10.7082 11.8125 10.5432 11.8125H9.76622H5.31247H4.53547C4.37053 11.8125 4.22003 11.9053 4.14522 12.0522L1.25991 17.7397C1.11203 18.0307 1.32378 18.375 1.65016 18.375H3.69853C3.83109 18.375 3.95666 18.4354 4.03978 18.5386L5.17466 19.9539C5.37634 20.2055 5.77141 20.16 5.91053 19.8691L7.53934 16.4653L9.16815 19.8691C9.30728 20.16 9.70234 20.2055 9.90403 19.9539L11.0389 18.5386C11.1225 18.4354 11.248 18.375 11.3806 18.375H13.4285C13.7549 18.375 13.9662 18.0307 13.8188 17.7397L10.9335 12.0522Z" fill="url(#paint0_linear_5071_6087)"/>
    <path opacity="0.05" d="M10.9334 12.0522C10.8586 11.9053 10.7081 11.8125 10.5432 11.8125H9.76619H5.31244H4.53544C4.37051 11.8125 4.22001 11.9053 4.14519 12.0522L2.66382 14.9717C2.79507 14.9975 2.92894 15.0167 3.06763 15.0194L3.30607 15.0246C3.50338 15.0286 3.68232 15.1318 3.78469 15.302L3.90763 15.505C4.55513 16.5747 5.92057 16.94 7.01563 16.3371L7.22388 16.2225C7.39669 16.1276 7.60319 16.1276 7.776 16.2225L7.98425 16.3371C9.53956 17.1933 10.765 16.0453 11.0914 15.5059L11.2156 15.3016C11.318 15.1322 11.4974 15.0286 11.6947 15.0246L11.9318 15.0194C12.0959 15.0159 12.2547 14.994 12.4083 14.959L10.9334 12.0522Z" fill="#AD12F5"/>
    <path opacity="0.1" d="M10.9334 12.0522C10.8586 11.9053 10.7081 11.8125 10.5432 11.8125H9.76617H5.31243H4.53543C4.37049 11.8125 4.21999 11.9053 4.14518 12.0522L2.7478 14.8063C2.85368 14.8247 2.96043 14.8422 3.07112 14.8444L3.30955 14.8496C3.5668 14.8549 3.80086 14.9901 3.9343 15.211L4.05724 15.414C4.65574 16.4027 5.9188 16.7409 6.93074 16.1836L7.13899 16.0689C7.36386 15.9451 7.63467 15.9451 7.85999 16.0689L8.06824 16.1836C9.44855 16.9435 10.5996 15.9792 10.9413 15.4144L11.0651 15.2106C11.1985 14.9905 11.433 14.8544 11.6899 14.8496L11.927 14.8444C12.0635 14.8417 12.196 14.8242 12.3251 14.7971L10.9334 12.0522Z" fill="#AD12F5"/>
    <path opacity="0.3" d="M10.9334 12.0522C10.8586 11.9053 10.7081 11.8125 10.5432 11.8125H9.76616H5.31241H4.53541C4.37047 11.8125 4.21997 11.9053 4.14516 12.0522L2.83179 14.6409C2.91229 14.6527 2.99147 14.6681 3.07504 14.6698L3.31347 14.6751C3.63022 14.6812 3.92029 14.8487 4.08435 15.1209L4.20772 15.3239C4.75722 16.2312 5.91835 16.5423 6.84716 16.0309L7.05541 15.9162C7.33278 15.7636 7.66747 15.7636 7.94528 15.9162L8.15353 16.0309C9.35885 16.6941 10.436 15.9141 10.7925 15.3243L10.9163 15.1204C11.0808 14.8492 11.3705 14.6816 11.6872 14.6751L11.9243 14.6698C12.0333 14.6676 12.1383 14.6514 12.242 14.6322L10.9334 12.0522Z" fill="#AD12F5"/>
    <path opacity="0.4" d="M10.9334 12.0522C10.8586 11.9053 10.7081 11.8125 10.5431 11.8125H9.76614H5.31239H4.5354C4.37046 11.8125 4.21996 11.9053 4.14515 12.0522L2.91577 14.4751C2.97046 14.4812 3.02296 14.4935 3.07852 14.4944L3.31696 14.4996C3.69365 14.5071 4.03883 14.707 4.23352 15.0294L4.3569 15.2329C4.8574 16.0593 5.91614 16.3428 6.76227 15.8773L6.97052 15.7627C7.30039 15.5811 7.69896 15.5811 8.02883 15.7627L8.23708 15.8773C9.26739 16.4443 10.2706 15.848 10.642 15.2333L10.7658 15.0294C10.961 14.707 11.3061 14.5075 11.6828 14.4996L11.9204 14.4944C12.0018 14.4926 12.0792 14.4782 12.1575 14.4664L10.9334 12.0522Z" fill="#AD12F5"/>
    <path opacity="0.5" d="M10.9334 12.0522C10.8586 11.9053 10.7081 11.8125 10.5431 11.8125H9.76613H5.31238H4.53538C4.37044 11.8125 4.21994 11.9053 4.14513 12.0522L2.99976 14.3097C3.02776 14.3119 3.05401 14.3189 3.08244 14.3194L3.32044 14.3246C3.75663 14.3334 4.15782 14.5652 4.38313 14.9389L4.50651 15.1423C4.95757 15.8874 5.91482 16.1442 6.67782 15.7242L6.88607 15.6096C7.268 15.3991 7.73132 15.3991 8.11325 15.6096L8.3215 15.7242C9.17681 16.1945 10.1056 15.7824 10.4928 15.1423L10.6162 14.9389C10.8424 14.5657 11.2431 14.3342 11.6789 14.3251L11.9169 14.3198C11.9707 14.3185 12.0214 14.3076 12.0735 14.3014L10.9334 12.0522Z" fill="#AD12F5"/>
    <path d="M10.9335 12.0522C10.8587 11.9053 10.7082 11.8125 10.5432 11.8125H9.76623H5.31249H4.53549C4.37055 11.8125 4.22005 11.9053 4.14524 12.0522L3.08386 14.1444C3.08474 14.1444 3.08561 14.1448 3.08649 14.1448L3.32449 14.1501C3.82061 14.1601 4.27692 14.4239 4.5333 14.8483L4.65667 15.0517C5.05874 15.7159 5.91361 15.9451 6.59392 15.5711L6.80217 15.4564C7.23661 15.2171 7.7638 15.2171 8.19823 15.4564L8.40648 15.5711C9.0868 15.9451 9.94167 15.7167 10.3437 15.0517L10.4671 14.8483C10.7244 14.4239 11.1802 14.1606 11.6759 14.1501L11.9139 14.1448C11.9402 14.1444 11.9647 14.1378 11.9905 14.1356L10.9335 12.0522Z" fill="#AD12F5"/>
    <path d="M14.6421 9.01074C14.4028 8.5763 14.4028 8.04912 14.6421 7.61468L14.7567 7.40643C15.1308 6.72612 14.9024 5.87124 14.2374 5.46918L14.034 5.34581C13.6096 5.08856 13.3462 4.63268 13.3357 4.13699L13.3305 3.89899C13.3147 3.12243 12.6891 2.49681 11.9126 2.48106L11.6746 2.47581C11.1784 2.46575 10.7221 2.20193 10.4657 1.77756L10.3424 1.57412C9.94031 0.909559 9.08544 0.680746 8.40513 1.05481L8.19688 1.16943C7.76244 1.40875 7.23525 1.40875 6.80081 1.16943L6.593 1.05525C5.91269 0.681184 5.05825 0.909996 4.65619 1.57456L4.53282 1.778C4.27557 2.20237 3.81969 2.46575 3.324 2.47625L3.086 2.4815C2.30944 2.49725 1.68382 3.12287 1.66807 3.89943L1.66282 4.13743C1.65276 4.63356 1.38894 5.08987 0.964568 5.34624L0.761131 5.46962C0.0970061 5.87168 -0.132244 6.72656 0.241818 7.40687L0.356443 7.61512C0.595756 8.04955 0.595756 8.57674 0.356443 9.01118L0.242256 9.21899C-0.131806 9.8993 0.0965684 10.7542 0.761568 11.1562L0.965005 11.2796C1.38938 11.5369 1.65276 11.9927 1.66326 12.4884L1.6685 12.7264C1.68425 13.503 2.30988 14.1286 3.08644 14.1444L3.32444 14.1496C3.82057 14.1597 4.27688 14.4235 4.53325 14.8479L4.65663 15.0513C5.05869 15.7154 5.91357 15.9447 6.59388 15.5706L6.80213 15.456C7.23656 15.2167 7.76375 15.2167 8.19819 15.456L8.40644 15.5706C9.08675 15.9447 9.94162 15.7163 10.3437 15.0513L10.4671 14.8479C10.7243 14.4235 11.1802 14.1601 11.6759 14.1496L11.9139 14.1444C12.6904 14.1286 13.3161 13.503 13.3318 12.7264L13.3371 12.4884C13.3471 11.9923 13.6109 11.536 14.0353 11.2796L14.2387 11.1562C14.9029 10.7542 15.1321 9.8993 14.7581 9.21899L14.6421 9.01074Z" fill="url(#paint1_linear_5071_6087)"/>
    <path d="M9.10206 1.09445C9.53694 1.09445 9.93069 1.31626 10.1556 1.6877L10.2789 1.8907C10.576 2.38245 11.0962 2.68301 11.6702 2.69439L11.9086 2.69964C12.5701 2.7132 13.0991 3.2417 13.1122 3.90364L13.1174 4.14164C13.1297 4.7152 13.4298 5.23539 13.9211 5.53289L14.125 5.65626C14.6911 5.99839 14.8845 6.72114 14.566 7.30082L14.4514 7.50907C14.174 8.0122 14.174 8.61288 14.4518 9.11689L14.5673 9.32426C14.8862 9.90395 14.6924 10.6263 14.1263 10.9693L13.9233 11.0926C13.4316 11.3897 13.131 11.9099 13.1196 12.4839L13.1144 12.7223C13.1008 13.3838 12.5723 13.9128 11.9104 13.9259L11.6724 13.9311C11.0988 13.9434 10.5786 14.2435 10.2811 14.7348L10.1578 14.9387C9.93331 15.3101 9.53956 15.5319 9.10469 15.5319C8.89906 15.5319 8.69431 15.4794 8.51319 15.3797L8.30494 15.2651C8.0595 15.1299 7.78169 15.0586 7.50125 15.0586C7.22081 15.0586 6.943 15.1299 6.69756 15.2651L6.48932 15.3797C6.30819 15.4794 6.10388 15.5319 5.89825 15.5319C5.46338 15.5319 5.06963 15.3101 4.84432 14.9387L4.72094 14.7357C4.42388 14.2439 3.90369 13.9434 3.32969 13.932L3.09125 13.9268C2.42975 13.9132 1.90082 13.3847 1.88769 12.7228L1.88244 12.4848C1.87019 11.9112 1.57007 11.391 1.07876 11.0935L0.874881 10.9701C0.308756 10.628 0.115381 9.90526 0.434318 9.32557L0.548506 9.11776C0.825881 8.61464 0.825881 8.01395 0.548506 7.51082L0.433881 7.30257C0.114944 6.72289 0.308756 6.00057 0.874881 5.65757L1.07788 5.5342C1.56963 5.23714 1.87019 4.71695 1.88157 4.14295L1.88682 3.90451C1.90038 3.24301 2.42888 2.71408 3.09082 2.70095L3.32882 2.6957C3.90238 2.68345 4.42257 2.38333 4.72007 1.89201L4.84344 1.68858C5.06832 1.31714 5.46163 1.09533 5.8965 1.09533C6.10213 1.09533 6.30644 1.14783 6.488 1.24758L6.69582 1.36176C6.94125 1.49695 7.21906 1.56826 7.4995 1.56826C7.77994 1.56826 8.05775 1.49695 8.30319 1.36176L8.51144 1.24714C8.69169 1.14695 8.89644 1.09445 9.10206 1.09445ZM9.10206 0.875702C8.86581 0.875702 8.6265 0.933452 8.40513 1.05508L8.19688 1.1697C7.97988 1.28914 7.73925 1.34908 7.49863 1.34908C7.25844 1.34908 7.01781 1.28914 6.80081 1.1697L6.593 1.05551C6.37206 0.933889 6.13275 0.876139 5.8965 0.876139C5.40563 0.876139 4.92788 1.12595 4.65619 1.57483L4.53282 1.77826C4.27557 2.20264 3.81969 2.46601 3.324 2.47651L3.086 2.48176C2.30944 2.49751 1.68382 3.12314 1.66807 3.8997L1.66282 4.1377C1.65276 4.63382 1.38894 5.09014 0.964568 5.34651L0.761131 5.46989C0.0970061 5.87195 -0.132244 6.72682 0.241818 7.40714L0.356443 7.61539C0.595756 8.04982 0.595756 8.57701 0.356443 9.01145L0.242256 9.21926C-0.131806 9.89957 0.0965684 10.7544 0.761568 11.1565L0.965005 11.2799C1.38938 11.5371 1.65276 11.993 1.66326 12.4887L1.6685 12.7267C1.68425 13.5033 2.30988 14.1289 3.08644 14.1446L3.32444 14.1499C3.82057 14.1599 4.27688 14.4238 4.53325 14.8481L4.65663 15.0516C4.92832 15.5 5.40607 15.7503 5.89738 15.7503C6.13363 15.7503 6.37294 15.6925 6.59388 15.5709L6.80213 15.4563C7.01913 15.3368 7.25975 15.2769 7.49994 15.2769C7.74013 15.2769 7.98075 15.3368 8.19819 15.4563L8.40644 15.5709C8.62738 15.6925 8.86713 15.7503 9.10338 15.7503C9.59469 15.7503 10.072 15.5004 10.3437 15.0516L10.4671 14.8481C10.7243 14.4238 11.1802 14.1604 11.6759 14.1499L11.9139 14.1446C12.6904 14.1289 13.3161 13.5033 13.3318 12.7267L13.3371 12.4887C13.3471 11.9926 13.6109 11.5363 14.0353 11.2799L14.2387 11.1565C14.9029 10.7544 15.1321 9.89957 14.7581 9.21926L14.6421 9.01101C14.4028 8.57657 14.4028 8.04939 14.6421 7.61495L14.7567 7.4067C15.1308 6.72639 14.9024 5.87151 14.2374 5.46945L14.034 5.34607C13.6096 5.08882 13.3462 4.63295 13.3357 4.13726L13.3305 3.89926C13.3147 3.1227 12.6891 2.49708 11.9126 2.48133L11.6746 2.47608C11.1784 2.46601 10.7221 2.2022 10.4657 1.77783L10.3424 1.57439C10.0711 1.12595 9.59294 0.875702 9.10206 0.875702Z" fill="url(#paint2_linear_5071_6087)"/>
    <defs>
    <linearGradient id="paint0_linear_5071_6087" x1="7.53934" y1="21.9043" x2="7.53934" y2="13.6172" gradientUnits="userSpaceOnUse">
    <stop stop-color="#97F8FF"/>
    <stop offset="0.125" stop-color="#AD12F5" stop-opacity="0.78824"/>
    <stop offset="0.328" stop-color="#AD12F5" stop-opacity="0.90196"/>
    <stop offset="0.584" stop-color="#AD12F5"/>
    <stop offset="0.88" stop-color="#AD12F5"/>
    <stop offset="1" stop-color="#AD12F5"/>
    </linearGradient>
    <linearGradient id="paint1_linear_5071_6087" x1="7.49994" y1="4.46074" x2="7.49994" y2="19.3357" gradientUnits="userSpaceOnUse">
    <stop stop-color="#FFD700"/>
    <stop offset="1" stop-color="#F4E9FF" stop-opacity="0.5"/>
    </linearGradient>
    <linearGradient id="paint2_linear_5071_6087" x1="7.49994" y1="15.4606" x2="7.49994" y2="0.585639" gradientUnits="userSpaceOnUse">
    <stop stop-color="#EED9FF" stop-opacity="0.2"/>
    <stop offset="1" stop-color="#FFD700"/>
    </linearGradient>
    </defs>
    </svg>
    