<svg width="114" height="56" viewBox="0 0 114 56" fill="none" xmlns="http://www.w3.org/2000/svg">
    <path
        d="M113.792 8.2394C113.792 12.6144 114.417 10.8436 80.7708 44.4894C76.8668 48.389 71.5752 50.5806 66.0572 50.5831H20.0416V20.5831C31.9427 12.4061 40.8749 14.1248 70.4322 14.1248C72.8523 14.1265 75.1349 15.2497 76.6129 17.166C78.0909 19.0823 78.5974 21.5754 77.9843 23.9165L100.198 3.08315C102.357 0.707453 105.749 -0.105906 108.75 1.03256C111.752 2.17102 113.751 5.02958 113.792 8.2394Z"
        fill="#EDB996" />
    <path
        d="M110.979 2.22372C110.276 5.2706 110.979 3.83831 78.1666 36.6768C74.2626 40.5765 68.9711 42.768 63.4531 42.7706H20.0416V20.5831C31.9427 12.406 40.8749 14.1248 70.4322 14.1248C72.2487 14.1273 74.0075 14.7626 75.4062 15.9216C75.4188 15.9817 75.4188 16.0438 75.4062 16.1039C77.6877 18.002 78.6967 21.029 78.0103 23.9164L100.224 3.0831C103.046 0.0560169 107.712 -0.316795 110.979 2.22372Z"
        fill="#F6CCAF" />
    <path d="M20.0417 11.5205H-6V55.7913H20.0417V11.5205Z" fill="#5B9AD8" />
    <path
        d="M20.0417 11.5205C20.0417 49.9059 19.7812 47.9788 20.0417 47.9788C9.97398 47.9788 1.8125 39.8173 1.8125 29.7497V11.5205H20.0417Z"
        fill="#82BCF4" />
    <path
        d="M70.4322 29.75H47.6458C46.2076 29.75 45.0416 28.5841 45.0416 27.1458C45.0416 25.7076 46.2076 24.5417 47.6458 24.5417H70.4322C73.3087 24.5417 75.6406 22.2098 75.6406 19.3333C75.6406 16.4568 73.3087 14.125 70.4322 14.125C72.6135 14.1587 74.6813 15.1029 76.1354 16.7292C78.1754 19.0093 78.6967 22.2703 77.4692 25.0728C76.2418 27.8753 73.4914 29.7033 70.4322 29.75Z"
        fill="#EDB996" />
</svg>
    