<svg width="125" height="326" viewBox="0 0 125 326" fill="none" xmlns="http://www.w3.org/2000/svg">
    <path
        d="M50.0375 81.2318C48.9648 83.0244 48.5995 85.2288 49.0351 87.274C49.1709 87.9012 49.377 88.5517 49.2178 89.1742C49.0491 89.8435 48.4917 90.3302 48.0093 90.8263C45.8874 93.0073 44.7726 96.1291 45.0208 99.1572C45.0911 100.014 45.2644 100.87 45.2035 101.727C45.1333 102.667 44.7726 103.561 44.4213 104.441C43.1659 107.563 41.9059 110.685 40.6506 113.802C39.6669 116.25 38.6646 118.777 38.688 121.412C38.6973 122.413 38.8519 123.443 38.5521 124.398C38.2852 125.25 37.6903 125.952 37.2359 126.719C36.2288 128.418 35.915 130.51 36.3787 132.429C36.5708 133.225 36.8893 134.016 36.8003 134.825C36.641 136.239 35.3108 137.222 34.7721 138.542C33.9899 140.475 35.0578 142.665 36.4068 144.252C37.7558 145.843 39.4468 147.223 40.2337 149.156C41.845 153.111 39.1423 158.007 41.1893 161.76C41.8497 162.973 42.9411 163.899 43.6906 165.06C45.7094 168.2 44.871 172.3 43.9622 175.918C47.6486 176.924 50.5153 180.402 50.801 184.207C50.8525 184.895 50.8431 185.634 51.2366 186.196C51.6535 186.786 52.3983 187.02 53.0587 187.305C56.5249 188.803 58.6609 192.87 57.9348 196.572C63.8789 197.564 68.5443 203.546 68.0571 209.55L67.9447 211.221L70.9144 211.184C74.6944 211.586 78.0529 214.582 78.882 218.289C79.1349 219.412 79.1818 220.605 79.7251 221.621C80.2544 222.608 81.1866 223.296 81.9922 224.078C84.8823 226.891 86.1283 230.986 86.7044 234.974C86.962 236.752 87.5335 238.545 87.5663 240.342C87.6881 246.623 87.2805 252.894 85.0884 258.782C84.0766 261.497 81.4067 264.342 78.8071 265.615C77.6923 266.163 76.4229 266.378 75.3689 267.038C73.1065 268.456 72.2072 271.667 69.6825 272.537C68.4693 272.959 67.1109 272.725 65.8743 273.071C64.5159 273.45 63.448 274.48 62.4175 275.444C58.0801 279.511 53.307 283.11 48.206 286.171C47.5877 283.077 49.4051 280.077 51.1429 277.447C53.3351 274.119 56.108 270.445 60.0895 270.221C61.2512 266.542 64.9375 263.818 68.7972 263.781C68.7878 259.76 71.6685 255.908 75.5329 254.781C74.2588 251.982 75.4626 248.303 78.1419 246.796C74.582 246.506 72.7927 241.166 75.4626 238.793C70.5818 237.852 67.7011 231.459 70.2399 227.186C64.2724 228.473 58.1175 222.037 59.6726 216.14C54.3656 216.276 49.5129 211.259 49.822 205.965C43.3205 205.32 38.5568 197.672 40.8473 191.56C37.8074 192.748 34.0648 191.826 31.9289 189.365C29.7929 186.903 29.4088 183.07 31.0155 180.233C27.76 179.077 25.2868 175.974 24.8934 172.548C24.4999 169.122 26.1909 165.537 29.095 163.67C27.0668 159.149 29.0294 153.233 33.3575 150.813C35.7651 149.47 38.7489 149.091 40.7349 147.181C43.4891 144.532 43.2175 140.053 42.1542 136.384C46.4027 136.861 50.637 133.103 50.6605 128.83C55.4335 127.716 57.5648 120.794 54.2438 117.19C56.7404 117.434 59.3166 115.931 60.3284 113.638C61.0685 111.958 61.0076 110.039 61.5088 108.274C62.1177 106.145 63.5229 104.324 64.2724 102.241C65.0218 100.159 64.8907 97.4255 63.0264 96.218C66.2491 94.3085 69.9635 91.2897 68.9846 87.6765C68.0477 84.2319 63.6447 83.352 60.0801 83.118C56.464 82.8793 52.8432 82.6453 49.2271 82.4066"
        fill="url(#paint0_linear_5065_2159)" />
    <path
        d="M76.9896 89.7031C76.3666 91.1259 75.9685 92.633 75.6546 94.14C75.3408 95.6517 75.1207 97.1775 75.0223 98.7126C74.7975 101.778 74.9052 104.862 75.3314 107.895C75.4111 108.658 75.561 109.407 75.6874 110.165L75.8842 111.293L76.1418 112.412C76.465 113.909 76.8538 115.384 77.3222 116.839C77.7953 118.29 78.3152 119.722 78.8913 121.131C79.4815 122.535 80.1279 123.916 80.8259 125.268C82.2405 127.964 83.8752 130.538 85.6879 132.977C87.51 135.396 89.5382 137.723 91.6695 139.885C93.8101 142.038 96.0678 144.078 98.5457 145.735C99.1359 146.133 99.8572 146.587 100.508 147.064C101.169 147.537 101.811 148.038 102.429 148.557C103.67 149.596 104.836 150.724 105.918 151.922C108.073 154.333 109.895 157.033 111.324 159.94C112.738 162.851 113.741 165.987 114.162 169.225C114.561 172.459 114.401 175.773 113.628 178.932C113.268 180.519 112.72 182.054 112.087 183.538C111.455 185.031 110.654 186.43 109.811 187.801C108.926 189.154 107.942 190.441 106.846 191.634C105.731 192.809 104.499 193.886 103.155 194.794C100.476 196.633 97.3653 197.803 94.1942 198.248C91.0137 198.683 87.7911 198.454 84.7324 197.667C83.2054 197.27 81.7158 196.755 80.2919 196.085C78.8773 195.411 77.5236 194.611 76.2917 193.661C77.6079 194.494 79.0131 195.159 80.4558 195.692C81.8985 196.235 83.3927 196.633 84.8963 196.904C87.9082 197.443 91.0043 197.485 93.96 196.886C96.9156 196.31 99.7214 195.098 102.082 193.291C103.263 192.393 104.354 191.382 105.338 190.268C106.307 189.14 107.169 187.923 107.942 186.645C109.436 184.057 110.598 181.268 111.221 178.375C111.863 175.483 111.937 172.492 111.516 169.572C111.08 166.651 110.176 163.801 108.851 161.138C107.52 158.48 105.82 155.999 103.82 153.785C102.827 152.676 101.759 151.628 100.625 150.664C100.059 150.181 99.4778 149.718 98.8783 149.288C98.2787 148.843 97.6838 148.468 96.9906 147.991C94.3207 146.161 91.9365 144.013 89.749 141.715C87.5662 139.407 85.5568 136.992 83.6925 134.409C82.7744 133.113 81.8891 131.797 81.0882 130.426C80.2919 129.055 79.5377 127.66 78.8539 126.228C77.4955 123.364 76.3619 120.396 75.5469 117.34C75.1394 115.814 74.8115 114.265 74.5539 112.711L74.3478 111.551L74.2026 110.376C74.1136 109.594 73.9871 108.817 73.959 108.026C73.7248 104.886 73.781 101.722 74.2447 98.6143C74.7038 95.5207 75.5188 92.4411 76.9849 89.6891L76.9896 89.7031Z"
        fill="url(#paint1_radial_5065_2159)" />
    <path
        d="M86.3578 70.8604C85.0603 71.6795 83.819 72.5781 82.6105 73.5141C81.402 74.4502 80.2216 75.4237 79.0787 76.4393C76.7835 78.4565 74.6148 80.6094 72.6006 82.8934C70.5865 85.1773 68.7175 87.5877 67.0734 90.1431C66.6425 90.7656 66.2537 91.4208 65.8696 92.0714C65.4902 92.7266 65.0733 93.3631 64.7361 94.0417L63.6775 96.0496L62.7313 98.1136C61.5322 100.884 60.4783 103.725 59.8084 106.664C59.3962 108.115 59.2042 109.613 58.9231 111.092C58.806 111.836 58.7545 112.585 58.6702 113.334C58.5953 114.083 58.4875 114.827 58.4922 115.58C58.2018 121.585 58.9653 127.618 60.6328 133.398C60.8015 134.133 61.0778 134.835 61.3073 135.551L62.0287 137.69C62.2488 138.411 62.572 139.094 62.8531 139.796L63.7196 141.883C63.8695 142.23 63.996 142.585 64.1646 142.922L64.6611 143.938L65.6495 145.974C66.2771 147.341 67.05 148.665 67.762 150.004C70.6802 155.339 73.8747 160.515 77.3877 165.467C79.1302 167.952 80.9804 170.358 82.8681 172.731C84.7839 175.08 86.7465 177.397 88.8028 179.634C92.8827 184.141 97.2763 188.354 101.637 192.697C103.806 194.883 105.956 197.115 107.97 199.507C109.984 201.894 111.853 204.454 113.399 207.224C114.94 209.995 116.158 212.962 116.968 216.023C117.779 219.084 118.228 222.215 118.444 225.342L118.547 227.687C118.584 228.468 118.547 229.245 118.556 230.027C118.551 230.808 118.561 231.585 118.509 232.367C118.462 233.148 118.453 233.935 118.364 234.712C118.102 237.833 117.563 240.946 116.715 243.974C115.867 247.002 114.715 249.946 113.263 252.735C111.802 255.52 110.073 258.16 108.078 260.575C104.101 265.423 99.253 269.481 93.9787 272.743C88.7045 276.024 83.0368 278.584 77.2238 280.639C71.3921 282.656 65.4106 284.177 59.3681 285.296C53.3257 286.41 47.2129 287.159 41.0862 287.346C44.1449 287.121 47.1802 286.723 50.2061 286.251C53.232 285.783 56.2392 285.23 59.2229 284.566C65.1904 283.251 71.0689 281.538 76.7507 279.347C82.4278 277.162 87.9363 274.522 92.9904 271.194C98.0492 267.89 102.663 263.912 106.373 259.203C110.087 254.509 112.804 249.075 114.345 243.323C115.118 240.445 115.596 237.487 115.816 234.51C115.896 233.766 115.891 233.017 115.933 232.273C115.975 231.529 115.956 230.775 115.956 230.022C115.942 229.273 115.966 228.515 115.924 227.771L115.797 225.529C115.554 222.552 115.127 219.594 114.359 216.739C113.591 213.88 112.457 211.142 111.01 208.568C108.12 203.401 103.946 198.992 99.6558 194.681C95.3559 190.361 90.9107 186.074 86.784 181.483C82.6292 176.91 78.7415 172.08 75.2284 166.993C71.706 161.915 68.5161 156.612 65.6167 151.174C64.9047 149.802 64.1459 148.468 63.5088 147.046L62.5111 144.94L62.0146 143.886C61.846 143.535 61.7242 143.166 61.5743 142.805L60.7218 140.634C60.4454 139.908 60.1269 139.197 59.9115 138.448L59.2042 136.225C58.9747 135.481 58.7077 134.751 58.5437 133.988C56.9324 127.974 56.2158 121.688 56.6795 115.463C56.6982 114.682 56.8293 113.914 56.923 113.137C57.0308 112.365 57.1057 111.588 57.2415 110.825C57.5694 109.299 57.8083 107.76 58.2674 106.271C59.0402 103.257 60.1832 100.351 61.5041 97.5472L62.5439 95.4692L63.6962 93.452C64.0616 92.7687 64.5065 92.1369 64.9187 91.4816C65.3356 90.8311 65.7525 90.1805 66.2116 89.5581C67.9728 87.0214 69.9494 84.6391 72.0666 82.4019C76.301 77.9323 81.0788 73.9728 86.3718 70.8698L86.3578 70.8604Z"
        fill="url(#paint2_radial_5065_2159)" />
    <path
        d="M70.7177 84.026C71.3829 85.2241 71.7763 86.5627 72.0339 87.9246C72.2822 89.2913 72.3525 90.6953 72.2822 92.0947C72.0995 94.9029 71.2658 97.6596 70.0479 100.215C68.8113 102.77 67.1531 105.092 65.3029 107.217C63.4434 109.332 61.4011 111.298 59.2136 113.053C54.8434 116.582 50.0469 119.488 45.1099 122.044L43.3674 122.984C42.7913 123.284 42.2432 123.626 41.6858 123.953L40.8521 124.449L40.0417 124.978C39.4984 125.329 38.955 125.68 38.4398 126.064C36.3319 127.552 34.3506 129.205 32.4957 130.983C28.8093 134.559 25.6897 138.687 23.2493 143.156L22.3687 144.851L21.5631 146.582C21.0478 147.771 20.5325 148.974 20.0595 150.191C19.1133 152.625 18.2702 155.1 17.5301 157.618C16.8181 160.141 16.1576 162.682 15.6143 165.252C15.0803 167.826 14.6072 170.419 14.2559 173.03C13.5158 178.254 13.0661 183.533 12.9443 188.84L12.86 192.87L12.7991 195.028C12.771 195.65 12.7523 196.282 12.7476 196.923C12.7195 199.483 12.8647 202.081 13.1036 204.664C13.5954 209.841 14.5791 214.975 16.0312 219.969C17.4739 224.967 19.4552 229.797 21.8816 234.389L22.7903 236.116C23.1182 236.677 23.4695 237.225 23.8067 237.777L24.8279 239.439C25.0012 239.715 25.1604 240 25.3431 240.267L25.9052 241.063L28.1676 244.273C29.0341 245.415 29.8539 246.595 30.6314 247.798C33.737 252.618 36.0931 257.954 37.4327 263.523C38.0978 266.317 38.5241 269.191 38.5615 272.102C38.585 275.009 38.2524 277.953 37.3905 280.761L37.2313 281.285L37.0439 281.8C36.9174 282.141 36.7957 282.488 36.6598 282.829C36.36 283.499 36.093 284.177 35.7324 284.818C35.086 286.129 34.2663 287.336 33.4091 288.497C31.6385 290.781 29.526 292.747 27.2027 294.333C24.8841 295.929 22.3968 297.207 19.8393 298.241C17.2724 299.252 14.6494 300.057 11.9888 300.675C14.5182 299.646 17.0055 298.546 19.3522 297.221C21.7083 295.925 23.9473 294.432 25.9286 292.695C27.9053 290.954 29.6571 289.007 31.0249 286.84C31.6807 285.74 32.2943 284.627 32.7392 283.442C32.9969 282.867 33.1655 282.254 33.3716 281.659L33.6152 280.747L33.737 280.293L33.826 279.829C34.8799 274.901 34.2147 269.715 32.6784 264.824C31.8961 262.372 30.9265 259.971 29.7649 257.682C28.6032 255.389 27.2448 253.194 25.7506 251.102C25.0012 250.058 24.2096 249.038 23.3852 248.05L20.7761 244.713L20.125 243.871C19.9143 243.585 19.7269 243.286 19.5255 242.991L18.3451 241.217C17.9516 240.623 17.5535 240.038 17.1694 239.439L16.1061 237.595C13.2348 232.69 10.963 227.443 9.22988 222.037C7.50614 216.627 6.3773 211.044 5.73558 205.404C5.44985 202.577 5.27654 199.741 5.29059 196.858C5.29059 196.142 5.30931 195.411 5.33742 194.672L5.37959 192.753L5.44983 188.625C5.78709 177.495 7.32349 166.291 10.7475 155.536C11.6141 152.854 12.5931 150.2 13.6938 147.593C14.2419 146.287 14.8274 145.005 15.4503 143.723L16.4434 141.79L17.516 139.904C20.4623 134.924 24.2049 130.44 28.5236 126.654C30.6829 124.754 33.0109 123.064 35.442 121.548C36.0415 121.154 36.6645 120.803 37.2875 120.448L38.2196 119.914L39.1705 119.423C39.8075 119.095 40.4352 118.763 41.091 118.477L43.0068 117.612C45.4472 116.544 47.8641 115.421 50.2015 114.172C52.5669 112.959 54.8247 111.574 57.0262 110.114C61.4058 107.184 65.4013 103.622 68.2399 99.2087C69.6263 96.995 70.6756 94.5519 71.1627 91.9496C71.6499 89.3615 71.6077 86.5954 70.7177 84.0166V84.026Z"
        fill="url(#paint3_linear_5065_2159)" />
    <path
        d="M41.9528 77.9744C41.9528 77.9744 46.0747 88.5471 30.2051 94.725C30.2051 94.725 -8.98655 118.707 2.12407 168.565C2.12407 168.565 8.09626 195.87 29.2074 220.324C29.2074 220.324 63.5978 252.801 54.7262 293.594C54.7262 293.594 45.1473 319.036 27.9755 325.518C27.9755 325.518 50.7354 322.948 58.8763 285.488C58.8763 285.488 64.2864 254.565 34.5332 222.515C34.5332 222.515 -8.80387 176.47 5.3233 134.039C5.3233 134.039 7.03767 115.515 28.9779 98.8577C28.9779 98.8577 47.3863 88.2429 41.9574 77.9744H41.9528Z"
        fill="url(#paint4_radial_5065_2159)" />
    <path
        d="M89.2618 7.35397C72.5069 -2.31076 50.4683 -1.21558 34.0225 8.96399C17.5768 19.1436 6.94862 37.6352 5.06094 56.8711C4.68153 60.737 4.64405 64.7386 5.96496 68.3892C7.28587 72.0398 10.1806 75.316 13.9654 76.2006C16.6681 76.8324 20.0265 76.444 21.6847 78.6671C22.6637 79.9776 22.7058 81.8731 23.8815 83.0104C26.3828 85.4301 30.4814 82.1071 33.9148 82.6828C36.8283 83.1742 38.6832 86.4176 41.5967 86.9043C44.9177 87.4613 47.7844 84.2225 51.1475 84.0775C56.2766 83.8528 59.4196 90.583 64.5393 91.0043C68.0898 91.2944 71.5935 88.3927 74.9707 89.5253C76.1511 89.9231 77.1207 90.7702 78.273 91.2476C81.5612 92.6049 85.3506 90.6298 88.8403 91.3225C93.4728 92.2445 97.4121 97.7017 101.768 95.8717C104.124 94.8795 105.155 92.1369 107.052 90.4239C109.001 88.6688 111.745 88.1025 113.919 86.6282C115.792 85.3552 117.146 83.4644 118.312 81.5267C126.2 68.3846 127.343 50.3749 120.369 36.7226C113.502 23.2856 104.382 13.9485 90.386 7.67691"
        fill="url(#paint5_radial_5065_2159)" />
    <path
        d="M75.8936 21.2778C66.2023 18.6802 55.1994 18.507 45.1848 22.855C35.1703 27.203 27.109 35.5338 22.3172 45.3343C19.2772 51.5497 17.502 58.9164 20.0173 65.3564C21.5209 69.2036 24.4016 72.3394 27.4369 75.1429C29.5634 77.1086 31.8774 79.0041 34.6457 79.8419C38.7442 81.0868 43.2597 79.8512 47.4051 80.9464C53.9159 82.6687 58.8201 89.8997 65.495 89.0433C68.8581 88.6127 72.0527 86.0806 75.3128 87.012C76.5447 87.363 77.5846 88.1774 78.6619 88.8654C87.3696 94.3975 100.532 90.6954 105.075 81.4425C106.242 79.0649 106.883 76.458 107.296 73.8418C109.001 63.035 106.813 51.6573 101.225 42.2453C95.637 32.838 87.5897 25.5134 77.2801 21.83"
        fill="url(#paint6_radial_5065_2159)" />
    <path
        d="M35.1913 65.2378C36.9258 62.9059 36.4854 59.6444 34.2077 57.9529C31.93 56.2615 28.6775 56.7807 26.943 59.1126C25.2086 61.4444 25.6489 64.706 27.9266 66.3974C30.2043 68.0888 33.4569 67.5696 35.1913 65.2378Z"
        fill="url(#paint7_radial_5065_2159)" />
    <path
        d="M91.0463 78.4204C92.7808 76.0885 92.3404 72.827 90.0627 71.1356C87.785 69.4441 84.5325 69.9633 82.798 72.2952C81.0635 74.627 81.5039 77.8886 83.7816 79.58C86.0593 81.2714 89.3118 80.7523 91.0463 78.4204Z"
        fill="url(#paint8_radial_5065_2159)" />
    <path
        d="M83.8191 65.7869C86.1551 65.7869 88.0488 63.7984 88.0488 61.3454C88.0488 58.8924 86.1551 56.9038 83.8191 56.9038C81.4831 56.9038 79.5894 58.8924 79.5894 61.3454C79.5894 63.7984 81.4831 65.7869 83.8191 65.7869Z"
        fill="#200F06" />
    <path
        d="M83.6084 61.1347C84.4258 61.1347 85.0885 60.4726 85.0885 59.6558C85.0885 58.839 84.4258 58.1768 83.6084 58.1768C82.7909 58.1768 82.1282 58.839 82.1282 59.6558C82.1282 60.4726 82.7909 61.1347 83.6084 61.1347Z"
        fill="white" />
    <path
        d="M48.2717 54.3718C50.6077 54.3718 52.5014 52.3833 52.5014 49.9303C52.5014 47.4773 50.6077 45.4887 48.2717 45.4887C45.9357 45.4887 44.042 47.4773 44.042 49.9303C44.042 52.3833 45.9357 54.3718 48.2717 54.3718Z"
        fill="#200F06" />
    <path
        d="M48.9086 49.7196C49.7261 49.7196 50.3888 49.0575 50.3888 48.2407C50.3888 47.4239 49.7261 46.7617 48.9086 46.7617C48.0911 46.7617 47.4285 47.4239 47.4285 48.2407C47.4285 49.0575 48.0911 49.7196 48.9086 49.7196Z"
        fill="white" />
    <defs>
        <linearGradient id="paint0_linear_5065_2159" x1="12.3916" y1="265.522" x2="104.186"
            y2="106.403" gradientUnits="userSpaceOnUse">
            <stop stop-color="#F0A4B2" />
            <stop offset="1" stop-color="#030826" />
        </linearGradient>
        <radialGradient id="paint1_radial_5065_2159" cx="0" cy="0" r="1"
            gradientUnits="userSpaceOnUse"
            gradientTransform="translate(93.7352 144.083) scale(41.7398 41.7058)">
            <stop stop-color="#F5D8AD" />
            <stop offset="1" stop-color="#F0A4B2" />
        </radialGradient>
        <radialGradient id="paint2_radial_5065_2159" cx="0" cy="0" r="1"
            gradientUnits="userSpaceOnUse"
            gradientTransform="translate(79.8235 179.105) scale(82.3132 82.2462)">
            <stop stop-color="#F5D8AD" />
            <stop offset="1" stop-color="#F0A4B2" />
        </radialGradient>
        <linearGradient id="paint3_linear_5065_2159" x1="5.29527" y1="192.355" x2="75.6266"
            y2="192.355" gradientUnits="userSpaceOnUse">
            <stop stop-color="#030826" />
            <stop offset="0.59" stop-color="#906579" />
            <stop offset="1" stop-color="#F0A4B2" />
        </linearGradient>
        <radialGradient id="paint4_radial_5065_2159" cx="0" cy="0" r="1"
            gradientUnits="userSpaceOnUse"
            gradientTransform="translate(29.6992 201.744) scale(90.0513 89.978)">
            <stop stop-color="#F5D8AD" />
            <stop offset="1" stop-color="#F0A4B2" />
        </radialGradient>
        <radialGradient id="paint5_radial_5065_2159" cx="0" cy="0" r="1"
            gradientUnits="userSpaceOnUse"
            gradientTransform="translate(64.9047 48.4654) scale(54.2931 54.2489)">
            <stop stop-color="#B698AC" />
            <stop offset="0.47" stop-color="#B799AD" />
            <stop offset="0.63" stop-color="#BBA0B3" />
            <stop offset="0.75" stop-color="#C2ACBC" />
            <stop offset="0.85" stop-color="#CDBDCA" />
            <stop offset="0.93" stop-color="#DBD3DB" />
            <stop offset="1" stop-color="#EBECF0" />
        </radialGradient>
        <radialGradient id="paint6_radial_5065_2159" cx="0" cy="0" r="1"
            gradientUnits="userSpaceOnUse"
            gradientTransform="translate(63.3403 55.4483) scale(40.5079 40.4749)">
            <stop stop-color="#F5D8AD" />
            <stop offset="1" stop-color="#F0A4B2" />
        </radialGradient>
        <radialGradient id="paint7_radial_5065_2159" cx="0" cy="0" r="1"
            gradientUnits="userSpaceOnUse"
            gradientTransform="translate(31.0688 62.1752) scale(5.20401 5.19977)">
            <stop stop-color="#F5D8AD" />
            <stop offset="1" stop-color="#F0A4B2" />
        </radialGradient>
        <radialGradient id="paint8_radial_5065_2159" cx="0" cy="0" r="1"
            gradientUnits="userSpaceOnUse"
            gradientTransform="translate(86.921 75.3606) scale(5.20401 5.19977)">
            <stop stop-color="#F5D8AD" />
            <stop offset="1" stop-color="#F0A4B2" />
        </radialGradient>
    </defs>
</svg>
    