<svg width="239" height="20" viewBox="0 0 239 20" fill="none" xmlns="http://www.w3.org/2000/svg">
    <path
        d="M-8.85829e-08 19.3902L16.7294 19.3902L16.7294 19.3547L20.5774 15.622L20.5774 11.5822L16.699 7.81402L3.87839 7.81402L3.87839 3.77418L20.5774 3.77418L20.5774 0.000122164L3.84192 0.000122088L3.84192 0.0355592L-1.72417e-08 3.77418L-3.56976e-08 7.81402L3.87839 11.5822L16.699 11.5822L16.699 15.622L-7.13682e-08 15.622L-8.85829e-08 19.3902Z"
        fill="white" />
    <path
        d="M25.0077 19.39L28.8861 19.39L28.8861 3.77406L35.2265 3.77406L35.2265 14.2044L39.1049 14.2044L39.1049 3.77406L45.4088 3.77406L45.4088 19.39L49.2932 19.39L49.2932 3.77406L45.4088 9.32018e-08L28.8861 1.77183e-08L25.0077 3.77406L25.0077 19.39Z"
        fill="white" />
    <path
        d="M53.7217 19.39L57.6001 19.39L57.6001 11.582L71.1137 11.582L71.1137 19.39L74.992 19.39L74.992 3.77406L71.1137 7.94548e-08L57.6001 1.77184e-08L53.7217 3.77406L53.7217 19.39ZM57.6001 7.81389L57.6001 3.77406L71.1137 3.77406L71.1137 7.81389L57.6001 7.81389Z"
        fill="white" />
    <path
        d="M79.4227 19.39L83.3011 19.39L83.3011 3.77406L98.5411 3.77406L98.5411 8.7342e-08L83.3011 1.77183e-08L79.4227 3.77406L79.4227 19.39Z"
        fill="white" />
    <path
        d="M111.32 19.39L115.199 19.39L115.199 3.77406L123.551 3.77406L123.551 9.40072e-08L102.974 0L102.974 3.77406L111.32 3.77406L111.32 19.39Z"
        fill="white" />
    <path
        d="M131.861 19.39L144.335 19.39L144.335 15.6219L131.861 15.6219L131.861 1.77183e-08L127.983 0L127.983 15.6219L131.861 19.39Z"
        fill="white" />
    <path
        d="M148.766 19.39L164.006 19.39L164.006 15.6219L158.328 15.6219L158.328 3.77406L164.006 3.77406L164.006 6.96237e-08L148.766 0L148.766 3.77406L154.444 3.77406L154.444 15.6219L148.766 15.6219L148.766 19.39Z"
        fill="white" />
    <path
        d="M176.785 19.39L180.664 19.39L180.664 3.77406L189.016 3.77406L189.016 9.40073e-08L168.439 0L168.439 3.77406L176.785 3.77406L176.785 19.39Z"
        fill="white" />
    <path
        d="M193.446 19.39L197.324 19.39L197.324 3.77406L212.564 3.77406L212.564 8.7342e-08L197.324 1.77183e-08L193.446 3.77406L193.446 19.39Z"
        fill="white" />
    <path
        d="M220.878 19.39L238.197 19.39L238.197 15.6219L220.878 15.6219L220.878 11.582L233.699 11.582L233.699 7.81389L220.878 7.81389L220.878 3.77406L238.197 3.77406L238.197 9.68399e-08L220.878 1.77183e-08L217 3.77406L217 15.6219L220.878 19.39Z"
        fill="white" />
</svg>
    