<svg width="106" height="132" viewBox="0 0 106 132" fill="none" xmlns="http://www.w3.org/2000/svg">
    <path
        d="M52.9956 132C23.7772 132 0 109.015 0 80.7676C0 56.2815 15.2192 39.2665 49.6115 3.57356C49.9054 3.27505 52.7017 0.307036 53.0045 0L57.7065 4.88699C57.3146 5.29638 54.7054 7.99147 54.3135 8.40085C20.5713 43.42 6.83929 58.7804 6.83929 80.7676C6.83929 105.373 27.5442 125.39 52.9956 125.39C78.447 125.39 99.1607 105.373 99.1607 80.7676C99.1607 60.8785 87.7263 46.2772 61.7584 18.9254L57.6352 23.2921C58.2586 23.9403 58.8642 24.5885 59.4608 25.2196C60.3335 26.1407 61.1795 27.0448 62.0077 27.9318C83.9148 51.3945 93.0695 63.9232 93.0695 80.7676C93.0695 102.124 75.0896 119.497 53.0045 119.497C30.9104 119.497 12.9305 102.124 12.9305 80.7676C12.9305 65.6034 19.4581 54.4136 42.0064 30.8742L44.5088 28.2559L57.6263 41.8678L55.5603 44.1109C33.8135 67.8209 32.7092 73.484 32.7092 80.7676C32.7092 91.5821 41.8105 100.384 53.0045 100.384C64.1895 100.384 73.2908 91.5821 73.2908 80.7676C73.2908 75.0021 72.4181 70.0725 61.5001 56.742L57.4393 61.2878C66.4604 72.4691 67.1995 76.4691 67.1995 80.7676C67.1995 88.3412 60.8322 94.4989 53.0045 94.4989C45.1678 94.4989 38.8005 88.3412 38.8005 80.7676C38.8005 77.6802 39.0943 74.8571 42.7544 69.1684L48.5607 72.6567C45.6487 77.2026 45.6487 78.8571 45.6487 80.7676C45.6487 84.6908 48.9436 87.8806 53.0045 87.8806C57.0564 87.8806 60.3513 84.6908 60.3513 80.7676C60.3513 78.209 60.3513 75.3006 50.3329 63.2751L48.5429 61.1258L61.6426 46.4563L64.2252 49.484C77.7523 65.3646 80.139 72.2217 80.139 80.7676C80.139 95.2324 67.9654 106.994 53.0045 106.994C38.0346 106.994 25.861 95.2324 25.861 80.7676C25.861 70.6013 29.3341 62.9936 48.3826 41.9787L44.5355 37.9872C25.4069 58.2601 19.7787 68.145 19.7787 80.7676C19.7787 98.4819 34.6773 112.887 53.0045 112.887C71.3138 112.887 86.2213 98.4819 86.2213 80.7676C86.2213 67.403 79.9252 56.9979 56.9317 32.3667C56.1035 31.4883 55.2664 30.5928 54.4026 29.6802C53.138 28.3326 51.8379 26.9595 50.4843 25.5352L48.3559 23.3092L61.7406 9.13433L64.2697 11.7868C92.642 41.5096 106 58.0043 106 80.7676C106 109.015 82.2228 132 52.9956 132Z"
        fill="white" />
</svg>
    