<svg width="896" height="877" viewBox="0 0 896 877" fill="none" xmlns="http://www.w3.org/2000/svg">
    <path
        d="M284.843 267.076C336.338 311.433 414.042 305.647 458.399 254.152C502.756 202.656 496.97 124.953 445.475 80.5956C393.979 36.2384 316.276 42.0249 271.919 93.5201C227.561 145.015 233.348 222.719 284.843 267.076Z"
        fill="url(#paint0_linear_272_3411)" />
    <path opacity="0.4"
        d="M414.205 215.962C412.312 190.536 391.214 171.896 365.8 173.799C340.385 175.703 321.309 197.825 323.202 223.251L329.172 303.413C343.751 307.464 359.199 309.259 375.156 308.082C391.21 306.886 406.327 302.772 420.205 296.535L414.205 215.962Z"
        fill="#24DFFC" fill-opacity="0.23137" />
    <path opacity="0.3"
        d="M414.205 215.962C412.312 190.536 391.214 171.896 365.8 173.799C340.385 175.703 321.309 197.826 323.202 223.251L330.083 315.648C344.74 319.28 360.153 320.761 376.012 319.58C391.979 318.391 407.097 314.582 421.127 308.759L414.205 215.962Z"
        fill="#24DFFC" fill-opacity="0.23137" />
    <path opacity="0.2"
        d="M414.205 215.962C412.312 190.536 391.214 171.896 365.8 173.799C340.385 175.703 321.309 197.825 323.202 223.251L330.983 327.732C345.689 331 361.086 332.264 376.858 331.089C392.739 329.907 407.876 326.358 422.008 320.888L414.205 215.962Z"
        fill="#24DFFC" fill-opacity="0.23137" />
    <path opacity="0.1"
        d="M414.205 215.962C412.312 190.536 391.214 171.896 365.8 173.799C340.385 175.703 321.309 197.825 323.202 223.251L331.866 339.599C346.627 342.568 361.976 343.77 377.726 342.598C393.563 341.418 408.662 337.938 422.902 332.743L414.205 215.962Z"
        fill="#24DFFC" fill-opacity="0.23137" />
    <path opacity="0.4"
        d="M374.298 296.562C392.869 295.179 410.033 289.559 425.221 280.979L420.345 215.505C418.194 186.629 394.163 165.502 365.342 167.659C336.554 169.803 314.929 194.908 317.073 223.697L321.924 288.846C338.142 294.979 355.846 297.925 374.298 296.562Z"
        fill="#24DFFC" fill-opacity="0.23137" />
    <path opacity="0.3"
        d="M374.298 296.562C395.32 294.996 414.567 288.044 431.129 277.419L426.484 215.047C424.076 182.701 397.123 159.119 364.885 161.52C332.712 163.916 308.537 191.981 310.933 224.154L315.554 286.2C333.444 294.14 353.395 298.107 374.298 296.562Z"
        fill="#24DFFC" fill-opacity="0.23137" />
    <path opacity="0.2"
        d="M374.298 296.562C397.858 294.807 419.222 286.41 437 273.503L432.612 214.58C429.945 178.763 400.06 152.716 364.428 155.381C328.892 158.027 302.157 189.064 304.794 224.611L309.16 283.252C328.601 293.257 350.89 298.305 374.298 296.562Z"
        fill="#24DFFC" fill-opacity="0.23137" />
    <path opacity="0.1"
        d="M374.298 296.562C400.505 294.61 423.979 284.376 442.828 268.858L438.752 214.123C435.828 174.856 403.009 146.323 363.981 149.229C325.061 152.128 295.766 186.137 298.674 225.045L302.731 279.52C323.605 291.938 348.221 298.504 374.298 296.562Z"
        fill="#24DFFC" fill-opacity="0.23137" />
    <path opacity="0.05"
        d="M374.298 296.562C403.239 294.406 428.963 282.314 448.638 263.975L444.893 213.687C441.71 170.949 405.96 139.951 363.515 143.123C321.233 146.272 289.377 183.253 292.526 225.536L296.258 275.65C318.396 290.679 345.52 298.694 374.298 296.562Z"
        fill="#24DFFC" fill-opacity="0.23137" />
    <path
        d="M323.201 223.23L343.705 498.577C303.916 482.332 270.755 473.948 234.091 476.679C188.077 480.105 158.782 501.08 160.818 528.415C163.115 559.265 190.418 574.662 225.247 578.493C297.126 590.646 381.321 691.716 387.675 698.387C432.332 745.28 480.23 782.092 552.733 776.693C626.95 771.166 687.642 728.001 711.253 671.128C724.531 634.264 720.458 603.591 716.372 548.725L709.517 456.675L706.22 412.397C704.562 390.138 688.01 370.865 665.85 368.283C636.032 364.81 613.218 389.033 615.333 417.431L614.318 403.807C612.66 381.548 596.108 362.275 573.948 359.693C544.13 356.22 520.036 380.538 522.151 408.936L521.136 395.312C519.478 373.053 502.926 353.78 480.766 351.198C450.948 347.725 425.819 371.618 427.934 400.017L414.225 215.939C412.332 190.513 391.234 171.872 365.82 173.776C340.406 175.679 321.309 197.826 323.201 223.23Z"
        fill="url(#paint1_linear_272_3411)" />
    <path
        d="M366.37 181.457C387.305 179.898 404.955 195.305 406.535 216.522L420.244 400.6C420.559 404.83 424.253 408.013 428.484 407.698C432.714 407.383 435.897 403.688 435.582 399.458C434.829 389.348 438.211 379.552 445.098 371.841C451.994 364.117 461.518 359.449 471.931 358.673C474.556 358.478 477.222 358.541 479.863 358.846C497.886 360.951 512.015 376.532 513.446 395.895L514.461 409.519C514.776 413.75 518.47 416.932 522.701 416.617C526.931 416.302 530.114 412.608 529.799 408.377C529.036 398.137 532.311 388.208 539.017 380.422C545.723 372.637 555.058 367.928 565.298 367.165C567.836 366.976 570.448 367.032 573.045 367.341C591.068 369.445 605.197 385.027 606.628 404.39L607.643 418.014C607.958 422.245 611.652 425.427 615.883 425.112C620.113 424.797 623.296 421.102 622.981 416.872C622.21 406.524 625.319 396.574 631.747 388.853C638.154 381.155 647.199 376.5 657.244 375.752C659.76 375.565 662.35 375.623 664.947 375.931C682.97 378.036 697.099 393.617 698.53 412.98L701.829 457.28L708.684 549.33L709.834 564.33C713.349 609.486 715.455 636.74 704.142 668.21C680.845 724.319 621.184 763.905 552.152 769.046C485.051 774.043 440.094 742.302 393.237 693.108C392.765 692.62 391.846 691.565 390.512 690.05C328.296 619.749 271.586 578.554 226.086 570.871C205.597 568.612 170.883 560.028 168.488 527.855C166.78 504.924 193.378 487.433 234.663 484.358C267.01 481.95 297.76 488.135 340.79 505.709C341.915 506.17 343.106 506.344 344.277 506.256C345.687 506.151 347.058 505.667 348.227 504.806C350.39 503.238 351.572 500.663 351.375 498.016L330.87 222.669C329.295 201.517 345.218 183.032 366.37 181.457ZM365.788 173.789C340.362 175.682 321.297 197.815 323.191 223.241L343.695 498.588C303.906 482.343 270.745 473.96 234.081 476.69C188.067 480.117 158.772 501.092 160.808 528.427C163.105 559.276 190.408 574.673 225.237 578.504C297.116 590.658 381.311 691.728 387.665 698.399C432.322 745.291 480.22 782.103 552.723 776.704C626.94 771.177 687.632 728.013 711.243 671.139C724.521 634.276 720.448 603.602 716.362 548.737L709.507 456.687L706.22 412.397C704.562 390.138 688.009 370.865 665.85 368.283C662.714 367.917 659.656 367.861 656.683 368.082C631.496 369.958 613.429 392.016 615.322 417.442L614.308 403.818C612.65 381.56 596.097 362.286 573.938 359.705C570.802 359.338 567.722 359.284 564.728 359.507C539.324 361.399 520.237 383.533 522.13 408.959L521.116 395.335C519.458 373.076 502.905 353.803 480.746 351.221C477.555 350.848 474.41 350.799 471.351 351.027C445.838 352.926 426.025 374.679 427.903 400.051L414.195 215.973C412.312 190.536 391.214 171.896 365.788 173.789Z"
        fill="url(#paint2_linear_272_3411)" />
    <defs>
        <linearGradient id="paint0_linear_272_3411" x1="383.526" y1="375.289" x2="345.47"
            y2="-42.019" gradientUnits="userSpaceOnUse">
            <stop stop-color="#24DFFC" />
            <stop offset="0.159" stop-color="#24F2FC" stop-opacity="0.52941" />
            <stop offset="0.392" stop-color="#24DFFC" />
            <stop offset="0.669" stop-color="#24DFFC" />
            <stop offset="0.979" stop-color="#24DFFC" />
            <stop offset="1" stop-color="#24DFFC" />
        </linearGradient>
        <linearGradient id="paint1_linear_272_3411" x1="402.452" y1="52.8295" x2="438.676"
            y2="539.148" gradientUnits="userSpaceOnUse">
            <stop stop-color="#24DFFC" stop-opacity="0.21961" />
            <stop offset="1" stop-color="#F4805D" stop-opacity="0.47059" />
        </linearGradient>
        <linearGradient id="paint2_linear_272_3411" x1="391.334" y1="-96.4318" x2="432.379"
            y2="454.608" gradientUnits="userSpaceOnUse">
            <stop stop-color="#FFFFF0" stop-opacity="0.30196" />
            <stop offset="1" stop-color="#FF9A83" stop-opacity="0.38824" />
        </linearGradient>
    </defs>
</svg>
    