<svg width="273" height="248" viewBox="0 0 273 248" fill="none" xmlns="http://www.w3.org/2000/svg">
    <path
        d="M71.4452 55.4599C68.0877 63.7098 64.6727 72.2658 64.9605 81.1703C65.1696 87.7229 67.3938 94.0573 70.2422 99.9613C72.1482 103.91 74.3724 107.796 75.1693 112.109C75.8269 115.667 75.4784 119.328 75.0784 122.926C71.8573 152.091 64.906 182.566 44.7339 203.87C39.428 209.474 33.2039 211.232 29.6768 218.096C36.1311 215.638 42.5855 216.408 49.0398 213.95C60.9243 209.422 73.7966 204.834 86.075 208.14C92.9385 209.989 98.905 214.156 104.717 218.245C109.908 221.9 115.095 225.552 120.286 229.207C129.019 235.357 137.898 241.582 147.979 245.101C158.061 248.623 169.688 249.144 179.075 244.052C192.423 236.815 199.717 219.424 214.638 216.608C215.401 216.466 216.235 216.329 216.759 215.757C217.626 214.808 217.074 213.171 216.023 212.438C214.971 211.704 213.623 211.592 212.35 211.417C197.29 209.319 187.014 195.347 179.806 181.957C176.278 175.407 173.027 168.658 170.969 161.508C167.703 150.164 167.527 138.15 164.845 126.654C162.164 115.158 156.134 103.432 145.364 98.5975C139.34 95.894 132.307 95.5697 126.765 91.9842C121.692 88.7019 118.613 83.1797 114.826 78.4698C107.877 69.832 98.005 63.5946 87.2205 61.0305C83.7297 60.2001 79.8207 59.5545 77.5874 56.745"
        fill="url(#paint0_linear_5065_2159)" />
    <path
        d="M166.309 166.924C175.997 190.889 198.396 209.274 223.786 214.099C229.586 215.202 235.625 215.629 241.364 214.241C247.103 212.85 252.537 209.459 255.437 204.315C259.427 197.238 257.576 187.406 251.282 182.266C248.234 179.775 244.025 178.362 240.288 179.59C236.549 180.82 233.87 185.261 235.395 188.892C236.243 190.907 238.51 192.019 240.646 191.998C244.264 191.965 246.203 196.314 243.564 198.79C243.464 198.884 243.361 198.975 243.255 199.063C240.552 201.303 236.628 201.612 233.264 200.603C225.692 198.329 220.938 189.673 222.298 181.884C223.659 174.092 230.416 167.785 238.14 166.1C245.867 164.415 254.194 167.009 260.245 172.098C266.297 177.19 270.185 184.551 271.96 192.256C273.563 199.218 273.433 206.922 269.736 213.035C266.157 218.954 259.749 222.597 253.249 224.964C235.683 231.368 215.623 230.053 198.641 222.221C175.475 211.535 158.379 188.637 154.712 163.387C153.776 156.935 153.87 149.724 158.03 144.705C162.191 139.686 171.642 139.129 174.463 145.005C178.748 153.94 164.215 163.224 167.324 172.634"
        fill="url(#paint1_linear_5065_2159)" />
    <path
        d="M72.1511 75.7118C69.9361 75.3935 68.9028 72.3476 70.0694 70.4382C71.236 68.5288 73.836 67.8802 76.0056 68.4257C78.1752 68.9712 79.9721 70.4776 81.5145 72.099C91.59 82.6827 93.2869 98.6702 92.4869 113.264C91.0082 140.271 85.9719 166.879 71.8905 189.967C67.4058 197.32 60.9788 205.691 54.3396 211.177C47.7004 216.66 37.4704 219.175 28.8616 219.227C18.4679 219.288 8.13492 213.408 3.27144 204.221C-1.59205 195.035 -0.525417 182.912 6.20771 174.992C8.64097 172.128 11.8712 169.761 15.5802 169.152C20.2982 168.373 25.3829 170.801 27.7464 174.959C30.11 179.117 29.5979 184.727 26.5162 188.385C24.7496 190.483 22.0224 191.971 19.3134 191.543C16.6044 191.116 14.2953 188.291 15.0377 185.652C15.7801 183.012 20.0285 182.093 21.3891 184.473C24.0617 182.509 21.2163 177.656 17.9164 177.999C14.6196 178.341 12.4772 181.784 11.9409 185.058C10.7954 192.031 14.9832 199.354 21.3103 202.503C27.6374 205.652 35.5886 204.782 41.4975 200.909C48.2034 196.511 52.0881 188.998 55.5304 181.751C63.5969 164.766 70.8876 147.221 74.2996 128.73C74.2996 128.73 77.2662 113.342 75.0056 93.3269C72.7451 73.3114 72.1572 75.7209 72.1572 75.7209L72.1511 75.7118Z"
        fill="url(#paint2_linear_5065_2159)" />
    <path d="M192.884 141.356C192.884 141.356 229.616 129.151 220.58 94.9302" stroke="#02DDF5"
        stroke-width="11" stroke-miterlimit="10" />
    <path
        d="M57.8607 58.524C61.0424 40.0391 72.5027 23.1393 88.4992 13.3437C94.5535 9.63698 101.172 6.9244 107.935 4.76343C130.555 -2.46507 159.673 0.326316 180.081 12.4708C191.808 19.4508 204.793 33.6653 213.223 44.3974C223.353 57.2935 227.286 65.11 231.928 80.8369C233.728 86.9349 234.092 94.4998 234.804 100.819C238.479 133.409 233.313 166.103 212.889 191.762C208.796 196.905 203.471 201.9 196.908 202.248C193.796 202.412 190.726 201.494 187.823 200.366C173.597 194.841 161.564 183.86 154.767 170.194C152.367 165.372 150.606 160.256 148.313 155.383C137.798 133.031 115.51 116.64 91.0415 113.27C85.9265 112.563 80.657 107.529 75.839 105.665C71.0209 103.801 66.6029 104.605 66.1423 99.4582"
        fill="url(#paint3_linear_5065_2159)" />
    <path
        d="M142.528 80.9187C145.261 81.7491 147.858 82.9948 150.379 84.3526C152.9 85.7225 155.312 87.2864 157.661 88.9473C158.246 89.3656 158.809 89.8111 159.385 90.2445L160.242 90.8992L161.079 91.5811L162.748 92.951C163.297 93.4178 163.827 93.9027 164.37 94.3785L165.179 95.0969L165.582 95.4545L165.97 95.8303L167.515 97.3397L168.288 98.0943L169.03 98.8763L170.518 100.446C174.448 104.665 177.963 109.263 181.133 114.076L182.327 115.879L183.439 117.731L184.551 119.583C184.736 119.892 184.927 120.198 185.102 120.51L185.621 121.459L187.678 125.256L189.581 129.133C190.232 130.418 190.787 131.745 191.366 133.061L192.229 135.037L192.66 136.025C192.799 136.355 192.926 136.692 193.057 137.028L194.605 141.053L194.993 142.059C195.117 142.396 195.226 142.738 195.344 143.078L196.035 145.117L196.72 147.16C196.944 147.842 197.19 148.518 197.381 149.209L198.584 153.34L199.178 155.407L199.696 157.495L200.708 161.672C200.79 162.02 200.884 162.366 200.953 162.717L201.169 163.769L201.599 165.872C201.884 167.276 202.175 168.676 202.441 170.079C202.887 172.907 203.35 175.726 203.768 178.55L204.253 182.809C204.408 184.227 204.596 185.642 204.714 187.064L205.02 191.334C205.108 192.759 205.208 194.18 205.284 195.602C203.387 184.36 201.208 173.21 198.187 162.305L197.002 158.235L196.42 156.198L195.769 154.183L194.469 150.152C194.266 149.476 194.008 148.818 193.772 148.154L193.051 146.166C191.172 140.85 188.978 135.652 186.578 130.569L184.736 126.775L182.748 123.056L182.254 122.126C182.084 121.817 181.902 121.516 181.727 121.213L180.666 119.392L179.606 117.57L178.478 115.791C177.724 114.606 177 113.403 176.181 112.26L174.987 110.524L174.394 109.654L173.766 108.808L172.509 107.12C172.091 106.556 171.675 105.99 171.23 105.447L169.915 103.801C169.479 103.253 169.045 102.698 168.576 102.174C166.757 100.034 164.858 97.9579 162.87 95.9667C162.373 95.4696 161.882 94.9635 161.376 94.4755L159.83 93.0359L159.055 92.3176L158.258 91.6266L156.658 90.2445C154.5 88.4291 152.24 86.7348 149.897 85.1497C149.313 84.7527 148.725 84.3587 148.119 83.9919L147.216 83.4312L146.297 82.8948C145.073 82.1795 143.822 81.5097 142.519 80.9278L142.528 80.9187Z"
        fill="#02DDF5" />
    <path
        d="M164.994 56.2751C165.189 56.2751 165.189 55.972 164.994 55.972C164.8 55.972 164.8 56.2751 164.994 56.2751Z"
        fill="white" />
    <path
        d="M180.488 31.4801C180.682 31.4801 180.682 31.177 180.488 31.177C180.293 31.177 180.293 31.4801 180.488 31.4801Z"
        fill="white" />
    <path
        d="M206.829 76.421C207.024 76.421 207.024 76.1179 206.829 76.1179C206.635 76.1179 206.635 76.421 206.829 76.421Z"
        fill="white" />
    <path
        d="M192.884 35.4899C194.248 35.4899 194.251 33.3683 192.884 33.3683C191.517 33.3683 191.517 35.4899 192.884 35.4899Z"
        fill="white" />
    <path
        d="M160.346 76.421C160.54 76.421 160.54 76.1179 160.346 76.1179C160.151 76.1179 160.151 76.421 160.346 76.421Z"
        fill="white" />
    <path
        d="M159.831 66.089C160.025 66.089 160.025 65.7859 159.831 65.7859C159.636 65.7859 159.636 66.089 159.831 66.089Z"
        fill="white" />
    <path
        d="M172.224 53.1746C172.419 53.1746 172.419 52.8715 172.224 52.8715C172.03 52.8715 172.03 53.1746 172.224 53.1746Z"
        fill="white" />
    <path
        d="M176.873 62.9914C177.067 62.9914 177.067 62.6884 176.873 62.6884C176.678 62.6884 176.678 62.9914 176.873 62.9914Z"
        fill="white" />
    <path
        d="M183.072 85.7195C183.267 85.7195 183.267 85.4164 183.072 85.4164C182.878 85.4164 182.878 85.7195 183.072 85.7195Z"
        fill="white" />
    <path
        d="M206.311 59.3757C206.505 59.3757 206.505 59.0726 206.311 59.0726C206.117 59.0726 206.117 59.3757 206.311 59.3757Z"
        fill="white" />
    <path
        d="M218.708 67.1224C218.902 67.1224 218.902 66.8193 218.708 66.8193C218.513 66.8193 218.513 67.1224 218.708 67.1224Z"
        fill="white" />
    <path
        d="M224.389 84.686C224.584 84.686 224.584 84.3829 224.389 84.3829C224.195 84.3829 224.195 84.686 224.389 84.686Z"
        fill="white" />
    <path
        d="M210.959 84.2587C211.935 84.2587 211.935 82.7433 210.959 82.7433C209.983 82.7433 209.983 84.2587 210.959 84.2587Z"
        fill="white" />
    <path
        d="M71.827 108.02C60.5576 98.3914 54.4306 83.0615 55.9548 68.3166C56.3396 64.5827 57.3002 60.682 59.9486 58.024C61.5516 56.4146 63.6485 55.3963 65.7635 54.5719C73.3633 51.6199 82.8176 65.898 90.8143 67.4862C108.586 71.014 121.141 70.0381 137.219 78.391C141.192 80.455 145.34 82.1796 149.255 84.3587C161.873 91.3811 171.545 102.874 178.615 115.47C185.684 128.063 190.372 141.829 195.02 155.504C197.966 164.169 200.911 172.834 203.856 181.499C204.971 184.782 206.102 188.155 205.987 191.622C205.868 195.09 204.235 198.723 201.114 200.239C198.772 201.378 196.014 201.166 193.441 200.745C179.239 198.411 167.07 190.171 158.785 178.399C152.667 169.703 150.534 160.732 145.649 151.285C135.228 131.127 113.814 114.218 91.1719 112.776C83.5994 112.294 74.7724 111.494 69.724 105.826"
        fill="url(#paint4_linear_5065_2159)" />
    <path
        d="M188.345 132.779C196.638 154.389 205.993 199.605 205.993 199.605C205.993 199.605 182.166 217.293 161.118 183.2C160.855 182.772 160.597 182.348 160.343 181.921C145.467 157.074 142.331 126.92 151.264 99.3733L154.067 87.6259C154.067 87.6259 177.487 104.495 188.342 132.776L188.345 132.779Z"
        fill="url(#paint5_linear_5065_2159)" />
    <g opacity="0.44">
        <path
            d="M158.797 93.3178C159.882 91.375 161.121 89.5293 162.385 87.7017C163.67 85.8893 165.003 84.1071 166.409 82.3826C169.2 78.9154 172.245 75.6421 175.53 72.6113C177.184 71.108 178.89 69.6562 180.681 68.3045C182.481 66.9649 184.345 65.704 186.308 64.6039C188.266 63.4946 190.336 62.5641 192.472 61.861C194.614 61.1821 196.851 60.7274 199.081 60.7759C196.896 61.1972 194.82 61.9095 192.848 62.8308C192.602 62.946 192.351 63.046 192.105 63.1672L191.381 63.5431C190.899 63.7946 190.414 64.0341 189.951 64.322C189.487 64.6069 189.005 64.8554 188.545 65.1464L187.169 66.0192C185.369 67.2376 183.615 68.5288 181.918 69.8957L180.654 70.9352C180.23 71.2777 179.827 71.6475 179.412 71.999L178.79 72.5294L178.181 73.078C177.775 73.4447 177.363 73.8024 176.966 74.1782C173.748 77.1393 170.666 80.2641 167.654 83.4707C164.655 86.6894 161.718 89.9778 158.797 93.3238V93.3178Z"
            fill="#02DDF5" />
    </g>
    <g opacity="0.36">
        <path
            d="M192.884 141.356C196.869 139.18 200.638 136.695 204.208 133.979C207.765 131.248 211.108 128.254 214.044 124.905C215.532 123.25 216.886 121.48 218.141 119.646L218.61 118.958C218.768 118.731 218.926 118.501 219.065 118.258L219.932 116.834C220.213 116.355 220.459 115.858 220.729 115.37C220.862 115.125 221.001 114.885 221.128 114.637L221.489 113.885C223.465 109.887 224.71 105.55 225.419 101.062C225.468 105.605 224.583 110.218 222.783 114.467C221.919 116.607 220.819 118.649 219.577 120.595C218.332 122.538 216.941 124.39 215.404 126.108C213.862 127.821 212.232 129.448 210.499 130.957C208.747 132.446 206.938 133.858 205.032 135.128C203.138 136.416 201.165 137.577 199.147 138.638C197.114 139.671 195.041 140.638 192.884 141.356Z"
            fill="#02DDF5" />
    </g>
    <path
        d="M179.972 20.9359C180.557 20.9359 180.557 20.0266 179.972 20.0266C179.387 20.0266 179.387 20.9359 179.972 20.9359Z"
        fill="#02DDF5" />
    <path
        d="M189.269 26.1003C189.854 26.1003 189.854 25.1911 189.269 25.1911C188.684 25.1911 188.684 26.1003 189.269 26.1003Z"
        fill="url(#paint6_linear_5065_2159)" />
    <g opacity="0.47">
        <path
            d="M202.181 161.502C203.747 161.135 205.262 160.647 206.738 160.071C208.214 159.499 209.641 158.835 211.017 158.089C213.768 156.595 216.316 154.771 218.544 152.607C219.665 151.534 220.716 150.385 221.674 149.154C222.177 148.56 222.604 147.906 223.074 147.281L223.719 146.303L224.044 145.815C224.15 145.651 224.244 145.478 224.344 145.311C225.974 142.626 227.304 139.744 228.489 136.746C228.034 139.938 227.043 143.069 225.595 146.002C225.504 146.184 225.419 146.372 225.322 146.554L225.025 147.091C224.822 147.448 224.625 147.806 224.416 148.157C223.971 148.845 223.544 149.549 223.044 150.203C222.571 150.876 222.038 151.503 221.51 152.137C221.241 152.449 220.95 152.743 220.671 153.046C220.395 153.352 220.098 153.64 219.801 153.922C217.435 156.219 214.638 158.062 211.638 159.377C210.135 160.029 208.583 160.559 206.999 160.926C205.411 161.278 203.799 161.541 202.181 161.508V161.502Z"
            fill="#02DDF5" />
    </g>
    <path
        d="M103.523 111.412C99.0595 141.871 102.132 175.989 112.392 205.012C115.014 212.429 121.047 219.766 125.777 226.052C136.386 240.155 155.473 247.653 172.633 243.537C189.793 239.421 203.656 223.379 204.262 205.74C204.402 201.7 204.477 197.545 202.602 193.965C200.996 190.901 198.19 185.685 195.729 183.254C191.608 179.181 186.769 177.623 181.033 176.802C175.363 175.992 169.603 178.935 165.957 183.351C161.264 189.04 159.894 197.842 164.173 203.849C166.267 206.792 169.791 208.901 173.381 208.543C176.975 208.183 180.245 204.849 179.842 201.26C179.439 197.672 174.669 195.18 171.806 197.381C170.86 192.547 176.545 188.304 181.354 189.358C186.163 190.416 189.448 195.123 190.49 199.936C192.238 207.992 188.557 216.951 181.651 221.449C175.933 225.173 168.612 225.81 161.924 224.449C155.24 223.088 149.073 219.897 143.21 216.408C136.895 212.65 131.928 208.325 127.983 202.124C125.441 198.126 124.313 193.55 122.953 189.013C117.898 172.146 116.323 156.916 117.395 137.055C117.75 130.482 121.416 114.918 120.313 108.429C119.865 105.799 114.492 112.015 112.032 110.981C109.571 109.945 105.399 105.402 106.229 107.938"
        fill="url(#paint7_linear_5065_2159)" />
    <path
        d="M116.723 112.591C124.307 111.791 130.843 104.571 135.955 96.6577C139.855 90.6234 142.446 81.9947 142.419 74.8086C142.401 70.6352 141.976 66.3799 140.313 62.552C136.331 53.3959 124.771 48.3647 115.356 51.6865C111.114 53.1868 107.274 56.1388 102.781 56.3752C93.7596 56.851 87.7628 46.6159 79.0206 44.3459C73.3905 42.885 67.1634 45.1218 63.1302 49.3164C59.097 53.5111 57.1243 59.406 56.9546 65.2221C56.9546 65.2221 55.9123 100.261 75.1692 112.103C94.4262 123.947 116.723 112.588 116.723 112.588V112.591Z"
        fill="url(#paint8_linear_5065_2159)" />
    <path
        d="M124.71 83.9526C129.346 83.9526 133.104 79.2549 133.104 73.4599C133.104 67.665 129.346 62.9672 124.71 62.9672C120.075 62.9672 116.317 67.665 116.317 73.4599C116.317 79.2549 120.075 83.9526 124.71 83.9526Z"
        fill="#030826" />
    <path
        d="M123.677 66.786C125.431 66.786 125.434 64.0583 123.677 64.0583C121.919 64.0583 121.919 66.786 123.677 66.786Z"
        fill="white" />
    <path
        d="M125.84 91.0568C133.596 91.0568 139.882 83.0346 139.882 73.1386C139.882 63.2427 133.596 55.2205 125.84 55.2205C118.085 55.2205 111.798 63.2427 111.798 73.1386C111.798 83.0346 118.085 91.0568 125.84 91.0568Z"
        fill="url(#paint9_linear_5065_2159)" />
    <path
        d="M125.68 84.9224C131.029 84.9224 135.364 79.5015 135.364 72.8143C135.364 66.1272 131.029 60.7062 125.68 60.7062C120.331 60.7062 115.995 66.1272 115.995 72.8143C115.995 79.5015 120.331 84.9224 125.68 84.9224Z"
        fill="#030826" />
    <path
        d="M125.356 70.0715C127.494 70.0715 129.228 68.4811 129.228 66.5193C129.228 64.5576 127.494 62.9672 125.356 62.9672C123.217 62.9672 121.483 64.5576 121.483 66.5193C121.483 68.4811 123.217 70.0715 125.356 70.0715Z"
        fill="url(#paint10_linear_5065_2159)" />
    <path
        d="M123.162 67.0891C125.307 67.0891 125.31 63.7552 123.162 63.7552C121.013 63.7552 121.013 67.0891 123.162 67.0891Z"
        fill="url(#paint11_linear_5065_2159)" />
    <path
        d="M124.195 67.0891C126.34 67.0891 126.343 63.7552 124.195 63.7552C122.047 63.7552 122.047 67.0891 124.195 67.0891Z"
        fill="white" />
    <defs>
        <linearGradient id="paint0_linear_5065_2159" x1="79.8025" y1="247.041" x2="163.252"
            y2="102.531" gradientUnits="userSpaceOnUse">
            <stop stop-color="#36077B" />
            <stop offset="0.13" stop-color="#390A7A" />
            <stop offset="0.26" stop-color="#42167A" />
            <stop offset="0.39" stop-color="#512A7A" />
            <stop offset="0.52" stop-color="#66457A" />
            <stop offset="0.65" stop-color="#82697A" />
            <stop offset="0.78" stop-color="#A39579" />
            <stop offset="0.9" stop-color="#CAC779" />
            <stop offset="1" stop-color="#EDF479" />
        </linearGradient>
        <linearGradient id="paint1_linear_5065_2159" x1="154.231" y1="184.909" x2="272.936"
            y2="184.909" gradientUnits="userSpaceOnUse">
            <stop stop-color="#D61A52" />
            <stop offset="0.44" stop-color="#D71C4F" />
            <stop offset="0.65" stop-color="#DA2348" />
            <stop offset="0.81" stop-color="#E02F3B" />
            <stop offset="0.94" stop-color="#E94129" />
            <stop offset="1" stop-color="#EF4C1E" />
        </linearGradient>
        <linearGradient id="paint2_linear_5065_2159" x1="0.259407" y1="143.732" x2="92.6596"
            y2="143.732" gradientUnits="userSpaceOnUse">
            <stop stop-color="#6E1F90" />
            <stop offset="0.11" stop-color="#71248F" />
            <stop offset="0.25" stop-color="#79328D" />
            <stop offset="0.4" stop-color="#884B8B" />
            <stop offset="0.56" stop-color="#9C6D87" />
            <stop offset="0.72" stop-color="#B69982" />
            <stop offset="0.89" stop-color="#D6CE7D" />
            <stop offset="1" stop-color="#EDF479" />
        </linearGradient>
        <linearGradient id="paint3_linear_5065_2159" x1="243.367" y1="141.135" x2="64.9942"
            y2="38.1726" gradientUnits="userSpaceOnUse">
            <stop stop-color="#D61A52" />
            <stop offset="0.04" stop-color="#C7275B" />
            <stop offset="0.24" stop-color="#8B5F86" />
            <stop offset="0.42" stop-color="#598FA9" />
            <stop offset="0.6" stop-color="#32B3C5" />
            <stop offset="0.76" stop-color="#16CED8" />
            <stop offset="0.9" stop-color="#05DEE4" />
            <stop offset="1" stop-color="#00E4E9" />
        </linearGradient>
        <linearGradient id="paint4_linear_5065_2159" x1="55.7245" y1="127.63" x2="205.999"
            y2="127.63" gradientUnits="userSpaceOnUse">
            <stop offset="0.3" stop-color="#723EB1" />
            <stop offset="0.74" stop-color="#4647AC" />
        </linearGradient>
        <linearGradient id="paint5_linear_5065_2159" x1="146.291" y1="145.908" x2="205.996"
            y2="145.908" gradientUnits="userSpaceOnUse">
            <stop offset="0.3" stop-color="#723EB1" />
            <stop offset="0.74" stop-color="#4647AC" />
        </linearGradient>
        <linearGradient id="paint6_linear_5065_2159" x1="188.829" y1="25.6457" x2="189.708"
            y2="25.6457" gradientUnits="userSpaceOnUse">
            <stop stop-color="#D61A52" />
            <stop offset="0.04" stop-color="#C7275B" />
            <stop offset="0.24" stop-color="#8B5F86" />
            <stop offset="0.42" stop-color="#598FA9" />
            <stop offset="0.6" stop-color="#32B3C5" />
            <stop offset="0.76" stop-color="#16CED8" />
            <stop offset="0.9" stop-color="#05DEE4" />
            <stop offset="1" stop-color="#00E4E9" />
        </linearGradient>
        <linearGradient id="paint7_linear_5065_2159" x1="101.532" y1="175.923" x2="204.323"
            y2="175.923" gradientUnits="userSpaceOnUse">
            <stop stop-color="#EDF479" />
            <stop offset="0.01" stop-color="#E3E47A" />
            <stop offset="0.06" stop-color="#CBBB7F" />
            <stop offset="0.11" stop-color="#B49583" />
            <stop offset="0.17" stop-color="#A17586" />
            <stop offset="0.23" stop-color="#915A89" />
            <stop offset="0.29" stop-color="#84448B" />
            <stop offset="0.38" stop-color="#7A338D" />
            <stop offset="0.47" stop-color="#73278F" />
            <stop offset="0.61" stop-color="#6F208F" />
            <stop offset="1" stop-color="#6E1F90" />
        </linearGradient>
        <linearGradient id="paint8_linear_5065_2159" x1="99.6836" y1="117.501" x2="99.6836"
            y2="43.9003" gradientUnits="userSpaceOnUse">
            <stop stop-color="#EDF479" />
            <stop offset="0.01" stop-color="#E3E47A" />
            <stop offset="0.06" stop-color="#CBBB7F" />
            <stop offset="0.11" stop-color="#B49583" />
            <stop offset="0.17" stop-color="#A17586" />
            <stop offset="0.23" stop-color="#915A89" />
            <stop offset="0.29" stop-color="#84448B" />
            <stop offset="0.38" stop-color="#7A338D" />
            <stop offset="0.47" stop-color="#73278F" />
            <stop offset="0.61" stop-color="#6F208F" />
            <stop offset="1" stop-color="#6E1F90" />
        </linearGradient>
        <linearGradient id="paint9_linear_5065_2159" x1="125.84" y1="55.2205" x2="125.84"
            y2="91.0568" gradientUnits="userSpaceOnUse">
            <stop stop-color="#850579" />
            <stop offset="0.39" stop-color="#A70768" />
            <stop offset="0.78" stop-color="#C2095B" />
            <stop offset="1" stop-color="#CC0A57" />
        </linearGradient>
        <linearGradient id="paint10_linear_5065_2159" x1="121.483" y1="66.5193" x2="129.228"
            y2="66.5193" gradientUnits="userSpaceOnUse">
            <stop stop-color="#D61A52" />
            <stop offset="0.04" stop-color="#C7275B" />
            <stop offset="0.24" stop-color="#8B5F86" />
            <stop offset="0.42" stop-color="#598FA9" />
            <stop offset="0.6" stop-color="#32B3C5" />
            <stop offset="0.76" stop-color="#16CED8" />
            <stop offset="0.9" stop-color="#05DEE4" />
            <stop offset="1" stop-color="#00E4E9" />
        </linearGradient>
        <linearGradient id="paint11_linear_5065_2159" x1="121.55" y1="65.4222" x2="124.771"
            y2="65.4222" gradientUnits="userSpaceOnUse">
            <stop stop-color="#D61A52" />
            <stop offset="0.04" stop-color="#C7275B" />
            <stop offset="0.24" stop-color="#8B5F86" />
            <stop offset="0.42" stop-color="#598FA9" />
            <stop offset="0.6" stop-color="#32B3C5" />
            <stop offset="0.76" stop-color="#16CED8" />
            <stop offset="0.9" stop-color="#05DEE4" />
            <stop offset="1" stop-color="#00E4E9" />
        </linearGradient>   
    </defs>
</svg>
    