<svg width="17" height="30" viewBox="0 0 17 30" fill="none" xmlns="http://www.w3.org/2000/svg">
    <path
        d="M10.4497 13.3307H6.17804C5.58286 13.3307 5.14962 12.7661 5.30368 12.1912L8.43957 0.488059C8.51668 0.200176 8.77757 0 9.07557 0H13.8582C14.2911 0 14.6062 0.410706 14.4942 0.828882L11.3241 12.6598C11.2181 13.0555 10.8594 13.3307 10.4497 13.3307Z"
        fill="url(#paint0_linear_5079_3625)" />
    <path
        d="M13.803 3.40941L11.3242 12.66C11.2177 13.0553 10.8595 13.3306 10.4495 13.3306H6.17769C5.58298 13.3306 5.14945 12.7659 5.30357 12.1912L8.43945 0.488235C8.51651 0.2 8.77769 0 9.07533 0H10.3936L12.3642 1.97059L13.803 3.40941Z"
        fill="url(#paint1_linear_5079_3625)" />
    <path
        d="M14.4942 0.828882L11.3241 12.6598C11.218 13.0555 10.8594 13.3307 10.4497 13.3307H9.3208L12.8927 0H13.8581C14.2911 0 14.6062 0.410706 14.4942 0.828882Z"
        fill="url(#paint2_linear_5079_3625)" />
    <path
        d="M13.803 3.40953L11.3242 12.6601C11.2177 13.0554 10.8595 13.3307 10.4495 13.3307H9.32068L12.3642 1.9707L13.803 3.40953Z"
        fill="url(#paint3_linear_5079_3625)" />
    <path
        d="M9.07557 0H10.3939L6.82192 13.3307H6.17804C5.58286 13.3307 5.14962 12.7661 5.30368 12.1912L8.43957 0.488059C8.51668 0.200176 8.77757 0 9.07557 0Z"
        fill="url(#paint4_linear_5079_3625)" />
    <path
        d="M11.4314 17.5573H5.19882C4.86241 17.5573 4.56894 17.329 4.48612 17.0029L3.64653 13.6957C3.45859 12.9554 3.61977 12.1849 4.08877 11.582C4.55777 10.9791 5.26482 10.6333 6.02871 10.6333H10.6016C11.3654 10.6333 12.0725 10.9791 12.5415 11.582C13.0105 12.1849 13.1716 12.9554 12.9837 13.6957L12.1441 17.0029C12.0613 17.3289 11.7678 17.5573 11.4314 17.5573ZM5.77082 16.0867H10.8595L11.5584 13.3338C11.6338 13.0365 11.5691 12.7271 11.3807 12.4849C11.1923 12.2427 10.9084 12.1038 10.6015 12.1038H6.02865C5.72188 12.1038 5.43788 12.2427 5.24947 12.4849C5.06106 12.7271 4.99641 13.0365 5.07188 13.3339L5.77082 16.0867Z"
        fill="url(#paint5_linear_5079_3625)" />
    <path
        d="M10.6017 10.6333H10.1682V12.1039H10.6017C10.9085 12.1039 11.1925 12.2428 11.3809 12.4849C11.5692 12.7271 11.634 13.0365 11.5585 13.3339L10.8596 16.0868H10.1682V17.5574H11.4316C11.768 17.5574 12.0614 17.3291 12.1442 17.003L12.9838 13.6958C13.1717 12.9554 13.0106 12.185 12.5416 11.5821C12.0726 10.9791 11.3656 10.6333 10.6017 10.6333Z"
        fill="url(#paint6_linear_5079_3625)" />
    <path
        d="M8.31524 30.0001C12.9076 30.0001 16.6305 26.2772 16.6305 21.6849C16.6305 17.0925 12.9076 13.3696 8.31524 13.3696C3.72286 13.3696 0 17.0925 0 21.6849C0 26.2772 3.72286 30.0001 8.31524 30.0001Z"
        fill="url(#paint7_linear_5079_3625)" />
    <path
        d="M8.31532 28.3125C11.9758 28.3125 14.9431 25.3452 14.9431 21.6847C14.9431 18.0243 11.9758 15.0569 8.31532 15.0569C4.65488 15.0569 1.6875 18.0243 1.6875 21.6847C1.6875 25.3452 4.65488 28.3125 8.31532 28.3125Z"
        fill="url(#paint8_linear_5079_3625)" />
    <path
        d="M8.3153 27.3747C11.4578 27.3747 14.0054 24.8272 14.0054 21.6847C14.0054 18.5422 11.4578 15.9946 8.3153 15.9946C5.17277 15.9946 2.62524 18.5422 2.62524 21.6847C2.62524 24.8272 5.17277 27.3747 8.3153 27.3747Z"
        fill="url(#paint9_linear_5079_3625)" />
    <path
        d="M6.18098 13.3307H10.4527C11.0479 13.3307 10.7558 12.7661 10.6017 12.1912L8.19116 0.488059C8.11404 0.200176 7.85316 0 7.55516 0H2.77257C2.33963 0 2.02451 0.410706 2.13657 0.828882L5.30663 12.6598C5.41263 13.0555 5.77127 13.3307 6.18098 13.3307Z"
        fill="url(#paint10_linear_5079_3625)" />
    <path
        d="M5.3067 12.6598C5.41276 13.0556 5.77134 13.3307 6.18105 13.3307H10.4528C11.0479 13.3307 11.4812 12.7662 11.3271 12.1913L9.9834 7.17651H3.8374L5.3067 12.6598Z"
        fill="url(#paint11_linear_5079_3625)" />
    <path
        d="M2.13657 0.828882L5.30663 12.6598C5.41269 13.0555 5.77128 13.3307 6.18098 13.3307H7.30992L3.73804 0H2.77263C2.33963 0 2.02451 0.410706 2.13657 0.828882Z"
        fill="url(#paint12_linear_5079_3625)" />
    <path
        d="M7.55523 0H6.23694L9.80888 13.3307H10.4528C11.0479 13.3307 11.4812 12.7661 11.3271 12.1912L8.19123 0.488059C8.11411 0.200176 7.85323 0 7.55523 0Z"
        fill="url(#paint13_linear_5079_3625)" />
    <path
        d="M6.7037 24.2599L11.7178 29.274C13.5565 28.4484 15.0406 26.9741 15.8792 25.1425L9.77599 19.0393H7.27599L6.4917 20.5001L9.33976 23.3481V23.9021L6.7037 24.2599Z"
        fill="url(#paint14_linear_5079_3625)" />
    <path
        d="M9.07075 22.8875V22.7271C9.07075 22.1616 8.72469 22.0519 8.26046 22.0519C7.97346 22.0519 7.88063 21.7986 7.88063 21.5454C7.88063 21.2922 7.97346 21.039 8.26046 21.039C8.58122 21.039 8.91881 20.9967 8.91881 20.3131C8.91881 19.8235 8.64028 19.7053 8.29422 19.7053C7.88063 19.7053 7.66958 19.8066 7.66958 20.1358C7.66958 20.4228 7.54299 20.6169 7.0534 20.6169C6.44563 20.6169 6.36969 20.4903 6.36969 20.0852C6.36969 19.4268 6.8424 18.5742 8.29422 18.5742C9.36622 18.5742 10.1765 18.9625 10.1765 20.102C10.1765 20.7182 9.94858 21.2922 9.52658 21.4863C10.0246 21.672 10.3876 22.0435 10.3876 22.7272V22.8875C10.3876 24.2718 9.43375 24.7952 8.25205 24.7952C6.80022 24.7952 6.24316 23.9089 6.24316 23.1999C6.24316 22.82 6.40358 22.7187 6.86781 22.7187C7.40805 22.7187 7.54305 22.8369 7.54305 23.1576C7.54305 23.5544 7.9144 23.6472 8.29428 23.6472C8.86816 23.6472 9.07075 23.4362 9.07075 22.8875Z"
        fill="url(#paint15_linear_5079_3625)" />
    <path
        d="M0 21.6847C0 26.277 3.72282 29.9999 8.31524 29.9999C12.9076 29.9999 16.6305 26.277 16.6305 21.6847C16.6305 21.6524 16.6296 21.6203 16.6293 21.5881H0.00117672C0.000823781 21.6203 0 21.6524 0 21.6847Z"
        fill="url(#paint16_linear_5079_3625)" />
    <path
        d="M7.30986 13.3306H6.18103C5.77103 13.3306 5.4128 13.0553 5.30633 12.66L3.83691 7.17651H5.66103L7.30986 13.3306Z"
        fill="url(#paint17_linear_5079_3625)" />
    <path
        d="M10.4529 13.3306H9.80874L8.15991 7.17651H9.98344L11.327 12.1912C11.4811 12.7659 11.0476 13.3306 10.4529 13.3306Z"
        fill="url(#paint18_linear_5079_3625)" />
    <defs>
        <linearGradient id="paint0_linear_5079_3625" x1="11.3475" y1="3.31676" x2="9.8081"
            y2="6.74188" gradientUnits="userSpaceOnUse">
            <stop stop-color="#F9F5F3" />
            <stop offset="1" stop-color="#D8E8F0" />
        </linearGradient>
        <linearGradient id="paint1_linear_5079_3625" x1="11.8237" y1="5.68641" x2="9.7061"
            y2="6.706" gradientUnits="userSpaceOnUse">
            <stop stop-color="#678D98" stop-opacity="0" />
            <stop offset="0.9957" stop-color="#678D98" stop-opacity="0.996" />
            <stop offset="1" stop-color="#678D98" />
        </linearGradient>
        <linearGradient id="paint2_linear_5079_3625" x1="11.7547" y1="6.69765" x2="9.20568"
            y2="8.34471" gradientUnits="userSpaceOnUse">
            <stop stop-color="#FD4755" />
            <stop offset="1" stop-color="#A72B2B" />
        </linearGradient>
        <linearGradient id="paint3_linear_5079_3625" x1="11.7052" y1="7.539" x2="9.86203"
            y2="9.02917" gradientUnits="userSpaceOnUse">
            <stop stop-color="#A72B2B" stop-opacity="0" />
            <stop offset="1" stop-color="#42210B" />
        </linearGradient>
        <linearGradient id="paint4_linear_5079_3625" x1="12.0299" y1="1.80412" x2="10.1867"
            y2="3.92176" gradientUnits="userSpaceOnUse">
            <stop stop-color="#B3DAFE" />
            <stop offset="1" stop-color="#0182FC" />
        </linearGradient>
        <linearGradient id="paint5_linear_5079_3625" x1="8.31512" y1="12.4705" x2="8.31512"
            y2="15.7647" gradientUnits="userSpaceOnUse">
            <stop stop-color="#FBC56D" />
            <stop offset="1" stop-color="#C5715A" />
        </linearGradient>
        <linearGradient id="paint6_linear_5079_3625" x1="12.9136" y1="14.1681" x2="10.8842"
            y2="14.1092" gradientUnits="userSpaceOnUse">
            <stop stop-color="#8C3D27" stop-opacity="0" />
            <stop offset="1" stop-color="#8C3D27" />
        </linearGradient>
        <linearGradient id="paint7_linear_5079_3625" x1="3.18853" y1="16.5582" x2="11.9582"
            y2="25.3278" gradientUnits="userSpaceOnUse">
            <stop stop-color="#FBC56D" />
            <stop offset="1" stop-color="#C5715A" />
        </linearGradient>
        <linearGradient id="paint8_linear_5079_3625" x1="12.62" y1="25.9894" x2="3.88497"
            y2="17.2544" gradientUnits="userSpaceOnUse">
            <stop stop-color="#FBC56D" />
            <stop offset="1" stop-color="#C5715A" />
        </linearGradient>
        <linearGradient id="paint9_linear_5079_3625" x1="4.17883" y1="17.5482" x2="10.9877"
            y2="24.357" gradientUnits="userSpaceOnUse">
            <stop stop-color="#FBC56D" />
            <stop offset="1" stop-color="#C5715A" />
        </linearGradient>
        <linearGradient id="paint10_linear_5079_3625" x1="6.0068" y1="5.20676" x2="8.07539"
            y2="9.03753" gradientUnits="userSpaceOnUse">
            <stop stop-color="#F9F5F3" />
            <stop offset="1" stop-color="#D8E8F0" />
        </linearGradient>
        <linearGradient id="paint11_linear_5079_3625" x1="7.59793" y1="12.0393" x2="7.59793"
            y2="13.3726" gradientUnits="userSpaceOnUse">
            <stop stop-color="#678D98" stop-opacity="0" />
            <stop offset="0.9957" stop-color="#678D98" stop-opacity="0.996" />
            <stop offset="1" stop-color="#678D98" />
        </linearGradient>
        <linearGradient id="paint12_linear_5079_3625" x1="3.24533" y1="4.47059" x2="9.24533"
            y2="13.4118" gradientUnits="userSpaceOnUse">
            <stop stop-color="#B3DAFE" />
            <stop offset="1" stop-color="#0182FC" />
        </linearGradient>
        <linearGradient id="paint13_linear_5079_3625" x1="6.09959" y1="2.55529" x2="12.0996"
            y2="11.4965" gradientUnits="userSpaceOnUse">
            <stop stop-color="#FD4755" />
            <stop offset="1" stop-color="#A72B2B" />
        </linearGradient>
        <linearGradient id="paint14_linear_5079_3625" x1="13.2273" y1="25.2741" x2="6.31905"
            y2="22.1619" gradientUnits="userSpaceOnUse">
            <stop stop-color="#8C3D27" stop-opacity="0" />
            <stop offset="1" stop-color="#8C3D27" />
        </linearGradient>
        <linearGradient id="paint15_linear_5079_3625" x1="6.19858" y1="20.6167" x2="9.66916"
            y2="22.3815" gradientUnits="userSpaceOnUse">
            <stop stop-color="#FBC56D" />
            <stop offset="1" stop-color="#C5715A" />
        </linearGradient>
        <linearGradient id="paint16_linear_5079_3625" x1="8.31524" y1="24.1175" x2="8.31524"
            y2="29.5754" gradientUnits="userSpaceOnUse">
            <stop stop-color="#8C3D27" stop-opacity="0" />
            <stop offset="1" stop-color="#8C3D27" />
        </linearGradient>
        <linearGradient id="paint17_linear_5079_3625" x1="5.57339" y1="11.0981" x2="5.57339"
            y2="13.451" gradientUnits="userSpaceOnUse">
            <stop stop-color="#0182FC" stop-opacity="0" />
            <stop offset="1" stop-color="#024C67" />
        </linearGradient>
        <linearGradient id="paint18_linear_5079_3625" x1="9.75915" y1="11.0981" x2="9.75915"
            y2="13.451" gradientUnits="userSpaceOnUse">
            <stop stop-color="#A72B2B" stop-opacity="0" />
            <stop offset="1" stop-color="#42210B" />
        </linearGradient>
    </defs>
</svg>
    