<svg width="37" height="31" viewBox="0 0 37 31" fill="none" xmlns="http://www.w3.org/2000/svg">
    <path opacity="0.1"
        d="M21.9166 10.375V20.625C21.9166 21.0948 21.5323 21.4791 21.0625 21.4791H15.9375C15.4677 21.4791 15.0833 21.0948 15.0833 20.625V18.9166H12.5208C12.461 18.9166 12.4098 18.9166 12.35 18.9081V12.0748C12.4098 12.0833 12.461 12.0833 12.5208 12.0833H15.0833V10.375C15.0833 9.9052 15.4677 9.52082 15.9375 9.52082H21.0625C21.5323 9.52082 21.9166 9.9052 21.9166 10.375Z"
        fill="#118BEF" />
    <path opacity="0.2"
        d="M21.9167 10.375V20.625C21.9167 21.0948 21.5323 21.4791 21.0625 21.4791H15.9375C15.4677 21.4791 15.0833 21.0948 15.0833 20.625V18.9166H13.0333V12.0833H15.0833V10.375C15.0833 9.9052 15.4677 9.52082 15.9375 9.52082H21.0625C21.5323 9.52082 21.9167 9.9052 21.9167 10.375Z"
        fill="#118BEF" />
    <path opacity="0.3"
        d="M21.9167 10.375V20.625C21.9167 21.0948 21.5323 21.4791 21.0625 21.4791H15.9375C15.4677 21.4791 15.0833 21.0948 15.0833 20.625V18.9166H13.7167V12.0833H15.0833V10.375C15.0833 9.9052 15.4677 9.52082 15.9375 9.52082H21.0625C21.5323 9.52082 21.9167 9.9052 21.9167 10.375Z"
        fill="#118BEF" />
    <path opacity="0.4"
        d="M21.9166 10.375V20.625C21.9166 21.0948 21.5322 21.4791 21.0625 21.4791H15.9375C15.4677 21.4791 15.0833 21.0948 15.0833 20.625V18.9166H14.4V12.0833H15.0833V10.375C15.0833 9.9052 15.4677 9.52082 15.9375 9.52082H21.0625C21.5322 9.52082 21.9166 9.9052 21.9166 10.375Z"
        fill="#118BEF" />
    <path
        d="M35.5833 25.75H34.7291V22.3333C34.7291 16.6728 30.1397 12.0833 24.4791 12.0833H21.9166V10.375C21.9166 9.90349 21.534 9.52082 21.0625 9.52082H15.9375C15.466 9.52082 15.0833 9.90349 15.0833 10.375V20.625C15.0833 21.0965 15.466 21.4791 15.9375 21.4791H21.0625C21.534 21.4791 21.9166 21.0965 21.9166 20.625V18.9166H24.4791C26.366 18.9166 27.8958 20.4465 27.8958 22.3333V25.75H27.0416C26.5701 25.75 26.1875 26.1326 26.1875 26.6041V30.0208C26.1875 30.4923 26.5701 30.875 27.0416 30.875H35.5833C36.0548 30.875 36.4375 30.4923 36.4375 30.0208V26.6041C36.4375 26.1326 36.0548 25.75 35.5833 25.75Z"
        fill="url(#paint0_linear_5071_5612)" />
    <path opacity="0.05"
        d="M23.625 12.0833V18.9166H21.9166V20.625C21.9166 21.0948 21.5323 21.4791 21.0625 21.4791H15.9375C15.4677 21.4791 15.0833 21.0948 15.0833 20.625V10.375C15.0833 9.9052 15.4677 9.52082 15.9375 9.52082H21.0625C21.5323 9.52082 21.9166 9.9052 21.9166 10.375V12.0833H23.625Z"
        fill="#118BEF" />
    <path opacity="0.1"
        d="M23.2833 12.0833V18.9166H21.9166V20.625C21.9166 21.0948 21.5323 21.4791 21.0625 21.4791H15.9375C15.4677 21.4791 15.0833 21.0948 15.0833 20.625V10.375C15.0833 9.9052 15.4677 9.52082 15.9375 9.52082H21.0625C21.5323 9.52082 21.9166 9.9052 21.9166 10.375V12.0833H23.2833Z"
        fill="#118BEF" />
    <path opacity="0.2"
        d="M22.9416 12.0833V18.9166H21.9166V20.625C21.9166 21.0948 21.5323 21.4791 21.0625 21.4791H15.9375C15.4677 21.4791 15.0833 21.0948 15.0833 20.625V10.375C15.0833 9.9052 15.4677 9.52082 15.9375 9.52082H21.0625C21.5323 9.52082 21.9166 9.9052 21.9166 10.375V12.0833H22.9416Z"
        fill="#118BEF" />
    <path opacity="0.3"
        d="M22.6 12.0833V18.9166H21.9166V20.625C21.9166 21.0948 21.5323 21.4791 21.0625 21.4791H15.9375C15.4677 21.4791 15.0833 21.0948 15.0833 20.625V10.375C15.0833 9.9052 15.4677 9.52082 15.9375 9.52082H21.0625C21.5323 9.52082 21.9166 9.9052 21.9166 10.375V12.0833H22.6Z"
        fill="#118BEF" />
    <path opacity="0.4"
        d="M22.2583 12.0833V18.9166H21.9166V20.625C21.9166 21.0948 21.5323 21.4791 21.0625 21.4791H15.9375C15.4677 21.4791 15.0833 21.0948 15.0833 20.625V10.375C15.0833 9.9052 15.4677 9.52082 15.9375 9.52082H21.0625C21.5323 9.52082 21.9166 9.9052 21.9166 10.375V12.0833H22.2583Z"
        fill="#118BEF" />
    <path
        d="M1.41667 5.24999H2.27083V8.66666C2.27083 14.3272 6.86027 18.9167 12.5208 18.9167H15.0833V20.625C15.0833 21.0965 15.466 21.4791 15.9375 21.4791H21.0625C21.534 21.4791 21.9167 21.0965 21.9167 20.625V10.375C21.9167 9.90349 21.534 9.52082 21.0625 9.52082H15.9375C15.466 9.52082 15.0833 9.90349 15.0833 10.375V12.0833H12.5208C10.634 12.0833 9.10416 10.5535 9.10416 8.66666V5.24999H9.95833C10.4298 5.24999 10.8125 4.86733 10.8125 4.39583V0.979162C10.8125 0.507663 10.4298 0.124996 9.95833 0.124996H1.41667C0.945166 0.124996 0.5625 0.507663 0.5625 0.979162V4.39583C0.5625 4.86733 0.945166 5.24999 1.41667 5.24999Z"
        fill="url(#paint1_linear_5071_5612)" />
    <path
        d="M9.95833 0.552079C10.1941 0.552079 10.3854 0.743412 10.3854 0.979162V4.39583C10.3854 4.63158 10.1941 4.82291 9.95833 4.82291H9.10416C8.86841 4.82291 8.67708 5.01424 8.67708 5.24999V8.66666C8.67708 10.7858 10.4016 12.5104 12.5208 12.5104H15.0833C15.3191 12.5104 15.5104 12.3191 15.5104 12.0833V10.375C15.5104 10.1392 15.7017 9.94791 15.9375 9.94791H21.0625C21.2982 9.94791 21.4896 10.1392 21.4896 10.375V20.625C21.4896 20.8607 21.2982 21.0521 21.0625 21.0521H15.9375C15.7017 21.0521 15.5104 20.8607 15.5104 20.625V18.9167C15.5104 18.6809 15.3191 18.4896 15.0833 18.4896H12.5208C7.10456 18.4896 2.69792 14.0829 2.69792 8.66666V5.24999C2.69792 5.01424 2.50658 4.82291 2.27083 4.82291H1.41667C1.18092 4.82291 0.989583 4.63158 0.989583 4.39583V0.979162C0.989583 0.743412 1.18092 0.552079 1.41667 0.552079H9.95833ZM9.95833 0.124996H1.41667C0.945166 0.124996 0.5625 0.507663 0.5625 0.979162V4.39583C0.5625 4.86733 0.945166 5.24999 1.41667 5.24999H2.27083V8.66666C2.27083 14.3272 6.86027 18.9167 12.5208 18.9167H15.0833V20.625C15.0833 21.0965 15.466 21.4791 15.9375 21.4791H21.0625C21.534 21.4791 21.9167 21.0965 21.9167 20.625V10.375C21.9167 9.90349 21.534 9.52082 21.0625 9.52082H15.9375C15.466 9.52082 15.0833 9.90349 15.0833 10.375V12.0833H12.5208C10.634 12.0833 9.10416 10.5535 9.10416 8.66666V5.24999H9.95833C10.4298 5.24999 10.8125 4.86733 10.8125 4.39583V0.979162C10.8125 0.507663 10.4298 0.124996 9.95833 0.124996Z"
        fill="url(#paint2_linear_5071_5612)" />
    <defs>
        <linearGradient id="paint0_linear_5071_5612" x1="25.7288" y1="-0.910257" x2="25.7894"
            y2="46.004" gradientUnits="userSpaceOnUse">
            <stop stop-color="#97F8FF" />
            <stop offset="0.217" stop-color="#6ADCFE" />
            <stop offset="0.467" stop-color="#3CC1FD" />
            <stop offset="0.69" stop-color="#1BADFD" />
            <stop offset="0.875" stop-color="#07A0FC" />
            <stop offset="1" stop-color="#009CFC" />
        </linearGradient>
        <linearGradient id="paint1_linear_5071_5612" x1="11.2396" y1="18.9004" x2="11.2396"
            y2="2.08531" gradientUnits="userSpaceOnUse">
            <stop stop-color="#837B89" stop-opacity="0.6" />
            <stop offset="1" stop-color="#C8ACDA" stop-opacity="0.4" />
        </linearGradient>
        <linearGradient id="paint2_linear_5071_5612" x1="11.2396" y1="19.5376" x2="11.2396"
            y2="-1.59529" gradientUnits="userSpaceOnUse">
            <stop stop-color="#F6E9FF" stop-opacity="0.1" />
            <stop offset="1" stop-color="#837B89" stop-opacity="0.6" />
        </linearGradient>
    </defs>
</svg>
    