<svg width="111" height="76" viewBox="0 0 111 76" fill="none" xmlns="http://www.w3.org/2000/svg">
    <path
        d="M20.7595 58.6662V62.551L46.3603 62.5473V52.1462C46.3603 48.2701 46.2477 43.5246 41.9472 39.2173V39.2027L27.09 24.235C26.0462 23.186 24.7187 22.4647 23.2706 22.1595C21.8225 21.8544 20.3168 21.9787 18.9384 22.5172V7.33887C18.9323 5.49782 18.1981 3.73394 16.8962 2.4322C15.5943 1.13045 13.8303 0.396538 11.9892 0.390625C11.0951 0.395848 10.2121 0.58968 9.39792 0.959456C8.58378 1.32923 7.85682 1.86663 7.26455 2.53653C6.21183 3.79085 5.46716 5.27406 5.09007 6.8676C3.93255 11.1875 2.12991 22.0749 0.69891 27.4054C0.241075 29.6996 0.383881 32.0731 1.11348 34.2958C1.84307 36.5185 3.13469 38.5149 4.86307 40.0914L19.4774 54.7005C20.0339 55.1634 20.4382 55.7829 20.6378 56.4787C20.7592 57.2009 20.8 57.935 20.7595 58.6662Z"
        fill="#FDD5A6" />
    <path
        d="M18.9368 18.7007C16.9527 19.1884 15.1392 20.2081 13.6916 21.65C11.5844 23.7764 10.4022 26.649 10.4022 29.6427C10.4022 32.6363 11.5844 35.5089 13.6916 37.6353L24.4319 48.3792C24.6003 48.5549 24.802 48.6951 25.0254 48.7918C25.2487 48.8885 25.4891 48.9396 25.7324 48.9421C25.9757 48.9447 26.2171 48.8987 26.4424 48.8067C26.6677 48.7148 26.8724 48.5788 27.0445 48.4067C27.2165 48.2346 27.3525 48.0299 27.4445 47.8046C27.5364 47.5793 27.5824 47.3379 27.5798 47.0946C27.5773 46.8513 27.5261 46.6109 27.4295 46.3876C27.3328 46.1643 27.1925 45.9625 27.0168 45.7941L16.2766 35.0502C14.85 33.612 14.0495 31.6683 14.0495 29.6426C14.0495 27.6169 14.85 25.6732 16.2766 24.235C17.0325 23.4825 17.939 22.8984 18.9366 22.5211L18.9368 18.7007Z"
        fill="#FDCA99" />
    <path
        d="M17.1015 60.7153C16.6167 60.7173 16.1525 60.9117 15.811 61.2558C15.4695 61.6 15.2787 62.0657 15.2805 62.5505V73.5086C15.2787 73.9934 15.4695 74.4592 15.811 74.8033C16.1525 75.1475 16.6167 75.3419 17.1015 75.3439H50.0149C50.4997 75.3429 50.9644 75.1493 51.3065 74.8057C51.6487 74.4622 51.8403 73.9967 51.8393 73.5119V62.5505C51.8412 62.0656 51.6503 61.5999 51.3087 61.2557C50.9671 60.9115 50.5028 60.7172 50.0179 60.7153H17.1015Z"
        fill="#68B1FC" />
    <path
        d="M103.726 2.54002C104.778 3.79431 105.523 5.27753 105.9 6.87108C107.058 11.1909 108.86 22.0784 110.291 27.4088C110.749 29.7029 110.606 32.0765 109.877 34.2992C109.147 36.5219 107.856 38.5183 106.127 40.0949L91.5131 54.7052C90.9572 55.1685 90.553 55.7878 90.3526 56.4832C90.2312 57.2048 90.1904 57.9377 90.231 58.6684V62.5531L64.6301 62.5495V52.1484C64.6301 48.2723 64.7435 43.5268 69.0433 39.2195V39.2049L83.9005 24.2372C84.9444 23.1882 86.2718 22.4668 87.7199 22.1617C89.168 21.8565 90.6737 21.9809 92.0521 22.5194V7.34109C92.0582 5.50005 92.7923 3.73617 94.0943 2.43445C95.3962 1.13273 97.1602 0.398879 99.0012 0.393066C99.8954 0.398428 100.778 0.592356 101.592 0.96218C102.407 1.332 103.133 1.87013 103.726 2.54002Z"
        fill="#FDD5A6" />
    <path
        d="M92.0535 18.7007C94.0377 19.1884 95.8512 20.2081 97.2987 21.65C99.4059 23.7764 100.588 26.649 100.588 29.6427C100.588 32.6363 99.4059 35.5089 97.2987 37.6353L86.5585 48.3792C86.39 48.5547 86.1883 48.6948 85.965 48.7913C85.7417 48.8878 85.5014 48.9388 85.2582 48.9413C85.015 48.9437 84.7737 48.8977 84.5485 48.8057C84.3233 48.7138 84.1188 48.5778 83.9468 48.4058C83.7748 48.2338 83.6388 48.0293 83.5469 47.8041C83.4549 47.5789 83.4089 47.3376 83.4114 47.0944C83.4138 46.8511 83.4648 46.6109 83.5613 46.3876C83.6578 46.1643 83.7979 45.9626 83.9734 45.7941L94.7136 35.0502C96.1402 33.612 96.9407 31.6683 96.9407 29.6426C96.9407 27.6169 96.1402 25.6732 94.7136 24.235C93.9578 23.4825 93.0513 22.8984 92.0536 22.5211L92.0535 18.7007Z"
        fill="#FDCA99" />
    <path
        d="M93.8888 60.7153C94.3736 60.7173 94.8378 60.9117 95.1793 61.2558C95.5208 61.6 95.7116 62.0657 95.7098 62.5505V73.5086C95.7116 73.9934 95.5208 74.4592 95.1794 74.8033C94.8379 75.1475 94.3737 75.3419 93.8888 75.3439H60.9754C60.4905 75.3429 60.0259 75.1493 59.6837 74.8057C59.3415 74.4621 59.1499 73.9967 59.1509 73.5118V62.5505C59.1491 62.0656 59.3399 61.5999 59.6815 61.2557C60.0231 60.9115 60.4874 60.7172 60.9723 60.7153H93.8888Z"
        fill="#68B1FC" />
    <path
        d="M50.0182 60.7153H42.7058C43.1906 60.7172 43.6549 60.9116 43.9965 61.2558C44.3381 61.5999 44.5289 62.0657 44.5271 62.5506V73.5119C44.5281 73.9967 44.3364 74.4622 43.9942 74.8057C43.652 75.1493 43.1874 75.3429 42.7025 75.3439H50.015C50.4999 75.3429 50.9645 75.1493 51.3066 74.8057C51.6488 74.4621 51.8405 73.9967 51.8395 73.5119V62.5507C51.8413 62.0658 51.6505 61.6 51.309 61.2558C50.9674 60.9116 50.5031 60.7172 50.0182 60.7153Z"
        fill="#539FFB" />
    <path
        d="M93.8906 60.7153H86.5781C87.063 60.7172 87.5273 60.9116 87.8688 61.2558C88.2104 61.5999 88.4013 62.0657 88.3994 62.5506V73.5119C88.4004 73.9968 88.2087 74.4622 87.8665 74.8058C87.5244 75.1493 87.0597 75.3429 86.5748 75.3439H93.8873C94.3722 75.3429 94.8368 75.1493 95.179 74.8057C95.5211 74.4621 95.7128 73.9967 95.7118 73.5119V62.5507C95.7136 62.0658 95.5228 61.6 95.1813 61.2558C94.8398 60.9117 94.3755 60.7172 93.8906 60.7153Z"
        fill="#539FFB" />
</svg>
    