<svg width="16" height="22" viewBox="0 0 16 22" fill="none" xmlns="http://www.w3.org/2000/svg">
    <path opacity="0.1" d="M3.37626 14.8179L3.6256 14.8234C4.14535 14.834 4.62339 15.1103 4.89197 15.5549L5.02122 15.768C5.44243 16.4638 6.33801 16.704 7.05072 16.3121L7.26889 16.192C7.72401 15.9413 8.2763 15.9413 8.73143 16.192L8.94959 16.3121C9.6623 16.704 10.5579 16.4647 10.9791 15.768L11.1083 15.5549C11.3778 15.1103 11.8554 14.8344 12.3747 14.8234L12.624 14.8179C13.1585 14.8069 13.6205 14.5177 13.8822 14.0915L12.823 12.0037C12.5104 11.3882 11.8788 11 11.1881 11H4.89426C4.20356 11 3.57151 11.3882 3.25939 12.0037L2.1626 14.1662C2.43072 14.5521 2.87256 14.8078 3.37626 14.8179Z" fill="#AD12F5"/>
    <path opacity="0.2" d="M3.37635 14.8179L3.62569 14.8234C4.14544 14.834 4.62348 15.1103 4.89206 15.5549L5.02131 15.768C5.44252 16.4638 6.3381 16.704 7.05081 16.3121L7.26898 16.192C7.7241 15.9413 8.27639 15.9413 8.73152 16.192L8.94968 16.3121C9.66239 16.704 10.558 16.4647 10.9792 15.768L11.1084 15.5549C11.3779 15.1103 11.8555 14.8344 12.3748 14.8234L12.6241 14.8179C13.0224 14.8097 13.3818 14.647 13.6476 14.3889L12.5164 12.1591C12.2625 11.6591 11.7492 11.3438 11.1882 11.3438C10.7931 11.3438 5.28943 11.3438 4.89435 11.3438C4.33335 11.3438 3.81956 11.6591 3.5661 12.1596L2.41064 14.437C2.67052 14.6653 3.00464 14.8106 3.37635 14.8179Z" fill="#AD12F5"/>
    <path opacity="0.3" d="M3.3763 14.8179L3.62564 14.8234C4.14539 14.834 4.62343 15.1103 4.89201 15.5549L5.02126 15.768C5.44247 16.4638 6.33805 16.704 7.05076 16.3121L7.26893 16.192C7.72405 15.9413 8.27634 15.9413 8.73147 16.192L8.94963 16.3121C9.66234 16.704 10.5579 16.4647 10.9791 15.768L11.1084 15.5549C11.3779 15.1103 11.8555 14.8344 12.3748 14.8234L12.6241 14.8179C12.8973 14.8124 13.1493 14.7299 13.3684 14.5988L12.2098 12.315C12.0145 11.93 11.6194 11.6875 11.1881 11.6875C10.398 11.6875 5.68447 11.6875 4.8943 11.6875C4.46255 11.6875 4.06747 11.93 3.87222 12.315L2.69568 14.6341C2.90055 14.7432 3.12926 14.8129 3.3763 14.8179Z" fill="#AD12F5"/>
    <path opacity="0.4" d="M3.37636 14.8179L3.6257 14.8234C4.14545 14.834 4.62349 15.1103 4.89207 15.5549L5.02132 15.768C5.44253 16.4638 6.33811 16.704 7.05082 16.3121L7.26899 16.192C7.72411 15.9413 8.2764 15.9413 8.73153 16.192L8.94969 16.3121C9.6624 16.704 10.558 16.4647 10.9792 15.768L11.1084 15.5549C11.3779 15.1103 11.8555 14.8344 12.3748 14.8234L12.6242 14.8179C12.7749 14.8147 12.9175 14.7835 13.0545 14.7395L11.9032 12.4703C11.7666 12.2008 11.4902 12.0312 11.1882 12.0312C10.0029 12.0312 6.07915 12.0312 4.89436 12.0312C4.59232 12.0312 4.31595 12.2008 4.1789 12.4703L3.01611 14.762C3.13207 14.7932 3.25124 14.8152 3.37636 14.8179Z" fill="#AD12F5"/>
    <path d="M11.597 12.6262C11.5186 12.4722 11.3609 12.375 11.1881 12.375H10.3741H5.70829H4.89429C4.7215 12.375 4.56384 12.4722 4.48546 12.6262L1.46276 18.5845C1.30784 18.8893 1.52967 19.25 1.87159 19.25H4.0175C4.15638 19.25 4.28792 19.3132 4.375 19.4214L5.56392 20.9041C5.77521 21.1677 6.18909 21.12 6.33484 20.8152L8.04121 17.2494L9.74758 20.8152C9.89333 21.12 10.3072 21.1677 10.5185 20.9041L11.7074 19.4214C11.795 19.3132 11.9265 19.25 12.0654 19.25H14.2108C14.5527 19.25 14.7741 18.8893 14.6197 18.5845L11.597 12.6262Z" fill="url(#paint0_linear_5071_5887)"/>
    <path opacity="0.05" d="M11.597 12.6262C11.5186 12.4722 11.361 12.375 11.1882 12.375H10.3742H5.70834H4.89434C4.72155 12.375 4.56388 12.4722 4.48551 12.6262L2.93359 15.6846C3.07109 15.7117 3.21134 15.7318 3.35664 15.7346L3.60643 15.7401C3.81313 15.7442 4.00059 15.8524 4.10784 16.0307L4.23663 16.2433C4.91497 17.364 6.34542 17.7467 7.49263 17.1151L7.7108 16.995C7.89184 16.8955 8.10817 16.8955 8.28922 16.995L8.50738 17.1151C10.1368 18.012 11.4205 16.8094 11.7625 16.2442L11.8926 16.0302C11.9999 15.8528 12.1878 15.7442 12.3945 15.7401L12.6429 15.7346C12.8148 15.7309 12.9812 15.708 13.142 15.6713L11.597 12.6262Z" fill="#AD12F5"/>
    <path opacity="0.1" d="M11.597 12.6262C11.5186 12.4722 11.361 12.375 11.1882 12.375H10.3742H5.70835H4.89436C4.72156 12.375 4.5639 12.4722 4.48552 12.6262L3.02161 15.5114C3.13252 15.5306 3.24436 15.549 3.36031 15.5512L3.61011 15.5567C3.87961 15.5622 4.12481 15.7039 4.26461 15.9353L4.3934 16.148C5.0204 17.1838 6.3436 17.5381 7.40373 16.9542L7.6219 16.8341C7.85748 16.7044 8.14119 16.7044 8.37723 16.8341L8.59539 16.9542C10.0414 17.7503 11.2473 16.7402 11.6053 16.1485L11.735 15.9349C11.8748 15.7043 12.1204 15.5618 12.3895 15.5567L12.6379 15.5512C12.7809 15.5485 12.9198 15.5302 13.055 15.5017L11.597 12.6262Z" fill="#AD12F5"/>
    <path opacity="0.3" d="M11.597 12.6262C11.5187 12.4722 11.361 12.375 11.1882 12.375H10.3742H5.70837H4.89437C4.72158 12.375 4.56391 12.4722 4.48554 12.6262L3.10962 15.3381C3.19395 15.3505 3.27691 15.3665 3.36445 15.3684L3.61424 15.3739C3.94608 15.3803 4.24995 15.5558 4.42183 15.8409L4.55108 16.0536C5.12674 17.0042 6.34316 17.33 7.3162 16.7942L7.53437 16.6742C7.82495 16.5142 8.17557 16.5142 8.46662 16.6742L8.68478 16.7942C9.94749 17.4891 11.0759 16.6719 11.4494 16.054L11.5792 15.8405C11.7515 15.5563 12.0549 15.3807 12.3867 15.3739L12.6352 15.3684C12.7493 15.3661 12.8593 15.3491 12.9679 15.329L11.597 12.6262Z" fill="#AD12F5"/>
    <path opacity="0.4" d="M11.5969 12.6262C11.5185 12.4722 11.3609 12.375 11.1881 12.375H10.3741H5.70826H4.89426C4.72147 12.375 4.5638 12.4722 4.48543 12.6262L3.19751 15.1644C3.2548 15.1708 3.3098 15.1837 3.36801 15.1846L3.6178 15.1901C4.01243 15.1979 4.37405 15.4073 4.57801 15.7451L4.70726 15.9582C5.23159 16.824 6.34076 17.121 7.22717 16.6334L7.44534 16.5133C7.79092 16.3231 8.20846 16.3231 8.55405 16.5133L8.77221 16.6334C9.85159 17.2274 10.9025 16.6027 11.2917 15.9587L11.4214 15.7451C11.6258 15.4073 11.9874 15.1983 12.382 15.1901L12.6309 15.1846C12.7162 15.1827 12.7973 15.1676 12.8793 15.1552L11.5969 12.6262Z" fill="#AD12F5"/>
    <path opacity="0.5" d="M11.5969 12.6262C11.5186 12.4722 11.3609 12.375 11.1881 12.375H10.3741H5.70827H4.89427C4.72148 12.375 4.56381 12.4722 4.48544 12.6262L3.28552 14.9912C3.31486 14.9935 3.34236 15.0008 3.37215 15.0012L3.62148 15.0067C4.07844 15.0159 4.49873 15.2588 4.73477 15.6502L4.86402 15.8634C5.33656 16.6439 6.3394 16.913 7.13873 16.473L7.35689 16.3529C7.75702 16.1324 8.24239 16.1324 8.64252 16.3529L8.86069 16.473C9.75673 16.9657 10.7298 16.5339 11.1354 15.8634L11.2646 15.6502C11.5016 15.2593 11.9214 15.0168 12.3779 15.0072L12.6273 15.0017C12.6836 15.0003 12.7368 14.9889 12.7913 14.9825L11.5969 12.6262Z" fill="#AD12F5"/>
    <path d="M11.5969 12.6262C11.5186 12.4722 11.3609 12.375 11.1881 12.375H10.3741H5.70828H4.89428C4.72149 12.375 4.56383 12.4722 4.48545 12.6262L3.37354 14.8179C3.37445 14.8179 3.37537 14.8184 3.37628 14.8184L3.62562 14.8239C4.14537 14.8344 4.62341 15.1108 4.89199 15.5554L5.02124 15.7685C5.44245 16.4642 6.33803 16.7044 7.05074 16.3125L7.26891 16.1925C7.72403 15.9417 8.27632 15.9417 8.73145 16.1925L8.94962 16.3125C9.66232 16.7044 10.5579 16.4652 10.9791 15.7685L11.1084 15.5554C11.3779 15.1108 11.8554 14.8349 12.3747 14.8239L12.6241 14.8184C12.6516 14.8179 12.6772 14.811 12.7043 14.8087L11.5969 12.6262Z" fill="#AD12F5"/>
    <path d="M15.4823 9.43983C15.2316 8.9847 15.2316 8.43241 15.4823 7.97729L15.6023 7.75912C15.9942 7.04641 15.755 6.15083 15.0583 5.72962L14.8452 5.60037C14.4006 5.33087 14.1247 4.85329 14.1137 4.334L14.1082 4.08466C14.0917 3.27112 13.4363 2.6157 12.6227 2.5992L12.3734 2.5937C11.8536 2.58316 11.3756 2.30679 11.107 1.86221L10.9778 1.64908C10.5566 0.952873 9.66098 0.713164 8.94827 1.10504L8.7301 1.22512C8.27498 1.47583 7.72269 1.47583 7.26756 1.22512L7.04985 1.1055C6.33714 0.713623 5.44202 0.953331 5.02081 1.64954L4.89156 1.86266C4.62206 2.30725 4.14448 2.58316 3.62519 2.59416L3.37585 2.59966C2.56231 2.61616 1.9069 3.27158 1.8904 4.08512L1.8849 4.33445C1.87436 4.8542 1.59798 5.33224 1.1534 5.60083L0.940273 5.73008C0.244523 6.15129 0.00435664 7.04687 0.396231 7.75958L0.516315 7.97774C0.767023 8.43287 0.767023 8.98516 0.516315 9.44028L0.39669 9.65799C0.00481494 10.3707 0.244065 11.2663 0.940731 11.6875L1.15386 11.8167C1.59844 12.0862 1.87436 12.5638 1.88536 13.0831L1.89086 13.3324C1.90736 14.146 2.56277 14.8014 3.37631 14.8179L3.62565 14.8234C4.1454 14.8339 4.62344 15.1103 4.89202 15.5549L5.02127 15.768C5.44248 16.4638 6.33806 16.7039 7.05077 16.3121L7.26894 16.192C7.72406 15.9413 8.27635 15.9413 8.73148 16.192L8.94964 16.3121C9.66235 16.7039 10.5579 16.4647 10.9791 15.768L11.1084 15.5549C11.3779 15.1103 11.8555 14.8344 12.3748 14.8234L12.6241 14.8179C13.4376 14.8014 14.0931 14.146 14.1096 13.3324L14.1151 13.0831C14.1256 12.5634 14.402 12.0853 14.8466 11.8167L15.0597 11.6875C15.7554 11.2663 15.9956 10.3707 15.6037 9.65799L15.4823 9.43983Z" fill="url(#paint1_linear_5071_5887)"/>
    <path d="M9.67839 1.14646C10.134 1.14646 10.5465 1.37884 10.7821 1.76796L10.9113 1.98063C11.2225 2.4958 11.7675 2.81067 12.3688 2.82259L12.6186 2.82809C13.3116 2.8423 13.8657 3.39596 13.8795 4.08942L13.885 4.33875C13.8978 4.93963 14.2122 5.48459 14.7269 5.79625L14.9405 5.9255C15.5336 6.28392 15.7362 7.04109 15.4025 7.64838L15.2824 7.86654C14.9918 8.39363 14.9918 9.02292 15.2829 9.55092L15.4039 9.76817C15.738 10.3755 15.535 11.1322 14.9419 11.4915L14.7292 11.6207C14.2141 11.932 13.8992 12.4769 13.8873 13.0782L13.8818 13.328C13.8676 14.021 13.3139 14.5752 12.6204 14.5889L12.3711 14.5944C11.7702 14.6072 11.2253 14.9217 10.9136 15.4364L10.7844 15.65C10.5492 16.0391 10.1367 16.2715 9.68114 16.2715C9.46573 16.2715 9.25123 16.2165 9.06148 16.112L8.84331 15.9919C8.58618 15.8502 8.29514 15.7755 8.00135 15.7755C7.70756 15.7755 7.41652 15.8502 7.15939 15.9919L6.94123 16.112C6.75148 16.2165 6.53744 16.2715 6.32202 16.2715C5.86644 16.2715 5.45394 16.0391 5.2179 15.65L5.08865 15.4373C4.77744 14.9221 4.23248 14.6072 3.63115 14.5953L3.38136 14.5898C2.68836 14.5756 2.13423 14.022 2.12048 13.3285L2.11498 13.0792C2.10215 12.4783 1.78773 11.9333 1.27302 11.6217L1.05944 11.4924C0.466357 11.134 0.263773 10.3768 0.597898 9.76954L0.717523 9.55183C1.00811 9.02475 1.00811 8.39546 0.717523 7.86838L0.59744 7.65021C0.263315 7.04292 0.466357 6.28621 1.05944 5.92688L1.27211 5.79763C1.78727 5.48642 2.10215 4.94146 2.11406 4.34013L2.11956 4.09034C2.13377 3.39734 2.68744 2.84321 3.3809 2.82946L3.63023 2.82396C4.2311 2.81113 4.77606 2.49671 5.08773 1.98201L5.21698 1.76888C5.45256 1.37976 5.8646 1.14738 6.32019 1.14738C6.5356 1.14738 6.74964 1.20238 6.93985 1.30688L7.15756 1.42651C7.41469 1.56813 7.70573 1.64284 7.99952 1.64284C8.29331 1.64284 8.58435 1.56813 8.84148 1.42651L9.05964 1.30642C9.24848 1.20146 9.46298 1.14646 9.67839 1.14646ZM9.67839 0.917297C9.43089 0.917297 9.18018 0.977797 8.94827 1.10521L8.7301 1.2253C8.50277 1.35042 8.25068 1.41321 7.9986 1.41321C7.74698 1.41321 7.49489 1.35042 7.26756 1.2253L7.04985 1.10567C6.81839 0.978256 6.56769 0.917756 6.32019 0.917756C5.80594 0.917756 5.30544 1.17946 5.02081 1.64971L4.89156 1.86284C4.62206 2.30742 4.14448 2.58334 3.62519 2.59434L3.37585 2.59984C2.56231 2.61634 1.9069 3.27175 1.8904 4.0853L1.8849 4.33463C1.87436 4.85438 1.59798 5.33242 1.1534 5.601L0.940273 5.73025C0.244523 6.15146 0.00435664 7.04704 0.396231 7.75975L0.516315 7.97792C0.767023 8.43304 0.767023 8.98533 0.516315 9.44046L0.39669 9.65817C0.00481494 10.3709 0.244065 11.2665 0.940731 11.6877L1.15386 11.8169C1.59844 12.0864 1.87436 12.564 1.88536 13.0833L1.89086 13.3326C1.90736 14.1462 2.56277 14.8016 3.37631 14.8181L3.62565 14.8236C4.1454 14.8341 4.62344 15.1105 4.89202 15.5551L5.02127 15.7682C5.3059 16.238 5.8064 16.5002 6.3211 16.5002C6.5686 16.5002 6.81931 16.4397 7.05077 16.3122L7.26894 16.1922C7.49627 16.067 7.74835 16.0042 7.99998 16.0042C8.2516 16.0042 8.50368 16.067 8.73148 16.1922L8.94964 16.3122C9.1811 16.4397 9.43227 16.5002 9.67977 16.5002C10.1945 16.5002 10.6945 16.2385 10.9791 15.7682L11.1084 15.5551C11.3779 15.1105 11.8555 14.8346 12.3748 14.8236L12.6241 14.8181C13.4376 14.8016 14.0931 14.1462 14.1096 13.3326L14.1151 13.0833C14.1256 12.5635 14.402 12.0855 14.8466 11.8169L15.0597 11.6877C15.7554 11.2665 15.9956 10.3709 15.6037 9.65817L15.4823 9.44C15.2316 8.98488 15.2316 8.43258 15.4823 7.97746L15.6023 7.75929C15.9942 7.04659 15.755 6.151 15.0583 5.72979L14.8452 5.60054C14.4006 5.33104 14.1247 4.85346 14.1137 4.33417L14.1082 4.08484C14.0917 3.2713 13.4363 2.61588 12.6227 2.59938L12.3734 2.59388C11.8536 2.58334 11.3756 2.30696 11.107 1.86238L10.9778 1.64926C10.6936 1.17946 10.1926 0.917297 9.67839 0.917297Z" fill="url(#paint2_linear_5071_5887)"/>
    <defs>
    <linearGradient id="paint0_linear_5071_5887" x1="8.04121" y1="22.9474" x2="8.04121" y2="14.2656" gradientUnits="userSpaceOnUse">
    <stop stop-color="#97F8FF"/>
    <stop offset="0.125" stop-color="#AD12F5" stop-opacity="0.78824"/>
    <stop offset="0.328" stop-color="#AD12F5" stop-opacity="0.90196"/>
    <stop offset="0.584" stop-color="#AD12F5"/>
    <stop offset="0.88" stop-color="#AD12F5"/>
    <stop offset="1" stop-color="#AD12F5"/>
    </linearGradient>
    <linearGradient id="paint1_linear_5071_5887" x1="7.99998" y1="4.67316" x2="7.99998" y2="20.2565" gradientUnits="userSpaceOnUse">
    <stop stop-color="#C0C0C0"/>
    <stop offset="1" stop-color="#F4E9FF" stop-opacity="0.5"/>
    </linearGradient>
    <linearGradient id="paint2_linear_5071_5887" x1="7.99998" y1="16.1967" x2="7.99998" y2="0.613422" gradientUnits="userSpaceOnUse">
    <stop stop-color="#DEC7F0" stop-opacity="0.2"/>
    <stop offset="1" stop-color="#C0C0C0"/>
    </linearGradient>
    </defs>
    </svg>
    