<svg width="778" height="778" viewBox="0 0 778 778" fill="none" xmlns="http://www.w3.org/2000/svg">
    <path
        d="M0.540039 389C0.540039 603.536 174.459 777.465 388.995 777.465C603.541 777.465 777.46 603.536 777.46 389C777.46 174.459 603.541 0.534912 388.995 0.534912C174.459 0.534912 0.540039 174.459 0.540039 389Z"
        fill="#781AC0" />
    <mask id="mask0_26_2684" style="mask-type:alpha" maskUnits="userSpaceOnUse" x="0" y="0"
        width="778" height="778">
        <path
            d="M0.540039 389C0.540039 603.536 174.459 777.465 388.995 777.465C603.541 777.465 777.46 603.536 777.46 389C777.46 174.459 603.541 0.534912 388.995 0.534912C174.459 0.534912 0.540039 174.459 0.540039 389Z"
            fill="#781AC0" />
    </mask>
    <g mask="url(#mask0_26_2684)">
        <path
            d="M610.933 158.358L225.125 307.094L661.627 764.237C758.439 773.349 877.664 681.49 956.242 521.642L610.933 158.358Z"
            fill="#5C2983" />
        <path d="M321.684 345.148L342.214 449.116L555.825 203.662L321.684 345.148Z" fill="#D9C0EB" />
        <path d="M357.544 376.006L342.823 450.343L453.136 333.389L357.544 376.006Z" fill="#934DCA" />
        <path
            d="M599.626 160.732L235.273 283.092C224.228 287.287 224.52 303.013 235.714 306.798L323.52 350.655L544.19 215.291L357.544 376.007L475.105 482.269C489.832 493.442 511.184 485.93 515.671 467.998L616.317 175.562C618.784 165.691 609.138 157.117 599.626 160.732Z"
            fill="#F5ECFD" />
    </g>
    <mask id="mask1_26_2684" style="mask-type:alpha" maskUnits="userSpaceOnUse" x="0" y="0"
        width="778" height="778">
        <path
            d="M0.540039 389C0.540039 603.536 174.459 777.465 388.995 777.465C603.541 777.465 777.46 603.536 777.46 389C777.46 174.459 603.541 0.534912 388.995 0.534912C174.459 0.534912 0.540039 174.459 0.540039 389Z"
            fill="#781AC0" />
    </mask>
    <g mask="url(#mask1_26_2684)">
        <g opacity="0.2">
            <path d="M-110.136 725.825C-95.383 713.445 33.7097 605.124 33.7097 605.124"
                stroke="white" stroke-width="2" />
        </g>
    </g>
</svg>
    