<svg width="31" height="30" viewBox="0 0 31 30" fill="none" xmlns="http://www.w3.org/2000/svg">
<path d="M18.5315 1.8822C18.0854 1.88424 17.6389 2.05651 17.2988 2.39718L10.8479 8.86171C10.4116 9.29921 10.1666 9.89083 10.1666 10.5092V22.1667C10.1666 23.4559 11.2108 24.5001 12.5 24.5001H22.9909C23.923 24.5001 24.7664 23.9448 25.1351 23.0873L28.6442 14.9184C28.769 14.6279 28.8333 14.3139 28.8333 13.9978V11.6667C28.8333 10.3776 27.7891 9.33339 26.5 9.33339H19.0898L20.2496 4.0082C20.378 3.4202 20.1947 2.80697 19.7666 2.38581C19.4236 2.04864 18.9776 1.88016 18.5315 1.8822ZM4.33329 10.5C3.68929 10.5 3.16663 11.0227 3.16663 11.6667V23.3334C3.16663 23.9774 3.68929 24.5 4.33329 24.5H6.66663C7.31063 24.5 7.83329 23.9774 7.83329 23.3334V11.6667C7.83329 11.0227 7.31063 10.5 6.66663 10.5H4.33329Z" fill="white"/>
</svg>
