<svg width="298" height="227" viewBox="0 0 298 227" fill="none" xmlns="http://www.w3.org/2000/svg">
    <path
        d="M84.5666 51.1957C95.3769 45.8401 108.313 51.3213 118.502 57.7811C127.811 63.6822 136.565 70.456 144.612 77.9869C159.604 92.014 172.15 108.653 188.297 121.331C204.443 134.012 225.859 142.515 245.529 136.631C248.501 135.741 251.403 134.535 254.478 134.138C258.753 133.586 263.05 134.627 267.295 135.378C272.647 136.32 278.082 136.803 283.517 136.813C286.952 136.819 290.575 136.684 293.594 138.317C296.615 139.953 298.553 144.139 296.543 146.922C295.908 147.798 294.986 148.413 294.07 148.992C275.107 160.989 252.088 165.501 229.657 164.824C207.226 164.149 185.219 158.559 163.879 151.623C158.533 149.884 153.168 148.039 148.345 145.15C142.381 141.58 137.442 136.528 132.955 131.219C127.111 124.303 121.907 116.845 117.431 108.97C112.604 100.477 107.966 90.8536 99.0664 86.8336C89.9982 82.7375 77.8258 85.1971 71.1346 77.8348C66.5261 72.7635 66.7906 64.3896 70.8139 58.8423C74.8372 53.2949 81.8689 50.4551 88.7188 50.313"
        fill="url(#paint0_linear_5065_2159)" />
    <g opacity="0.07">
        <path
            d="M273.659 138.591C278.436 143.246 286.38 144.228 292.146 140.876C286.175 138.026 279.844 135.943 273.348 134.69"
            fill="white" />
    </g>
    <path
        d="M202.843 136.561C199.213 141.808 198.895 148.863 200.886 154.922C202.876 160.986 206.922 166.173 211.458 170.659C226.609 185.628 249.476 193.83 269.903 187.793C277.127 185.658 284.724 180.471 284.863 172.943C285.011 164.668 276.429 159.329 268.981 155.726C262.491 152.585 255.999 149.445 249.509 146.307C244.547 143.907 239.538 141.477 235.204 138.069C232.497 135.94 230.064 133.437 227.128 131.632C217.861 125.933 208.859 126.574 203.21 135.874"
        fill="url(#paint1_linear_5065_2159)" />
    <g opacity="0.18">
        <path
            d="M199.229 146.446C199.51 147.63 199.867 148.787 200.261 149.934C200.648 151.081 201.077 152.215 201.537 153.332C202.466 155.564 203.494 157.752 204.684 159.848C205.858 161.951 207.154 163.984 208.578 165.915C210 167.849 211.541 169.69 213.207 171.406C214.873 173.122 216.652 174.722 218.523 176.203C220.41 177.664 222.397 178.986 224.46 180.183C226.546 181.33 228.685 182.418 230.88 183.281L231.29 183.453C231.403 183.506 231.541 183.542 231.687 183.591L232.54 183.866C233.112 184.044 233.687 184.216 234.265 184.385C235.419 184.719 236.583 185.033 237.747 185.324C242.405 186.524 247.149 187.416 251.919 187.896C256.683 188.385 261.513 188.418 266.194 187.592C267.361 187.373 268.515 187.099 269.642 186.752C270.77 186.398 271.867 185.962 272.928 185.456C275.054 184.444 276.981 183.023 278.545 181.257C279.322 180.371 280.01 179.4 280.601 178.371C281.18 177.333 281.649 176.232 282.056 175.102L282.324 174.242L282.456 173.813L282.565 173.373L282.78 172.493L282.949 171.604C283.077 171.012 283.137 170.411 283.226 169.809C283.302 169.207 283.339 168.602 283.398 167.997C283.388 168.606 283.405 169.214 283.375 169.822C283.335 170.431 283.325 171.042 283.243 171.647L283.137 172.56L282.978 173.465L282.899 173.918L282.793 174.365L282.578 175.261C282.248 176.447 281.818 177.608 281.279 178.725C280.72 179.833 280.059 180.894 279.289 181.879C277.722 183.829 275.725 185.433 273.52 186.61C272.419 187.205 271.265 187.697 270.089 188.111C268.908 188.514 267.708 188.841 266.492 189.109C265.278 189.374 264.052 189.562 262.822 189.711C261.592 189.856 260.356 189.926 259.123 189.972C256.657 190.051 254.19 189.965 251.741 189.764C246.841 189.331 242.005 188.431 237.251 187.241C236.064 186.937 234.884 186.61 233.707 186.259C233.118 186.084 232.533 185.906 231.945 185.717L231.065 185.43C230.923 185.38 230.768 185.334 230.603 185.264L230.173 185.082L228.454 184.349C227.882 184.104 227.336 183.813 226.778 183.548C225.654 183.029 224.589 182.395 223.508 181.796C221.392 180.514 219.359 179.102 217.432 177.552C215.514 175.991 213.729 174.275 212.073 172.45C208.74 168.814 206 164.672 203.818 160.291C202.737 158.093 201.801 155.828 201.018 153.517C200.241 151.203 199.593 148.843 199.223 146.439L199.229 146.446Z"
            fill="url(#paint2_linear_5065_2159)" />
    </g>
    <g opacity="0.07">
        <path
            d="M247.79 170.602C245.086 169.664 241.78 171.118 240.639 173.743C239.502 176.368 240.702 179.776 243.234 181.109C246.021 182.573 249.605 181.591 252.412 183.016C253.215 183.423 253.992 184.034 254.891 183.991C255.628 183.955 256.27 183.476 256.792 182.953C259.4 180.322 260.005 175.925 258.207 172.688C256.409 169.449 252.355 167.64 248.745 168.463"
            fill="white" />
    </g>
    <g opacity="0.07">
        <path
            d="M262.24 156.628C264.74 158.701 267.239 160.774 269.738 162.843C270.525 158.728 268.188 154.225 264.373 152.499C260.554 150.774 255.628 151.997 253.063 155.309"
            fill="white" />
    </g>
    <g opacity="0.07">
        <path
            d="M231.852 157.326C232.563 159.108 233.303 160.946 234.656 162.308C236.004 163.673 238.133 164.457 239.892 163.69C241.449 163.009 242.325 161.316 242.679 159.653C243.634 155.144 241.049 149.97 236.659 148.578C232.265 147.187 226.847 150.466 226.566 155.065"
            fill="white" />
    </g>
    <path
        d="M229.71 167.902C229.922 167.902 229.922 167.571 229.71 167.571C229.498 167.571 229.498 167.902 229.71 167.902Z"
        fill="url(#paint3_linear_5065_2159)" />
    <path
        d="M75.1181 68.7733C60.5555 75.3653 46.7731 83.683 34.1511 93.4917C24.5143 100.98 15.3271 109.641 10.2095 120.719C5.08867 131.797 4.76139 145.752 12.0443 155.547C16.4082 161.415 23.7672 165.445 30.9873 164.291C34.0056 163.809 36.8157 162.486 39.5397 161.101C75.1842 142.978 103.622 111.109 117.583 73.6396C118.532 71.0907 119.388 68.1253 118.029 65.7715C116.733 63.5301 113.93 62.7367 111.381 62.2904C96.1372 59.6225 79.9745 62.5615 66.645 70.4229"
        fill="url(#paint4_linear_5065_2159)" />
    <path
        d="M109.943 77.9307C102.58 88.7212 101.354 102.451 100.914 115.506C100.656 123.106 100.593 130.763 101.87 138.261C105.84 161.597 122.122 180.686 138.079 198.167C144.655 205.371 151.369 212.594 159.475 218.019C167.581 223.444 177.321 226.988 187.024 225.997C193.54 225.329 200.151 222.31 203.533 216.704C206.138 212.383 206.539 207.093 206.337 202.048C205.861 190.243 202.466 178.768 198.796 167.538C194.366 153.977 189.46 140.476 182.333 128.118C175.202 115.76 165.704 104.517 153.568 97.0191C145.055 91.7627 134.423 87.3228 131.596 77.7224C131.272 76.6282 131.018 75.4116 130.139 74.6843C129.325 74.0132 128.181 73.9438 127.127 73.9471C120.703 73.9768 114.297 75.6926 108.723 78.8762"
        fill="url(#paint5_linear_5065_2159)" />
    <path
        d="M101.969 97.1216C101.665 98.92 101.44 100.728 101.255 102.54C101.063 104.352 100.918 106.167 100.805 107.982C100.594 111.615 100.504 115.251 100.59 118.881C100.736 126.141 101.516 133.384 103.053 140.449C104.591 147.514 106.964 154.39 110.303 160.761L111.609 163.118C112.052 163.898 112.545 164.652 113.011 165.419C113.464 166.192 113.996 166.923 114.508 167.667L115.279 168.778L116.062 169.892C118.168 172.837 120.376 175.723 122.638 178.563C127.14 184.259 131.884 189.767 136.889 195.023C141.881 200.29 147.158 205.288 152.798 209.837C155.618 212.112 158.55 214.241 161.591 216.198C163.109 217.186 164.669 218.095 166.253 218.971C167.84 219.838 169.466 220.624 171.119 221.352C172.775 222.072 174.471 222.701 176.197 223.236C177.923 223.772 179.691 224.162 181.477 224.446C181.923 224.506 182.369 224.592 182.822 224.628L184.174 224.757L185.53 224.81C185.983 224.833 186.435 224.803 186.888 224.803C188.7 224.76 190.512 224.542 192.294 224.139C188.786 225.137 185.057 225.428 181.407 224.992C177.747 224.605 174.177 223.58 170.749 222.254C163.902 219.527 157.654 215.52 151.842 211.057C150.384 209.943 148.966 208.783 147.554 207.609C146.159 206.419 144.777 205.215 143.425 203.979C140.714 201.513 138.093 198.951 135.537 196.329C130.446 191.063 125.649 185.522 121.087 179.8C118.819 176.923 116.611 174.008 114.489 171.016L113.705 169.892L112.922 168.751C112.402 167.991 111.864 167.244 111.397 166.44C110.921 165.647 110.419 164.87 109.966 164.067L108.65 161.627C105.315 155.035 102.934 147.983 101.549 140.763C100.118 133.55 99.5457 126.201 99.6284 118.885C99.6846 115.225 99.8896 111.572 100.266 107.935C100.66 104.302 101.176 100.682 101.979 97.1216H101.969Z"
        fill="url(#paint6_linear_5065_2159)" />
    <path
        d="M22.0977 103.998C19.1885 106.705 16.6925 109.81 14.5734 113.119C13.5089 114.772 12.5468 116.484 11.7204 118.26C10.8972 120.035 10.1467 121.84 9.57151 123.701C8.43427 127.424 7.74663 131.282 7.75986 135.163C7.72019 137.1 7.8888 139.034 8.12021 140.958C8.19294 141.438 8.2822 141.914 8.36154 142.393L8.48386 143.11C8.52022 143.348 8.56651 143.586 8.62602 143.824L8.95991 145.243L9.12521 145.95C9.18802 146.185 9.26406 146.416 9.33017 146.648C9.61448 147.577 9.84259 148.525 10.1897 149.428L10.6724 150.797L10.7947 151.137L10.8245 151.223L10.8476 151.276L10.9203 151.431C11.0195 151.64 11.1253 151.851 11.2344 152.063C12.1105 153.755 13.2047 155.355 14.418 156.833C16.8412 159.789 19.9819 162.182 23.6118 163.303C25.4234 163.855 27.3376 164.083 29.2517 163.984C31.1691 163.895 33.0734 163.485 34.9313 162.896C38.6405 161.667 42.1085 159.686 45.3681 157.418C42.3762 160.033 39.0108 162.278 35.2619 163.812C33.3742 164.533 31.3939 165.068 29.3443 165.28C27.2979 165.498 25.1986 165.313 23.1886 164.791C21.172 164.268 19.2711 163.353 17.5652 162.179C15.8594 161.005 14.3188 159.604 12.9832 158.043C11.6443 156.48 10.4873 154.784 9.51531 152.959C9.393 152.731 9.27729 152.499 9.16158 152.261L9.07562 152.079L9.02272 151.96L8.98966 151.871L8.85743 151.514L8.3351 150.079C7.96153 149.127 7.71027 148.149 7.41274 147.177C7.34332 146.932 7.26728 146.691 7.20446 146.446L7.03587 145.702L6.69866 144.218C6.63915 143.97 6.59287 143.722 6.5532 143.471L6.43088 142.72C6.35154 142.218 6.26227 141.719 6.18954 141.216C5.97135 139.196 5.78623 137.166 5.87549 135.13C5.97136 131.064 6.73503 127.02 8.09707 123.209C9.46572 119.397 11.3898 115.81 13.7601 112.57C14.9536 110.957 16.233 109.41 17.6181 107.968C19.0099 106.534 20.4778 105.175 22.0811 103.995L22.0977 103.998Z"
        fill="url(#paint7_linear_5065_2159)" />
    <path opacity="0.25"
        d="M168.154 206.614C173.631 206.614 178.071 202.026 178.071 196.366C178.071 190.706 173.631 186.117 168.154 186.117C162.676 186.117 158.236 190.706 158.236 196.366C158.236 202.026 162.676 206.614 168.154 206.614Z"
        fill="white" />
    <path opacity="0.17"
        d="M179.724 177.191C185.932 177.191 190.964 172.973 190.964 167.769C190.964 162.566 185.932 158.347 179.724 158.347C173.517 158.347 168.484 162.566 168.484 167.769C168.484 172.973 173.517 177.191 179.724 177.191Z"
        fill="white" />
    <path opacity="0.25"
        d="M144.02 177.191C148.767 177.191 152.616 173.491 152.616 168.926C152.616 164.362 148.767 160.661 144.02 160.661C139.273 160.661 135.425 164.362 135.425 168.926C135.425 173.491 139.273 177.191 144.02 177.191Z"
        fill="white" />
    <path opacity="0.17"
        d="M170.964 145.454C173.976 145.454 176.418 143.53 176.418 141.157C176.418 138.783 173.976 136.859 170.964 136.859C167.951 136.859 165.509 138.783 165.509 141.157C165.509 143.53 167.951 145.454 170.964 145.454Z"
        fill="white" />
    <path opacity="0.25"
        d="M149.475 150.413C152.122 150.413 154.269 148.045 154.269 145.124C154.269 142.202 152.122 139.834 149.475 139.834C146.828 139.834 144.681 142.202 144.681 145.124C144.681 148.045 146.828 150.413 149.475 150.413Z"
        fill="white" />
    <path
        d="M106.088 93.3397C94.3057 104.332 76.824 106.193 60.7109 106.253C49.5732 106.292 38.2207 105.707 27.7673 101.862C17.3107 98.0176 7.74993 90.4734 3.80596 80.0532C1.79265 74.7339 0.992614 68.9618 0.909966 63.2789C0.797564 55.2884 1.79926 47.0898 5.13825 39.8299C7.90531 33.8165 12.722 27.7269 17.8132 23.4987C31.5956 12.0502 49.9567 7.72609 67.6996 10.2022C72.9924 10.9428 78.2323 12.3544 82.9598 14.847C87.1285 17.0455 90.8246 20.034 94.395 23.1086C108.696 35.4198 121.517 49.4436 132.499 64.7864C136.01 69.6924 139.481 75.805 137.313 81.435C134.909 87.6799 127.143 89.5478 120.528 90.5428C115.189 91.3462 109.853 92.1462 104.514 92.9496"
        fill="url(#paint8_linear_5065_2159)" />
    <g opacity="0.29">
        <path
            d="M18.8214 27.5319C25.2779 29.3138 31.7343 31.0957 38.1941 32.8776C39.209 33.1586 40.3 33.433 41.2885 33.0693C42.1546 32.7486 42.7728 31.9916 43.3315 31.2577C45.6622 28.203 47.7615 24.9764 49.6128 21.611C50.1351 20.6622 50.6475 19.5481 50.2508 18.5398C49.8739 17.5777 48.8161 17.0984 47.8375 16.7645C36.8288 13.009 23.7075 16.5628 16.094 25.3566C17.3271 26.1302 18.7916 26.5269 20.2495 26.4839"
            fill="url(#paint9_linear_5065_2159)" />
    </g>
    <g opacity="0.29">
        <path
            d="M60.8331 15.5876C58.8099 17.7827 56.7305 20.0704 55.785 22.9036C54.8428 25.7368 55.3552 29.2873 57.7818 31.0263C61.8844 33.9685 67.7095 30.0676 72.5824 31.3866C74.7412 31.9718 77.052 33.5553 78.9761 32.4181C79.4984 32.1073 79.8984 31.6279 80.2522 31.1354C83.925 26.0178 83.2275 18.2456 78.7083 13.8586C74.1858 9.47163 66.4003 9.0121 61.3952 12.8371"
            fill="url(#paint10_linear_5065_2159)" />
    </g>
    <g opacity="0.29">
        <path
            d="M70.9228 53.6222C74.3081 56.4885 76.2322 60.9945 75.9644 65.4211C75.7859 68.3667 75.128 72.2016 77.776 73.5074C78.8438 74.033 80.1067 73.881 81.2869 73.7124C86.7252 72.9454 93.1221 71.461 95.1189 66.3435C96.438 62.9615 95.2677 59.1663 94.0015 55.7645C92.2593 51.0899 90.1799 46.2798 86.2822 43.1689C82.3812 40.058 76.1396 39.3373 72.632 42.8813C68.8533 46.6996 69.9542 52.9908 71.3229 58.1877"
            fill="url(#paint11_linear_5065_2159)" />
    </g>
    <g opacity="0.29">
        <path
            d="M112.693 62.3267C112.66 64.0822 112.644 65.9269 113.477 67.4741C114.31 69.0213 116.29 70.099 117.864 69.3188C119.378 68.5683 119.768 66.6212 119.904 64.9384C120.072 62.8094 120.109 60.5978 119.305 58.6208C118.502 56.6439 116.667 54.9479 114.531 54.9116C111.93 54.8686 109.791 57.3646 109.533 59.9531C109.275 62.5416 110.502 65.0707 112.121 67.1071"
            fill="url(#paint12_linear_5065_2159)" />
    </g>
    <path
        d="M93.7898 21.8192C121.91 -1.03467 162.9 -5.18361 196.574 8.20209C202.426 10.5295 208.129 13.3626 213.091 17.2405C217.646 20.8043 224.797 25.1846 228.523 29.608C235.002 37.3008 239.079 42.3854 244.781 50.1708C249.254 56.2769 252.309 65.269 254.587 72.4858C256.329 78.0067 259.089 84.8335 259.46 90.6089C260.432 105.836 263.199 115.536 258.66 135.358C258.442 136.313 258.63 137.411 257.992 138.158C257.208 139.074 255.843 139.137 254.636 139.13C248.253 139.094 241.869 139.057 235.485 139.021C229.809 138.988 224.103 138.955 218.516 137.953C210.74 136.561 203.431 133.338 196.207 130.144C185.433 125.381 174.587 120.577 164.871 113.916C155.154 107.254 146.523 98.5497 141.762 87.7724C139.593 82.8598 136.611 77.6232 134.674 72.6148C126.251 50.8353 106.164 36.8545 92.97 22.7746C94.4279 22.4969 92.5766 21.2307 94.0345 20.953"
        fill="url(#paint13_linear_5065_2159)" />
    <path
        d="M92.613 22.3085C94.4941 23.6143 96.3487 24.9565 98.1901 26.3153C100.025 27.6839 101.84 29.079 103.645 30.4939C107.248 33.3271 110.763 36.2727 114.194 39.3241C117.609 42.3953 120.925 45.5888 124.042 49.0071C125.6 50.7196 127.094 52.4949 128.482 54.3793C129.868 56.257 131.157 58.2604 132.188 60.4225C133.21 62.5813 133.973 64.8921 134.459 67.2029C134.952 69.5171 135.25 71.7751 135.732 73.9305C136.208 76.086 136.873 78.1555 137.775 80.1424C138.675 82.1325 139.795 84.0334 141.012 85.8847C143.468 89.5808 146.407 93.009 149.492 96.2984C150.255 97.1282 151.062 97.9249 151.845 98.7382C152.639 99.5448 153.455 100.332 154.259 101.128C155.065 101.925 155.892 102.702 156.705 103.489C157.522 104.276 158.365 105.036 159.194 105.813C160.031 106.603 160.841 107.31 161.707 108.044C162.57 108.772 163.446 109.492 164.329 110.21C166.094 111.645 167.876 113.063 169.671 114.468C171.463 115.873 173.268 117.268 175.079 118.643C175.985 119.331 176.894 120.009 177.803 120.676C178.706 121.334 179.632 121.966 180.561 122.59C184.283 125.086 188.237 127.265 192.32 129.163C194.36 130.118 196.439 130.991 198.545 131.791C200.644 132.614 202.78 133.348 204.932 134.026C209.246 135.365 213.646 136.446 218.103 137.242C222.559 138.056 227.068 138.598 231.604 138.889C240.676 139.517 249.82 139.094 258.904 138.013C249.935 139.831 240.742 140.704 231.531 140.532C226.93 140.426 222.324 140.052 217.749 139.404C216.605 139.249 215.468 139.044 214.327 138.859C213.193 138.634 212.056 138.436 210.926 138.185C209.798 137.937 208.664 137.695 207.544 137.404C206.982 137.262 206.42 137.133 205.861 136.981L204.188 136.522C199.728 135.272 195.348 133.712 191.11 131.817C186.865 129.933 182.743 127.758 178.825 125.229C177.843 124.597 176.881 123.936 175.932 123.252C174.997 122.571 174.068 121.886 173.152 121.192C171.314 119.81 169.496 118.412 167.687 117.003C165.879 115.592 164.077 114.17 162.289 112.729C161.393 112.008 160.504 111.278 159.614 110.534C158.732 109.793 157.819 109 156.989 108.223C156.143 107.443 155.283 106.676 154.45 105.882C153.617 105.086 152.774 104.302 151.948 103.495C151.135 102.676 150.308 101.872 149.501 101.042C148.705 100.203 147.888 99.3861 147.108 98.5299C143.964 95.1314 140.946 91.5742 138.36 87.6303C137.071 85.6599 135.924 83.5706 134.975 81.3755C134.03 79.1803 133.335 76.8563 132.869 74.5388C132.4 72.218 132.145 69.9303 131.722 67.7617C131.329 65.583 130.717 63.5036 129.848 61.4969C128.975 59.4968 127.828 57.6058 126.552 55.7678C125.276 53.9297 123.871 52.1676 122.423 50.432C119.51 46.9707 116.346 43.6912 113.093 40.5076C109.85 37.3075 106.478 34.2296 103.063 31.1981C101.354 29.6807 99.6282 28.1864 97.886 26.7087C96.1504 25.221 94.3982 23.7499 92.6197 22.3151L92.613 22.3085Z"
        fill="url(#paint14_linear_5065_2159)" />
    <g opacity="0.29">
        <path
            d="M182.726 10.5889C181.341 14.9792 182.157 20.0042 184.865 23.73C187.573 27.4558 192.098 29.7865 196.7 29.8261C201.256 29.8658 205.544 27.826 209.64 25.8293C211.332 25.0061 213.306 23.6771 213.032 21.8192C212.922 21.0786 212.453 20.4439 211.977 19.8654C205.345 11.7229 194.822 6.90283 184.326 7.20367C183.596 9.03515 183.391 11.0716 183.738 13.0155"
            fill="url(#paint15_linear_5065_2159)" />
    </g>
    <g opacity="0.12">
        <path
            d="M217.055 30.9402C211.59 31.3502 207.683 38.081 210.03 43.03C211.739 46.6335 215.772 48.6732 217.567 52.2337C218.476 54.0354 218.764 56.1512 219.961 57.7745C221.676 60.1018 224.781 60.8357 227.627 61.3415C230.761 61.9002 234.037 62.373 237.075 61.4275C240.114 60.482 242.818 57.7017 242.613 54.5247C242.451 52.0023 240.6 49.9526 238.851 48.1278C235.452 44.5805 232.054 41.0365 228.655 37.4893C225.488 34.1867 221.524 30.5964 217.012 31.3535"
            fill="url(#paint16_linear_5065_2159)" />
    </g>
    <g opacity="0.29">
        <path
            d="M158.302 4.25151C142.989 4.3573 127.732 8.92609 114.878 17.2504C127.157 21.6473 137.931 30.1336 145.078 41.0432C145.733 42.0449 146.546 43.1788 147.743 43.2317C148.374 43.2581 148.969 42.9639 149.521 42.6598C154.06 40.1539 157.872 36.4413 162.54 34.19C166.768 32.1502 171.853 31.175 174.706 27.4492C176.111 25.6177 176.782 23.3036 176.924 20.9993C177.496 11.7196 168.368 3.10105 159.135 4.20192"
            fill="url(#paint17_linear_5065_2159)" />
    </g>
    <g opacity="0.29">
        <path
            d="M178.967 39.3406C168.844 42.1044 159.184 46.5641 150.516 52.4817C157.637 61.8044 165.449 70.5982 173.863 78.7737C174.689 79.5771 175.641 80.4267 176.795 80.4498C177.671 80.4664 178.471 79.9936 179.218 79.5374C187.589 74.4297 196.528 68.6543 199.904 59.4473C201.18 55.9661 201.514 51.9395 199.828 48.6369C198.165 45.374 194.816 43.3077 191.421 41.9325C185.9 39.6944 179.473 38.8943 174.041 41.344"
            fill="url(#paint18_linear_5065_2159)" />
    </g>
    <g opacity="0.12">
        <path
            d="M205.094 72.5057C199.242 78.5886 193.394 84.6748 187.543 90.7577C195.08 95.0918 202.621 99.4225 210.159 103.757C212.536 105.122 215.022 106.524 217.759 106.672C218.698 106.725 219.683 106.613 220.483 106.114C221.412 105.532 221.964 104.517 222.437 103.528C226.215 95.6604 227.617 86.6716 226.414 78.0266C226.268 76.9786 226.063 75.8843 225.412 75.0513C224.781 74.2446 223.809 73.7851 222.847 73.4347C217.851 71.6263 212.053 72.1883 207.497 74.919"
            fill="url(#paint19_linear_5065_2159)" />
    </g>
    <g opacity="0.19">
        <path
            d="M235.105 82.0565C235.284 89.8056 236.193 97.5381 237.823 105.119C238.011 106.001 238.252 106.95 238.947 107.525C239.631 108.091 240.586 108.157 241.472 108.183C247.439 108.358 253.423 107.915 259.298 106.861C260.283 106.682 261.404 106.388 261.84 105.486C262.124 104.894 262.029 104.2 261.923 103.552C260.633 95.8852 258.346 88.3906 255.139 81.3093C254.722 80.387 254.246 79.425 253.4 78.8729C252.283 78.1456 250.818 78.3142 249.516 78.6117C243.915 79.8845 238.752 83.0152 235.036 87.3922"
            fill="url(#paint20_linear_5065_2159)" />
    </g>
    <path
        d="M42.1977 72.3933C46.9448 72.3933 50.7931 68.101 50.7931 62.8061C50.7931 57.5113 46.9448 53.2189 42.1977 53.2189C37.4506 53.2189 33.6023 57.5113 33.6023 62.8061C33.6023 68.101 37.4506 72.3933 42.1977 72.3933Z"
        fill="url(#paint21_linear_5065_2159)" />
    <path
        d="M43.1895 69.7485C46.6585 69.7485 49.4707 66.7883 49.4707 63.1367C49.4707 59.4851 46.6585 56.5248 43.1895 56.5248C39.7204 56.5248 36.9082 59.4851 36.9082 63.1367C36.9082 66.7883 39.7204 69.7485 43.1895 69.7485Z"
        fill="#030826" />
    <path
        d="M42.5283 62.1449C44.1715 62.1449 45.5036 60.8868 45.5036 59.3349C45.5036 57.7829 44.1715 56.5248 42.5283 56.5248C40.8851 56.5248 39.553 57.7829 39.553 59.3349C39.553 60.8868 40.8851 62.1449 42.5283 62.1449Z"
        fill="white" />
    <path
        d="M5.1714 82.2449C6.18632 83.726 7.52853 84.9095 8.98645 85.8649C10.4377 86.8369 12.0378 87.5476 13.6842 88.0865C15.3371 88.6122 17.0463 88.956 18.772 89.151C19.6348 89.2601 20.5076 89.3031 21.3771 89.3494C22.2498 89.356 23.1226 89.3924 23.9987 89.3428C27.4996 89.2502 30.9973 88.7179 34.4652 88.0105C37.9364 87.2898 41.3746 86.3608 44.8425 85.4186C41.6192 87.0022 38.2472 88.2948 34.7694 89.2634C31.2948 90.2387 27.698 90.8932 24.0449 90.9924C23.1325 91.0354 22.2168 90.999 21.3043 90.9759C20.3919 90.9032 19.4761 90.8503 18.567 90.6982C16.7521 90.4304 14.9503 89.9874 13.2412 89.2899C11.5287 88.6088 9.90549 87.6865 8.49716 86.5063C7.79961 85.9112 7.14173 85.2699 6.57311 84.5558C6.01111 83.8417 5.49869 83.078 5.16479 82.2416L5.1714 82.2449Z"
        fill="#030826" />
    <defs>
        <linearGradient id="paint0_linear_5065_2159" x1="67.7394" y1="106.96" x2="297.369"
            y2="106.96" gradientUnits="userSpaceOnUse">
            <stop stop-color="#723EB1" />
            <stop offset="0.49" stop-color="#4647AC" />
        </linearGradient>
        <linearGradient id="paint1_linear_5065_2159" x1="199.669" y1="158.883" x2="284.863"
            y2="158.883" gradientUnits="userSpaceOnUse">
            <stop offset="0.01" stop-color="#4647AC" />
            <stop offset="1" stop-color="#723EB1" />
        </linearGradient>
        <linearGradient id="paint2_linear_5065_2159" x1="198.251" y1="168.226" x2="284.39"
            y2="168.226" gradientUnits="userSpaceOnUse">
            <stop offset="0.3" stop-color="#E8B389" />
            <stop offset="0.75" stop-color="white" />
        </linearGradient>
        <linearGradient id="paint3_linear_5065_2159" x1="229.551" y1="167.736" x2="229.869"
            y2="167.736" gradientUnits="userSpaceOnUse">
            <stop offset="0.01" stop-color="#4647AC" />
            <stop offset="1" stop-color="#723EB1" />
        </linearGradient>
        <linearGradient id="paint4_linear_5065_2159" x1="6.45733" y1="112.911" x2="118.733"
            y2="112.911" gradientUnits="userSpaceOnUse">
            <stop offset="0.3" stop-color="#E8B389" />
            <stop offset="0.75" stop-color="#F74585" />
        </linearGradient>
        <linearGradient id="paint5_linear_5065_2159" x1="100.765" y1="150.053" x2="206.383"
            y2="150.053" gradientUnits="userSpaceOnUse">
            <stop offset="0.3" stop-color="#E8B389" />
            <stop offset="0.75" stop-color="#F74585" />
        </linearGradient>
        <linearGradient id="paint6_linear_5065_2159" x1="99.106" y1="161.154" x2="192.538"
            y2="161.154" gradientUnits="userSpaceOnUse">
            <stop offset="0.3" stop-color="#E8B389" />
            <stop offset="0.75" stop-color="white" />
        </linearGradient>
        <linearGradient id="paint7_linear_5065_2159" x1="5.81267" y1="134.687" x2="45.983"
            y2="134.687" gradientUnits="userSpaceOnUse">
            <stop offset="0.3" stop-color="#E8B389" />
            <stop offset="0.75" stop-color="white" />
        </linearGradient>
        <linearGradient id="paint8_linear_5065_2159" x1="0.900048" y1="57.8902" x2="137.984"
            y2="57.8902" gradientUnits="userSpaceOnUse">
            <stop stop-color="#EDF479" />
            <stop offset="0.01" stop-color="#E3E47A" />
            <stop offset="0.06" stop-color="#CBBB7F" />
            <stop offset="0.11" stop-color="#B49583" />
            <stop offset="0.17" stop-color="#A17586" />
            <stop offset="0.23" stop-color="#915A89" />
            <stop offset="0.29" stop-color="#84448B" />
            <stop offset="0.38" stop-color="#7A338D" />
            <stop offset="0.47" stop-color="#73278F" />
            <stop offset="0.61" stop-color="#6F208F" />
            <stop offset="1" stop-color="#6E1F90" />
        </linearGradient>
        <linearGradient id="paint9_linear_5065_2159" x1="16.0907" y1="24.2623" x2="50.3864"
            y2="24.2623" gradientUnits="userSpaceOnUse">
            <stop offset="0.01" stop-color="#4647AC" />
            <stop offset="1" stop-color="#723EB1" />
        </linearGradient>
        <linearGradient id="paint10_linear_5065_2159" x1="55.342" y1="21.535" x2="82.6126"
            y2="21.535" gradientUnits="userSpaceOnUse">
            <stop offset="0.01" stop-color="#4647AC" />
            <stop offset="1" stop-color="#723EB1" />
        </linearGradient>
        <linearGradient id="paint11_linear_5065_2159" x1="70.0435" y1="57.1926" x2="95.6975"
            y2="57.1926" gradientUnits="userSpaceOnUse">
            <stop offset="0.01" stop-color="#4647AC" />
            <stop offset="1" stop-color="#723EB1" />
        </linearGradient>
        <linearGradient id="paint12_linear_5065_2159" x1="109.5" y1="62.2441" x2="120.003"
            y2="62.2441" gradientUnits="userSpaceOnUse">
            <stop offset="0.01" stop-color="#4647AC" />
            <stop offset="1" stop-color="#723EB1" />
        </linearGradient>
        <linearGradient id="paint13_linear_5065_2159" x1="158.067" y1="110.345" x2="212.383"
            y2="16.2685" gradientUnits="userSpaceOnUse">
            <stop stop-color="#D61A52" />
            <stop offset="0.04" stop-color="#C7275B" />
            <stop offset="0.24" stop-color="#8B5F86" />
            <stop offset="0.42" stop-color="#598FA9" />
            <stop offset="0.6" stop-color="#32B3C5" />
            <stop offset="0.76" stop-color="#16CED8" />
            <stop offset="0.9" stop-color="#05DEE4" />
            <stop offset="1" stop-color="#00E4E9" />
        </linearGradient>
        <linearGradient id="paint14_linear_5065_2159" x1="91.6279" y1="81.4317" x2="259.166"
            y2="81.4317" gradientUnits="userSpaceOnUse">
            <stop stop-color="#00E4E9" />
        </linearGradient>
        <linearGradient id="paint15_linear_5065_2159" x1="182.062" y1="18.5066" x2="213.055"
            y2="18.5066" gradientUnits="userSpaceOnUse">
            <stop offset="0.01" stop-color="#4647AC" />
            <stop offset="1" stop-color="#723EB1" />
        </linearGradient>
        <linearGradient id="paint16_linear_5065_2159" x1="209.335" y1="46.455" x2="242.629"
            y2="46.455" gradientUnits="userSpaceOnUse">
            <stop offset="0.01" stop-color="#4647AC" />
            <stop offset="1" stop-color="#723EB1" />
        </linearGradient>
        <linearGradient id="paint17_linear_5065_2159" x1="114.878" y1="23.6705" x2="176.947"
            y2="23.6705" gradientUnits="userSpaceOnUse">
            <stop offset="0.01" stop-color="#4647AC" />
            <stop offset="1" stop-color="#723EB1" />
        </linearGradient>
        <linearGradient id="paint18_linear_5065_2159" x1="150.52" y1="59.8936" x2="200.981"
            y2="59.8936" gradientUnits="userSpaceOnUse">
            <stop offset="0.01" stop-color="#4647AC" />
            <stop offset="1" stop-color="#723EB1" />
        </linearGradient>
        <linearGradient id="paint19_linear_5065_2159" x1="187.543" y1="89.5378" x2="226.837"
            y2="89.5378" gradientUnits="userSpaceOnUse">
            <stop offset="0.01" stop-color="#4647AC" />
            <stop offset="1" stop-color="#723EB1" />
        </linearGradient>
        <linearGradient id="paint20_linear_5065_2159" x1="235.029" y1="93.2867" x2="262.029"
            y2="93.2867" gradientUnits="userSpaceOnUse">
            <stop offset="0.01" stop-color="#4647AC" />
            <stop offset="1" stop-color="#723EB1" />
        </linearGradient>
        <linearGradient id="paint21_linear_5065_2159" x1="33.6023" y1="62.8061" x2="50.7931"
            y2="62.8061" gradientUnits="userSpaceOnUse">
            <stop stop-color="#EDF479" />
            <stop offset="0.01" stop-color="#E3E47A" />
            <stop offset="0.06" stop-color="#CBBB7F" />
            <stop offset="0.11" stop-color="#B49583" />
            <stop offset="0.17" stop-color="#A17586" />
            <stop offset="0.23" stop-color="#915A89" />
            <stop offset="0.29" stop-color="#84448B" />
            <stop offset="0.38" stop-color="#7A338D" />
            <stop offset="0.47" stop-color="#73278F" />
            <stop offset="0.61" stop-color="#6F208F" />
            <stop offset="1" stop-color="#6E1F90" />
        </linearGradient>
    </defs>
</svg>
    