<svg width="726" height="726" viewBox="0 0 726 726" fill="none" xmlns="http://www.w3.org/2000/svg">
    <mask id="mask0_26_2684" style="mask-type:luminance" maskUnits="userSpaceOnUse" x="0" y="0"
        width="726" height="726">
        <path d="M0.227882 0.612061H725.052V725.436H0.227882V0.612061Z" fill="white" />
    </mask>
    <g mask="url(#mask0_26_2684)">
        <mask id="mask1_26_2684" style="mask-type:luminance" maskUnits="userSpaceOnUse" x="0" y="0"
            width="726" height="726">
            <path
                d="M362.64 0.612061C162.485 0.612061 0.227882 162.87 0.227882 363.024C0.227882 563.179 162.485 725.436 362.64 725.436C562.795 725.436 725.052 563.179 725.052 363.024C725.052 162.87 562.795 0.612061 362.64 0.612061Z"
                fill="white" />
        </mask>
        <g mask="url(#mask1_26_2684)">
            <path d="M0.227882 0.612061H725.052V725.436H0.227882V0.612061Z" fill="white" />
        </g>
    </g>
    <mask id="mask2_26_2684" style="mask-type:luminance" maskUnits="userSpaceOnUse" x="53" y="53"
        width="553" height="553">
        <path d="M53.4419 53.7317H605.155V605.446H53.4419V53.7317Z" fill="white" />
    </mask>
    <g mask="url(#mask2_26_2684)">
        <path
            d="M605.074 329.548C605.074 334.062 604.964 338.574 604.743 343.082C604.52 347.59 604.189 352.091 603.746 356.583C603.304 361.076 602.752 365.554 602.09 370.019C601.427 374.485 600.655 378.931 599.775 383.357C598.894 387.785 597.906 392.188 596.808 396.567C595.712 400.945 594.508 405.294 593.198 409.614C591.888 413.933 590.473 418.218 588.951 422.469C587.431 426.718 585.806 430.928 584.079 435.099C582.351 439.269 580.523 443.394 578.594 447.475C576.663 451.555 574.634 455.587 572.507 459.567C570.379 463.548 568.154 467.475 565.834 471.346C563.513 475.218 561.099 479.03 558.591 482.784C556.083 486.538 553.485 490.227 550.796 493.852C548.107 497.478 545.33 501.035 542.467 504.525C539.603 508.014 536.656 511.432 533.624 514.776C530.593 518.12 527.482 521.389 524.29 524.581C521.098 527.773 517.83 530.884 514.485 533.915C511.141 536.947 507.723 539.894 504.234 542.758C500.745 545.621 497.187 548.398 493.562 551.086C489.936 553.776 486.247 556.374 482.493 558.882C478.741 561.389 474.928 563.804 471.056 566.124C467.185 568.445 463.258 570.669 459.277 572.797C455.296 574.925 451.266 576.954 447.185 578.883C443.105 580.814 438.979 582.642 434.808 584.37C430.638 586.097 426.427 587.722 422.178 589.242C417.927 590.762 413.643 592.179 409.323 593.488C405.004 594.799 400.654 596.003 396.276 597.099C391.897 598.196 387.494 599.184 383.068 600.066C378.64 600.946 374.194 601.717 369.728 602.379C365.264 603.042 360.785 603.595 356.292 604.037C351.8 604.48 347.301 604.811 342.792 605.032C338.283 605.255 333.772 605.365 329.258 605.365C324.744 605.365 320.232 605.255 315.724 605.032C311.216 604.811 306.715 604.48 302.223 604.037C297.731 603.595 293.252 603.042 288.787 602.379C284.323 601.717 279.877 600.946 275.449 600.066C271.022 599.184 266.619 598.196 262.24 597.099C257.861 596.003 253.513 594.799 249.192 593.488C244.873 592.179 240.588 590.762 236.338 589.242C232.088 587.722 227.878 586.097 223.708 584.37C219.537 582.642 215.412 580.814 211.332 578.883C207.251 576.954 203.22 574.925 199.239 572.797C195.258 570.669 191.332 568.445 187.46 566.124C183.588 563.804 179.776 561.389 176.022 558.882C172.27 556.374 168.579 553.776 164.954 551.086C161.329 548.398 157.771 545.621 154.282 542.758C150.792 539.894 147.376 536.946 144.031 533.915C140.687 530.884 137.419 527.773 134.227 524.581C131.035 521.389 127.923 518.12 124.891 514.776C121.86 511.432 118.913 508.014 116.049 504.525C113.185 501.035 110.409 497.478 107.72 493.852C105.031 490.227 102.433 486.538 99.9251 482.784C97.417 479.03 95.0024 475.218 92.6822 471.346C90.362 467.475 88.1374 463.548 86.0094 459.567C83.8814 455.587 81.8532 451.555 79.9228 447.475C77.9923 443.394 76.1639 439.269 74.4363 435.099C72.7088 430.928 71.0854 426.718 69.564 422.469C68.0437 418.218 66.6286 413.933 65.3177 409.614C64.0078 405.294 62.8043 400.945 61.707 396.567C60.6108 392.188 59.6219 387.785 58.7415 383.357C57.86 378.931 57.0891 374.485 56.4267 370.019C55.7642 365.554 55.2124 361.076 54.77 356.583C54.3266 352.091 53.9948 347.59 53.7737 343.082C53.5525 338.574 53.4419 334.062 53.4419 329.548C53.4419 325.035 53.5525 320.523 53.7737 316.015C53.9948 311.507 54.3266 307.006 54.77 302.514C55.2124 298.021 55.7642 293.543 56.4267 289.078C57.0891 284.612 57.86 280.166 58.7415 275.74C59.6219 271.312 60.6108 266.909 61.707 262.53C62.8043 258.152 64.0078 253.803 65.3177 249.483C66.6286 245.164 68.0437 240.879 69.564 236.628C71.0854 232.379 72.7088 228.169 74.4363 223.998C76.1639 219.828 77.9923 215.703 79.9228 211.622C81.8532 207.542 83.8814 203.51 86.0094 199.53C88.1374 195.549 90.362 191.622 92.6822 187.751C95.0024 183.879 97.417 180.067 99.9251 176.313C102.433 172.559 105.031 168.87 107.72 165.245C110.409 161.619 113.185 158.062 116.049 154.572C118.913 151.083 121.86 147.667 124.891 144.321C127.923 140.977 131.035 137.708 134.227 134.516C137.419 131.325 140.687 128.213 144.031 125.182C147.376 122.151 150.792 119.203 154.282 116.339C157.771 113.476 161.329 110.699 164.954 108.011C168.579 105.321 172.27 102.723 176.022 100.215C179.776 97.7079 183.588 95.2932 187.46 92.973C191.332 90.6518 195.258 88.4282 199.239 86.3002C203.22 84.1722 207.251 82.143 211.332 80.2136C215.412 78.2832 219.538 76.4547 223.708 74.7272C227.878 72.9997 232.088 71.3763 236.338 69.8549C240.588 68.3346 244.873 66.9184 249.192 65.6086C253.513 64.2987 257.861 63.0951 262.24 61.9978C266.619 60.9005 271.022 59.9128 275.449 59.0313C279.877 58.1509 284.323 57.38 288.787 56.7175C293.252 56.0551 297.731 55.5022 302.223 55.0598C306.715 54.6175 311.216 54.2857 315.724 54.0645C320.232 53.8423 324.744 53.7317 329.258 53.7317C333.772 53.7317 338.283 53.8423 342.792 54.0645C347.301 54.2857 351.8 54.6175 356.292 55.0598C360.785 55.5022 365.264 56.0551 369.728 56.7175C374.194 57.38 378.64 58.1509 383.068 59.0313C387.494 59.9128 391.897 60.9005 396.276 61.9978C400.654 63.0951 405.004 64.2987 409.323 65.6086C413.643 66.9184 417.927 68.3346 422.178 69.8549C426.427 71.3763 430.638 72.9997 434.808 74.7272C438.979 76.4547 443.105 78.2832 447.185 80.2136C451.266 82.143 455.296 84.1722 459.277 86.3002C463.258 88.4282 467.185 90.6518 471.056 92.973C474.928 95.2932 478.741 97.7079 482.493 100.215C486.247 102.723 489.936 105.321 493.562 108.011C497.187 110.699 500.745 113.476 504.234 116.339C507.723 119.203 511.141 122.151 514.485 125.182C517.83 128.213 521.098 131.325 524.29 134.516C527.482 137.708 530.593 140.977 533.624 144.321C536.656 147.667 539.603 151.083 542.467 154.572C545.33 158.062 548.107 161.619 550.796 165.245C553.485 168.87 556.083 172.559 558.591 176.313C561.099 180.067 563.513 183.879 565.834 187.751C568.154 191.622 570.379 195.549 572.507 199.53C574.634 203.51 576.663 207.542 578.594 211.622C580.523 215.703 582.351 219.828 584.079 223.998C585.806 228.169 587.431 232.379 588.951 236.628C590.473 240.879 591.888 245.164 593.199 249.483C594.508 253.803 595.712 258.152 596.808 262.53C597.906 266.909 598.894 271.312 599.775 275.74C600.655 280.166 601.427 284.612 602.09 289.078C602.752 293.543 603.304 298.021 603.746 302.514C604.189 307.006 604.521 311.507 604.743 316.015C604.964 320.523 605.074 325.035 605.074 329.548Z"
            fill="#934DCA" />
    </g>
    <mask id="mask3_26_2684" style="mask-type:luminance" maskUnits="userSpaceOnUse" x="16" y="16"
        width="695" height="695">
        <path d="M16.495 16.8792H710.299V710.683H16.495V16.8792Z" fill="white" />
    </mask>
    <g mask="url(#mask3_26_2684)">
        <mask id="mask4_26_2684" style="mask-type:luminance" maskUnits="userSpaceOnUse" x="16"
            y="16" width="695" height="695">
            <path
                d="M363.397 16.8792C171.808 16.8792 16.495 172.192 16.495 363.781C16.495 555.369 171.808 710.683 363.397 710.683C554.986 710.683 710.299 555.369 710.299 363.781C710.299 172.192 554.986 16.8792 363.397 16.8792Z"
                fill="white" />
        </mask>
        <g mask="url(#mask4_26_2684)">
            <path d="M16.495 16.8792H710.299V710.683H16.495V16.8792Z" fill="#934DCA" />
        </g>
    </g>
    <path
        d="M161.479 142.878L324.792 380.972L153.536 579.398H190.04L340.969 404.53L460.913 579.398H575.944L405.047 330.266L566.79 142.878H530.309L388.893 306.708L276.51 142.878H161.479Z"
        fill="white" />
</svg>
        